<svg width="1466" height="1000" viewBox="0 0 1466 1000" fill="none" xmlns="http://www.w3.org/2000/svg">
<path d="M786.88 367.205C790.217 367.098 793.554 366.99 796.992 366.88C820.675 366.683 820.675 366.683 828.609 371.403C836.426 380.277 841.214 392.13 845.979 402.924C846.757 404.635 847.535 406.347 848.337 408.111C853.516 419.605 858.255 431.238 862.803 442.996C866.413 451.727 870.774 460.033 875.081 468.435C879.425 477.342 883.042 486.472 886.609 495.712C888.61 501.045 888.61 501.045 891.277 506.184C891.298 504.535 891.319 502.887 891.34 501.189C891.563 484.081 891.822 466.973 892.101 449.866C892.201 443.475 892.291 437.085 892.373 430.695C892.491 421.525 892.642 412.356 892.799 403.187C892.829 400.316 892.859 397.445 892.89 394.487C892.941 391.835 892.993 389.183 893.046 386.451C893.081 384.109 893.115 381.766 893.151 379.353C893.874 373.699 893.874 373.699 899.07 368.504C906.016 367.831 906.016 367.831 914.738 367.814C917.862 367.807 920.986 367.8 924.205 367.793C927.483 367.813 930.762 367.833 934.139 367.854C937.418 367.834 940.696 367.814 944.074 367.793C947.198 367.8 950.322 367.807 953.541 367.814C956.419 367.819 959.298 367.825 962.263 367.831C969.209 368.504 969.209 368.504 974.404 373.699C975.065 378.901 975.065 378.901 975.082 385.415C975.1 387.881 975.118 390.347 975.137 392.888C975.131 395.602 975.124 398.316 975.118 401.112C975.131 403.963 975.144 406.814 975.158 409.752C975.194 419.217 975.192 428.681 975.186 438.145C975.196 444.701 975.207 451.256 975.219 457.811C975.239 471.567 975.238 485.323 975.224 499.079C975.209 514.986 975.241 530.893 975.296 546.8C975.347 562.093 975.355 577.386 975.346 592.68C975.347 599.192 975.361 605.703 975.387 612.215C975.419 621.309 975.402 630.401 975.372 639.495C975.391 642.203 975.411 644.912 975.432 647.703C975.413 650.176 975.395 652.649 975.377 655.197C975.377 657.348 975.377 659.499 975.378 661.715C974.169 668.58 972.122 670.879 966.611 675.037C959.971 676.045 959.971 676.045 952.1 676.072C947.831 676.087 947.831 676.087 943.475 676.102C940.501 676.072 937.528 676.042 934.464 676.011C931.511 676.041 928.557 676.071 925.514 676.102C922.661 676.092 919.808 676.082 916.869 676.072C914.265 676.063 911.662 676.054 908.98 676.045C900.354 674.855 895.591 672.502 888.679 667.243C885.388 662.331 885.388 662.331 883.027 656.761C882.12 654.681 881.214 652.601 880.279 650.458C879.354 648.229 878.429 645.999 877.476 643.701C876.481 641.398 875.485 639.095 874.46 636.721C872.395 631.942 870.346 627.155 868.312 622.363C863.738 611.621 859.002 600.953 854.259 590.285C853.406 588.353 852.552 586.42 851.673 584.428C846.134 571.944 840.279 559.684 833.893 547.605C831.498 542.486 830.225 537.646 828.931 532.161C828.916 533.874 828.901 535.588 828.885 537.353C828.719 555.136 828.5 572.917 828.249 590.699C828.163 597.341 828.09 603.983 828.031 610.626C827.944 620.157 827.808 629.686 827.663 639.216C827.638 643.693 827.638 643.693 827.612 648.261C827.561 651.017 827.509 653.773 827.456 656.613C827.428 659.047 827.399 661.481 827.369 663.99C827.027 665.921 826.685 667.852 826.333 669.841C817.487 675.739 814.235 675.704 803.847 675.727C800.977 675.733 798.107 675.74 795.15 675.747C792.153 675.727 789.156 675.707 786.068 675.686C781.573 675.716 781.573 675.716 776.986 675.747C772.682 675.737 772.682 675.737 768.29 675.727C765.66 675.721 763.029 675.715 760.319 675.709C753.597 675.037 753.597 675.037 745.803 669.841C744.83 664.591 744.83 664.591 744.831 658.009C744.813 655.517 744.795 653.026 744.776 650.459C744.796 647.717 744.816 644.974 744.836 642.149C744.827 639.268 744.817 636.387 744.808 633.419C744.786 623.857 744.822 614.297 744.86 604.735C744.861 598.116 744.86 591.496 744.856 584.876C744.856 570.987 744.882 557.098 744.93 543.209C744.985 527.14 744.994 511.07 744.978 495.001C744.963 479.558 744.978 464.115 745.007 448.671C745.017 442.092 745.02 435.513 745.016 428.934C745.015 419.753 745.048 410.572 745.09 401.391C745.083 398.649 745.077 395.907 745.07 393.081C745.089 390.59 745.107 388.099 745.126 385.532C745.132 383.359 745.137 381.187 745.142 378.949C747.332 361.561 774.017 367.307 786.88 367.205Z" fill="white"/>
<path fill-rule="evenodd" clip-rule="evenodd" d="M261.63 367.876L253.975 368.002C253.565 368.009 253.164 368.014 252.773 368.019C246.496 368.103 242.538 368.156 236.646 371.101C236.531 408.182 236.439 445.262 236.385 482.342C236.359 500.366 236.33 518.39 236.272 536.413C236.22 552.247 236.179 568.08 236.161 583.913C236.156 590.604 236.149 597.294 236.139 603.984C236.098 613.655 236.058 623.325 236.054 632.996L236.057 641.828L236 650.236L236.022 657.875C236.014 661.57 236.01 663.215 236.118 664.853C236.204 666.168 236.362 667.479 236.646 669.841C239.588 672.783 240.864 674.059 242.404 674.732C243.584 675.248 244.918 675.41 247.275 675.696L254.066 675.709L261.767 675.758L270.123 675.727C275.942 675.737 281.762 675.743 287.581 675.747C296.771 675.714 305.959 675.686 315.149 675.714C321.133 675.736 327.118 675.745 333.102 675.742L341.723 675.727C373.176 675.848 405.085 670.894 428.717 647.923C449.704 624.536 458.555 598.634 458.831 567.326L458.743 558.615C458.751 552.336 458.752 546.056 458.748 539.777C458.666 530.023 458.591 520.273 458.613 510.52C458.635 504.095 458.638 497.67 458.622 491.245L458.58 481.982C458.659 452.254 456.407 424.205 436.226 400.975L429.528 394.481L423.075 387.987C413.343 380.711 406.848 375.854 399.618 372.659C385.102 366.245 367.627 366.528 315.069 367.381C308.945 367.481 302.821 367.551 296.697 367.594C285.008 367.654 273.319 367.76 261.63 367.876ZM343.875 437.831L338.609 437.993C336.679 438.008 334.744 437.899 332.868 437.794C324.562 437.328 317.403 436.927 316.848 447.551L316.841 456.04C316.829 460.954 316.817 465.868 316.823 470.782C316.829 474.304 316.832 477.825 316.83 481.347C316.823 488.665 316.82 495.983 316.83 503.302C316.845 512.85 316.854 522.398 316.839 531.947C316.827 539.38 316.821 546.814 316.825 554.248C316.828 557.791 316.831 561.333 316.832 564.876C316.827 568.356 316.821 571.835 316.817 575.314L316.841 584.902C316.845 589.837 316.92 594.774 317.177 599.702C317.929 600.454 318.49 601.015 319.142 601.436C321.058 602.672 323.758 602.694 334.398 602.782L340.232 602.787C341.02 602.8 341.791 602.816 342.547 602.831C352.647 603.033 360.018 603.18 369.132 597.104C377.239 585.219 377.85 574.925 377.942 561.007L377.869 553.085C377.872 547.5 377.87 541.916 377.864 536.332C377.798 527.563 377.737 518.797 377.745 510.028C377.757 504.285 377.755 498.543 377.741 492.8L377.707 484.57L377.714 476.615L377.639 469.205C377.588 460.132 376.528 454.216 371.73 446.436C362.72 439.136 355.403 437.74 343.875 437.831Z" fill="white"/>
<path fill-rule="evenodd" clip-rule="evenodd" d="M1122.18 360L1115.82 360.061C1085.69 359.774 1058.4 367.497 1035.94 388.474C1013.01 413.164 1007.69 442.438 1007.39 475.162L1007.39 483.758C1007.37 489.924 1007.35 496.09 1007.34 502.257C1007.36 511.855 1007.36 521.452 1007.3 531.051C1007.26 537.36 1007.23 543.669 1007.23 549.977L1007.23 559.092C1007 586.622 1009.63 612.012 1022.63 636.72C1036.78 658.291 1056.12 671.89 1080.94 678.639C1121.32 686.177 1161.52 682.076 1195.86 658.963C1221.19 633.058 1229.82 608.124 1230 572.207C1229.96 566.996 1229.93 561.784 1229.93 556.573C1229.93 549.169 1229.93 541.765 1229.89 534.361C1229.83 524.812 1229.79 515.265 1229.8 505.716C1229.82 498.213 1229.82 490.711 1229.8 483.208C1229.79 479.623 1229.78 476.038 1229.77 472.454L1229.77 462.096L1229.7 452.425C1229.59 428.374 1219.89 410.749 1205.6 391.883C1183.64 370.141 1152.58 360.098 1122.18 360ZM1145.86 449.033C1141.76 440.843 1135.38 435.522 1127.67 430.849C1116.76 429.126 1111.67 429.538 1102.18 435.233C1094.72 443.118 1091.71 450.058 1090.66 460.884L1090.67 468.021L1090.65 476.163L1090.7 484.864C1090.71 490.954 1090.71 497.044 1090.72 503.134C1090.77 512.729 1090.82 522.324 1090.82 531.919C1090.82 538.193 1090.83 544.467 1090.84 550.741L1090.87 559.711L1090.88 568.46L1090.93 576.527C1090.94 580.79 1091.04 585.056 1091.3 589.311C1095.38 597.472 1099.61 604.552 1106.89 610.093C1116.75 611.95 1126.4 612.028 1135.46 607.495C1146.74 595.253 1147.06 584.794 1147.1 568.493L1146.96 559.315C1146.94 552.879 1146.92 546.442 1146.9 540.005C1146.78 529.874 1146.67 519.744 1146.62 509.612C1146.6 502.982 1146.57 496.352 1146.54 489.722L1146.42 471.006L1146.32 462.491C1146.27 458.003 1146.14 453.513 1145.86 449.033Z" fill="white"/>
<path fill-rule="evenodd" clip-rule="evenodd" d="M571.812 367.446L565.262 367.468C564.517 367.463 563.782 367.455 563.057 367.448C548.95 367.302 538.596 367.195 533.205 382.489L531.471 389.975L529.425 398.623L527.27 408.119C524.342 420.607 521.437 433.1 518.58 445.604C517.643 449.707 516.705 453.809 515.767 457.912L514.291 464.355C512.778 470.966 511.264 477.577 509.747 484.187L509.393 485.726C507.505 493.951 505.617 502.177 503.758 510.408C498.668 532.978 493.292 555.385 486.995 577.652C482.897 592.115 478.998 606.524 476 621.265L474.828 627.303C471.631 642.614 469.687 656.767 470.444 672.439C470.982 672.976 471.424 673.418 471.922 673.783C474.237 675.482 477.766 675.525 497.695 675.772L507.624 675.848L517.462 676.077L526.915 676.143C531.527 676.204 533.691 676.232 535.84 676.063C537.739 675.913 539.626 675.609 543.181 675.037C549.592 670.184 552.816 666.675 555.623 659.141L556.677 653.291L557.925 646.822C558.234 645.048 558.535 643.275 558.836 641.504C561.113 628.076 563.37 614.774 569.158 602.3C574.964 602.247 580.77 602.204 586.576 602.173L593.675 602.138L600.742 602.072L607.465 602.046C611.149 602.022 614.838 602.075 618.515 602.3C619.874 603.461 620.644 604.12 621.145 604.942C621.799 606.019 621.992 607.377 622.435 610.512L623.843 617.856C624.943 623.331 626.035 628.807 627.12 634.285L628.698 642.621L630.337 650.652C631.078 654.46 631.436 656.301 631.931 658.104C632.393 659.791 632.975 661.445 634.102 664.646C639.666 672.132 642.531 674.697 651.79 676.299L660.1 676.234L669.161 676.203L678.588 676.011C681.278 676.008 684.097 676.154 686.961 676.303C697.942 676.873 709.592 677.478 717.229 669.841C717.785 665.166 718.156 662.041 718.117 658.921C718.038 652.63 716.29 646.359 711.019 627.445C710.381 625.223 709.739 623.002 709.097 620.781C704.244 603.994 699.399 587.233 696.407 569.991C694.018 555.912 690.808 542.102 687.455 528.223C686.253 523.307 685.05 518.391 683.857 513.472C683.685 512.76 683.512 512.049 683.34 511.337C679.87 497.012 676.399 482.689 672.53 468.466C667.499 450.286 663.329 432.153 659.755 413.639C659.351 411.465 658.979 409.263 658.605 407.05C656.515 394.664 654.369 381.95 646.232 372.122C644.387 370.583 643.171 369.568 641.789 368.892C639.116 367.584 635.824 367.542 626.161 367.421L619.814 367.468C615.376 367.453 610.939 367.443 606.501 367.438C599.505 367.488 592.512 367.529 585.516 367.487C580.948 367.455 576.38 367.441 571.812 367.446ZM600.513 483.169C598.87 475.353 598.338 473.018 592.537 467.218C591.341 472.376 590.148 477.535 588.97 482.697L587.504 489.136C583.765 505.188 580.829 520.902 579.548 537.356C580.638 538.447 581.271 539.079 582.028 539.472C583.075 540.015 584.36 540.099 587.423 540.299L593.836 540.279L600.249 540.299C603.311 540.099 604.596 540.015 605.643 539.472C606.401 539.079 607.033 538.447 608.123 537.356C608.992 525.5 607.071 514.653 604.683 503.109L603.253 496.442L601.883 489.654L600.513 483.169Z" fill="white"/>
</svg>
