<svg width="2109" height="1000" viewBox="0 0 2109 1000" fill="none" xmlns="http://www.w3.org/2000/svg">
<g clip-path="url(#clip0_2015_138)">
<path d="M1743.52 446.72C1745.13 447.858 1746.74 448.995 1748.4 450.167C1771.11 472.37 1779.96 502.174 1780.66 533.168C1780.68 563.302 1772.5 593.297 1751.46 615.69C1732.48 633.571 1710.28 639.014 1685.03 638.607C1669.29 637.986 1656.78 632.276 1645.49 621.339C1643.97 619.317 1642.45 617.295 1640.89 615.212C1640.38 644.529 1639.88 673.847 1639.36 704.053C1621.16 704.053 1602.96 704.053 1584.22 704.053C1584.22 614.078 1584.22 524.104 1584.22 431.403C1602.41 431.403 1620.61 431.403 1639.36 431.403C1640.12 442.018 1640.12 442.018 1640.89 452.847C1642.6 450.983 1644.3 449.119 1646.06 447.199C1672.37 420.981 1715.68 425.642 1743.52 446.72ZM1645.05 492.26C1633.5 507.517 1630.21 524.411 1631.7 543.22C1634.12 559.254 1640.24 574.194 1653.41 584.296C1665.15 591.9 1678.31 592.576 1691.95 590.04C1704.08 586.186 1712.17 577.583 1718.05 566.579C1726.29 548.666 1727.2 529.981 1722.07 511.053C1715.82 495.499 1707.96 486.481 1692.97 478.887C1675.55 473.283 1657.13 478.922 1645.05 492.26Z" fill="white"/>
<path d="M928.632 364.006C946.829 364.006 965.026 364.006 983.774 364.006C983.774 408.994 983.774 453.981 983.774 500.331C993.726 488.958 1003.68 477.585 1013.93 465.867C1049.34 428.034 1049.34 428.034 1077.45 426.575C1092.34 426.516 1107.08 428.362 1121.63 431.403C1120.17 433.116 1118.72 434.827 1117.26 436.537C1116.44 437.49 1115.63 438.443 1114.8 439.425C1110.9 443.889 1106.64 447.953 1102.39 452.075C1099.53 455.01 1096.9 457.951 1094.25 461.068C1086.18 470.367 1077.37 478.959 1068.65 487.647C1065.62 490.666 1062.6 493.692 1059.59 496.72C1057.64 498.664 1055.7 500.608 1053.75 502.551C1052.86 503.445 1051.97 504.338 1051.05 505.259C1045.7 510.579 1040.19 515.496 1034.32 520.244C1039.17 527.047 1044.27 533.435 1049.93 539.582C1057.07 547.401 1063.55 555.643 1070.04 564C1074.66 569.94 1079.42 575.756 1084.2 581.567C1095.34 595.123 1106.42 608.736 1117.32 622.487C1118.02 623.364 1118.72 624.24 1119.45 625.143C1122.75 629.337 1125.47 633.374 1127.76 638.188C1118.47 638.722 1109.19 639.109 1099.89 639.366C1096.73 639.473 1093.58 639.619 1090.43 639.805C1065.01 641.272 1065.01 641.272 1057.37 636.199C1052.2 631.255 1048.55 625.504 1045.03 619.32C1043.07 615.995 1040.71 613.22 1038.1 610.377C1036.97 609.092 1036.97 609.092 1035.81 607.78C1035.07 606.947 1034.32 606.114 1033.56 605.255C1026.46 597.189 1019.72 588.936 1013.16 580.432C1006.84 572.305 1000.13 564.548 993.33 556.829C992.528 555.918 991.726 555.007 990.9 554.068C990.189 553.266 989.479 552.464 988.746 551.637C986.838 549.347 986.838 549.347 983.774 544.752C983.774 575.586 983.774 606.419 983.774 638.188C965.577 638.188 947.38 638.188 928.632 638.188C928.632 547.708 928.632 457.228 928.632 364.006Z" fill="white"/>
<path d="M1519.02 450.986C1540.1 469.208 1549.69 491.491 1553.58 518.712C1553.58 527.811 1553.58 536.909 1553.58 546.283C1505.06 546.283 1456.53 546.283 1406.53 546.283C1416.77 571.687 1416.77 571.687 1437.65 587.066C1451.19 591.038 1463.93 590.764 1476.81 584.876C1482.27 581.799 1486.15 578.122 1489.27 572.676C1491.08 569.615 1492.82 567.15 1495.37 564.664C1500.2 563.674 1503.4 563.39 1508.19 563.617C1509.4 563.632 1510.61 563.648 1511.86 563.663C1515.72 563.723 1519.57 563.857 1523.42 563.994C1526.05 564.048 1528.67 564.097 1531.29 564.141C1537.7 564.259 1544.11 564.444 1550.52 564.664C1546.99 588.588 1531.28 608.59 1512.32 622.775C1486.94 639.265 1454.81 642.594 1425.44 636.536C1405.71 631.679 1390.06 621.895 1375.9 607.553C1374.61 606.312 1374.61 606.312 1373.29 605.046C1354.63 585.548 1349.26 556.683 1349.54 530.721C1351.2 500.42 1361.77 473.969 1383.65 452.464C1420.84 421.541 1481.09 421.378 1519.02 450.986ZM1419.34 485.678C1412.9 493.091 1410.84 498.266 1408.07 507.99C1437.89 507.484 1467.71 506.979 1498.44 506.458C1493.67 492.153 1486.63 483.588 1473.74 476.111C1455.77 469.452 1433.29 471.895 1419.34 485.678Z" fill="white"/>
<path d="M1290.03 448.922C1292.13 450.712 1294.2 452.53 1296.25 454.379C1297.17 455.141 1298.09 455.904 1299.04 456.689C1315.74 471.597 1323.32 494.236 1326.88 515.649C1326.88 525.758 1326.88 535.868 1326.88 546.284C1278.86 546.284 1230.84 546.284 1181.37 546.284C1186.85 562.718 1192.81 577.944 1208.98 586.151C1221.11 590.902 1234.19 591.076 1246.37 586.492C1251.97 583.914 1256.68 581.381 1261.02 576.918C1261.52 575.438 1261.52 575.438 1262.04 573.928C1263.69 569.624 1265.04 567.561 1268.68 564.665C1278.04 563.05 1287.26 563.515 1296.73 563.899C1299.35 563.96 1301.97 564.016 1304.59 564.066C1311.01 564.201 1317.41 564.412 1323.82 564.665C1320.06 584.512 1310.56 599.544 1296.25 613.68C1295.29 614.671 1294.33 615.663 1293.35 616.684C1274.46 634.893 1248.36 638.986 1223.19 638.831C1195.53 638.095 1169.89 628.709 1150.16 608.911C1130.32 587.094 1123.01 559.777 1123.16 530.966C1124.99 501.383 1134.82 473.368 1156.86 452.848C1192.83 423.057 1252.17 420.466 1290.03 448.922ZM1193.62 485.014C1187.68 492.453 1184.41 498.857 1181.37 507.99C1211.19 507.485 1241.01 506.979 1271.74 506.458C1268.15 493.874 1262.52 485.124 1251.19 478.133C1232.93 469.752 1208.55 469.9 1193.62 485.014Z" fill="white"/>
<path d="M647.234 429.632C677.149 428.889 706.791 437.036 729.122 457.825C749.949 480.147 758.305 509.354 757.513 539.337C755.206 567.94 745.596 594.884 724.354 615.008C698.553 635.878 668.325 640.193 636.069 638.188C610.773 635.08 587.977 622.883 571.449 603.532C551.77 577.519 545.809 545.84 550.133 513.919C554.381 487.443 567.732 463.855 589.564 447.956C606.955 436.275 626.444 430.619 647.234 429.632ZM616.157 495.736C605.383 511.594 603.755 529.957 606.488 548.485C609.486 563.29 616.314 575.35 628.411 584.577C639.021 590.911 649.945 592.306 662.109 590.704C676.708 586.724 685.521 579.321 693.384 566.507C702.799 547.444 702.419 526.247 695.807 506.458C689.164 492.327 680.444 484.076 666.034 478.312C645.044 474.63 630.391 479.66 616.157 495.736Z" fill="white"/>
<path d="M1955.57 451.698C1968.43 464.201 1975.42 478.322 1979.4 495.736C1979.4 497.252 1979.4 498.769 1979.4 500.331C1962.22 500.331 1945.03 500.331 1927.33 500.331C1924.29 494.771 1921.26 489.211 1918.13 483.482C1908.06 474.874 1897.48 473.683 1884.65 473.903C1876.98 474.523 1871.87 476.311 1866.15 481.663C1863.9 486.307 1863.69 489.098 1864.52 494.204C1871.43 504.94 1885.86 506.586 1897.56 509.219C1905.01 510.724 1912.48 512.149 1919.95 513.539C1943.87 518.225 1964.96 525.691 1979.4 546.283C1986.55 558.921 1985.69 575.874 1982.99 589.758C1978.14 606.105 1967.91 618.639 1953.36 627.465C1936.29 635.541 1919.68 638.775 1900.9 638.666C1898.59 638.655 1898.59 638.655 1896.22 638.643C1869.59 638.227 1841.69 630.323 1821.92 611.574C1809.55 598.242 1803.25 582.889 1803.25 564.664C1820.95 564.664 1838.64 564.664 1856.87 564.664C1859.39 569.719 1861.92 574.774 1864.52 579.981C1874.83 590.671 1884.19 593.982 1898.89 594.437C1908.45 594.228 1916.35 593.269 1924.26 587.64C1928.57 582.949 1928.87 580.907 1928.76 574.525C1927.14 568.587 1925.88 566.978 1921.2 563.132C1916.54 561.038 1916.54 561.038 1911.05 559.494C1910.02 559.181 1908.98 558.867 1907.91 558.543C1897.55 555.511 1887.02 553.23 1876.49 550.878C1830.63 540.532 1830.63 540.532 1817.04 520.148C1808.96 506.57 1809.26 489.512 1811.63 474.321C1815.78 458.445 1826.2 448.638 1839.87 440.36C1875.06 421.285 1925.09 426.045 1955.57 451.698Z" fill="white"/>
<path d="M384.864 530.966C384.864 566.855 384.864 602.743 384.864 639.72C310.559 639.72 236.255 639.72 159.698 639.72C159.698 609.897 159.698 580.074 159.698 549.347C188.378 546.948 217.057 544.551 245.737 542.157C259.053 541.046 272.369 539.933 285.684 538.819C297.288 537.848 308.892 536.879 320.496 535.911C326.642 535.398 332.788 534.885 338.934 534.37C344.716 533.886 350.498 533.403 356.28 532.922C358.405 532.745 360.53 532.567 362.654 532.388C365.55 532.145 368.446 531.904 371.343 531.664C373.776 531.461 373.776 531.461 376.259 531.253C379.121 531.048 381.994 530.966 384.864 530.966Z" fill="white"/>
<path d="M139.786 425.276C214.596 425.276 289.406 425.276 366.483 425.276C366.483 453.582 366.483 481.889 366.483 511.053C351.206 512.851 336.03 514.617 320.717 515.871C318.93 516.02 317.143 516.17 315.302 516.325C309.5 516.81 303.698 517.289 297.896 517.767C294.848 518.02 291.801 518.273 288.754 518.526C279.214 519.319 269.675 520.107 260.134 520.892C250.341 521.698 240.548 522.512 230.755 523.33C222.287 524.037 213.817 524.74 205.348 525.438C200.315 525.853 195.283 526.27 190.251 526.691C184.649 527.159 179.046 527.619 173.442 528.077C171.805 528.215 170.168 528.354 168.481 528.496C166.167 528.683 166.167 528.683 163.806 528.873C162.487 528.982 161.168 529.091 159.81 529.203C153.142 529.53 146.461 529.434 139.786 529.434C139.786 495.062 139.786 460.69 139.786 425.276Z" fill="white"/>
<path d="M517.264 363.911C526.789 363.958 526.789 363.958 536.506 364.006C536.506 378.16 536.506 392.313 536.506 406.895C528.504 407.344 528.504 407.344 520.501 407.793C515.495 408.376 511.861 409.191 507.403 411.49C505.436 415.425 505.367 418.79 505.01 423.17C504.789 425.887 504.568 428.604 504.34 431.403C514.955 431.403 525.57 431.403 536.506 431.403C536.506 445.556 536.506 459.709 536.506 474.292C525.892 474.292 515.277 474.292 504.34 474.292C504.34 528.377 504.34 582.463 504.34 638.188C486.143 638.188 467.946 638.188 449.197 638.188C449.197 584.102 449.197 530.016 449.197 474.292C439.593 474.292 429.989 474.292 420.094 474.292C420.094 460.138 420.094 445.985 420.094 431.403C429.698 431.403 439.302 431.403 449.197 431.403C449.071 426.664 448.945 421.925 448.814 417.043C448.675 402.487 450.591 392.619 458.675 380.377C475.304 364.487 495.533 363.758 517.264 363.911Z" fill="white"/>
<path d="M904.124 429.871C904.124 447.563 904.124 465.255 904.124 483.482C891.234 484.24 891.234 484.24 878.084 485.014C864.897 489.027 857.746 493.587 850.992 505.788C843.489 522.056 843.89 539.827 843.752 557.413C843.723 559.756 843.693 562.099 843.662 564.443C843.584 570.546 843.523 576.65 843.466 582.754C843.393 590.112 843.299 597.469 843.209 604.827C843.074 615.947 842.967 627.067 842.854 638.188C824.657 638.188 806.46 638.188 787.712 638.188C787.712 569.949 787.712 501.71 787.712 431.403C805.909 431.403 824.106 431.403 842.854 431.403C843.613 442.018 843.613 442.018 844.386 452.847C846.282 450.731 848.177 448.614 850.13 446.433C865.669 430.845 882.973 429.871 904.124 429.871Z" fill="white"/>
<path d="M337.38 298.142C342.694 304.712 344.976 311.683 347.719 319.586C348.223 320.969 348.726 322.351 349.245 323.775C349.947 325.777 349.947 325.777 350.663 327.82C351.091 329.032 351.519 330.244 351.96 331.493C352.818 335.461 352.711 337.284 351.166 341.031C348.114 342.803 348.114 342.803 344.028 344.242C342.488 344.797 340.949 345.353 339.364 345.925C337.667 346.51 335.969 347.094 334.221 347.696C331.571 348.642 331.571 348.642 328.867 349.607C325.038 350.971 321.206 352.326 317.368 353.666C311.307 355.782 305.259 357.931 299.212 360.087C293.015 362.295 286.818 364.501 280.617 366.696C262.542 373.096 244.531 379.663 226.541 386.299C221.867 388.022 217.191 389.741 212.515 391.459C199.541 396.227 186.576 401.015 173.639 405.884C171.658 406.628 169.676 407.372 167.695 408.115C164.236 409.416 160.781 410.725 157.329 412.045C155.874 412.593 154.419 413.141 152.919 413.705C151.085 414.404 151.085 414.404 149.214 415.117C145.913 416.086 145.913 416.086 139.786 416.086C137.476 410.059 135.183 404.027 132.893 397.992C132.235 396.277 131.578 394.563 130.9 392.796C129.967 390.33 129.967 390.33 129.016 387.815C128.438 386.299 127.861 384.783 127.265 383.221C126 379.324 126 379.324 126 374.729C127.592 374.159 127.592 374.159 129.217 373.577C142.921 368.668 156.624 363.755 170.325 358.837C171.43 358.44 172.536 358.044 173.675 357.635C208.825 345.017 243.916 332.253 278.957 319.337C280.383 318.811 281.809 318.285 283.279 317.744C284.657 317.235 286.035 316.727 287.455 316.204C304.062 310.087 320.711 304.087 337.38 298.142Z" fill="white"/>
</g>
<defs>
<clipPath id="clip0_2015_138">
<rect width="1858" height="405.911" fill="white" transform="translate(126 298.142)"/>
</clipPath>
</defs>
</svg>
