<svg width="967" height="1000" viewBox="0 0 967 1000" fill="none" xmlns="http://www.w3.org/2000/svg">
<path d="M640.753 589.85C639.104 583.389 637.256 576.925 631.306 573.18C626.712 570.998 619.841 570.18 615.246 572.633L614.115 573.319C613.575 573.639 613.294 573.806 613.023 573.988C612.729 574.185 612.446 574.4 611.858 574.847C604.408 583.393 603.104 596.097 602.98 607.059L602.967 608.742C602.938 611.57 602.913 614.397 602.902 617.225L602.896 618.925C602.878 623.289 602.86 627.632 603.374 631.975C603.474 632.788 603.561 633.602 603.637 634.418C603.892 637.353 604.196 640.279 604.634 643.193C605.778 649.542 608.076 658.056 613.601 662.025L614.636 662.642C616.802 663.965 618.749 664.76 621.283 665.057C626.528 665.209 630.292 664.148 634.15 660.525C642.513 650.791 642.646 634.139 642.593 622.056C642.576 619.973 642.558 617.889 642.553 615.806C642.551 614.422 642.547 613.037 642.542 611.653L642.532 609.662C642.507 602.997 642.176 596.38 640.753 589.85Z" fill="black"/>
<path fill-rule="evenodd" clip-rule="evenodd" d="M768 222H199V791H768V222ZM524.619 303.127H666.869V445.377H524.619V303.127ZM640.753 555.954L642.528 556.688C652.538 561.279 658.821 569.641 662.706 579.72C664.23 584.078 665.364 588.502 666.111 593.061C666.261 593.973 666.426 594.883 666.599 595.792C667.661 601.981 667.633 608.201 667.605 614.456C667.602 615.005 667.6 615.555 667.598 616.105L667.596 618.057C667.574 627.253 667.481 636.352 665.758 645.416L665.514 646.712C663.335 657.717 658.61 669.709 649.146 676.324C645.264 678.898 641.42 680.477 636.863 681.534L635.483 681.91C630.788 683.009 625.857 682.86 621.026 682.714C620.189 682.689 619.355 682.664 618.526 682.646L616.319 682.615C608.705 682.318 601.842 680.01 595.744 675.422L594.559 674.582C583.991 666.355 580.674 650.725 579.074 638.192L578.787 636.107C578.017 630.313 577.784 624.619 577.824 618.779L577.828 617.456C577.851 611.147 578.105 604.982 579.074 598.74L579.298 596.793C580.811 584.12 584.898 570.949 594.439 561.977C606.346 552.647 626.716 550.084 640.753 555.954ZM369.589 555.398L370.716 555.714C375.032 556.932 378.879 558.377 382.925 560.399V580.403C379.634 579.506 376.386 578.614 373.131 577.625C362.356 574.583 349.409 572.2 339.16 577.927C331.313 583.052 327.718 590.754 325.594 599.589C324.3 606.162 323.814 612.648 323.851 619.335L323.854 620.537C323.913 632.75 324.567 648.179 333.421 657.667C337.851 661.799 341.6 662.347 347.501 662.26L349.3 662.265C352.762 662.242 356.006 661.932 359.393 661.212C359.882 661.123 360.188 661.067 360.496 661.033C361.01 660.975 361.531 660.975 362.921 660.975V623.189H345.695L344.181 607.797C344.112 606.967 344.074 606.513 344.053 606.057C344.028 605.508 344.028 604.957 344.028 603.741H387.926V675.978C384.675 677.061 381.556 678.037 378.236 678.791L377.08 679.061C375.881 679.338 374.681 679.605 373.478 679.867L372.196 680.15C354.462 683.894 333.469 685.837 317.523 675.741C308.142 669.322 302.755 657.832 300.613 646.87C300.425 645.807 300.241 644.744 300.061 643.68L299.777 642.112C295.794 619.029 297.011 592.05 310.306 572.138C317.436 562.278 328.294 556.465 340.139 554.287C349.682 552.974 360.29 552.696 369.589 555.398ZM559.626 555.954L564.627 557.621V578.181L555.736 575.958C553.783 575.597 551.864 575.26 549.902 574.986L548.53 574.775C542.745 573.931 537.552 574.148 532.259 576.896C524.377 583.524 521.837 593.021 520.833 602.977C520.491 607.333 520.504 611.715 520.517 616.085V616.086C520.518 616.578 520.52 617.071 520.521 617.563L520.522 619.395C520.383 629.726 520.315 634.823 521.451 639.636C522.557 644.323 524.807 648.741 529.247 657.46C534.593 661.695 539.789 662.042 546.429 661.339C550.87 660.686 555.248 659.734 559.626 658.752L564.627 657.641V677.645C561.53 679.021 558.916 680.181 555.736 681.083L553.861 681.628C541.233 684.526 525.963 683.668 514.756 676.95C504.63 670.101 499.954 659.202 497.391 647.639C496.949 645.33 496.571 643.015 496.211 640.693L495.926 638.946C492.395 616.62 492.784 588.526 506.56 569.533C513.101 561.362 521.78 555.322 532.379 553.975C541.511 553.051 550.887 552.948 559.626 555.954ZM402.373 555.398H488.501C488.076 559.643 487.617 563.875 487.112 568.109L486.892 569.985L486.485 573.407C486.405 573.967 486.356 574.309 486.293 574.648C486.194 575.182 486.062 575.71 485.722 577.069H457.939V680.979H432.934V577.069H402.373V555.398Z" fill="black"/>
</svg>
