<svg width="2109" height="1000" viewBox="0 0 2109 1000" fill="none" xmlns="http://www.w3.org/2000/svg">
<path d="M1351.14 371.208H1191.13C1191.13 371.208 1162.11 371.208 1151.56 392.308V371.208H1080.06V668.961H1151.56V477.297C1151.56 453.852 1170.61 434.803 1194.06 434.803H1329.45C1352.9 434.803 1371.95 453.852 1371.95 477.297V668.961H1441.99V455.903C1442.28 455.903 1437.01 371.208 1351.14 371.208Z" fill="black"/>
<path d="M167.161 285.341H95.6533V668.962H167.161V285.341Z" fill="black"/>
<path d="M1007.38 370.914H935.576V669.254H1007.38V370.914Z" fill="black"/>
<path d="M1586.18 371.208H1514.67V668.961H1586.18V371.208Z" fill="black"/>
<path d="M510.633 371.208H350.62C350.62 371.208 321.606 371.208 311.056 392.308V371.208H239.548V668.961H311.056V477.297C311.056 453.852 330.105 434.803 353.55 434.803H489.239C512.684 434.803 531.734 453.852 531.734 477.297V668.961H601.776V455.903C602.069 455.903 596.794 371.208 510.633 371.208Z" fill="black"/>
<path d="M1007.38 252.81H935.576V314.647H1007.38V252.81Z" fill="black"/>
<path d="M1586.18 252.81H1514.67V314.647H1586.18V252.81Z" fill="black"/>
<path d="M2016.69 371.208H1927.31L1824.44 475.245L1721.57 371.208H1632.48L1779.6 520.377L1632.48 668.961H1722.75L1824.44 565.802L1926.43 668.961H2016.69L1869.28 520.377L2016.69 371.208Z" fill="black"/>
<path d="M776.442 321.973C780.838 317.284 786.7 314.647 793.733 314.647H873.74V252.81H810.438C809.559 253.103 800.181 252.517 787.579 253.103C786.993 253.103 786.7 253.103 786.407 253.103C760.031 253.103 735.12 262.774 719.295 279.479C705.814 293.546 699.073 313.181 699.073 328.714C699.073 359.192 699.073 371.208 699.073 371.208H606.172C606.172 371.208 631.668 380.586 649.252 434.803H699.073V668.962H769.702V434.803H873.447V371.208H820.402H769.702V345.125C769.702 343.367 769.702 341.609 769.995 339.85C769.995 339.264 769.702 338.678 769.702 338.385C769.702 333.403 771.46 328.714 774.098 324.904C774.977 323.732 775.563 322.852 776.442 321.973Z" fill="black"/>
</svg>
