<svg width="1287" height="461" viewBox="0 0 1287 461" fill="none" xmlns="http://www.w3.org/2000/svg">
<path fill-rule="evenodd" clip-rule="evenodd" d="M453.513 48.8453C480.129 69.9452 502.469 93.6609 518.746 123.645L523.308 131.75C541.248 165.321 547.09 192.98 547.09 231.35H470.563L467.197 212.395C456.614 157.557 428.992 102.869 382.698 69.7928C338.934 42.6737 289.41 28.0413 238.165 38.995C204.485 46.9887 176.714 61.6236 150.283 83.9645L145.002 88.0056C122.912 105.393 109.303 130.265 96.4309 154.823C95.0139 150.572 94.3053 148.446 94.3993 146.356C94.4933 144.266 95.3901 142.212 97.1838 138.105C99.0145 134.795 100.893 131.512 102.808 128.251L105.899 122.951C138.854 68.3275 190.176 26.5531 252.319 10.2718L258.009 8.76747C324.349 -7.53935 398.221 10.1119 453.513 48.8453ZM0.0627536 231.35H79.4241L80.8412 247.647C89.0993 304.307 118.255 358.446 164.454 392.907C211.128 424.357 258.693 433.311 313.788 423.907C365.858 412.078 410.035 377.41 439.384 333.386L442.219 339.054C415.521 391.219 367.545 427.999 313.09 447.545C266.259 462.482 208.632 466.104 161.62 449.593L152.973 446.571C119.797 433.798 93.6279 414.472 68.0867 390.072L62.7059 385.334C30.7918 356.163 13.4413 312.138 2.89709 271.03L1.25849 264.731C-0.110357 255.719 -0.0393592 246.553 0.0314104 237.415C0.0470876 235.391 0.0627536 233.369 0.0627536 231.35ZM353.215 105.831C359.576 110.558 365.494 115.488 371.361 120.811L378.978 127.72C413.372 165.831 422.285 202.037 420.098 252.685C417.347 287.52 397.34 318.27 372.535 341.789C361.555 351.045 350.163 358.127 337.349 364.564L330.717 368.117C312.859 376.214 295.541 376.982 276.234 377.141L268.724 377.228C230.933 376.725 198.236 361.798 170.832 336.043C143.583 307.353 127.723 272.535 126.546 232.944C127.755 188.585 145.31 152.561 175.792 120.811C184.688 112.951 193.792 106.776 204.136 100.971L211.731 96.6195C254.703 76.1592 313.727 79.763 353.215 105.831ZM249.471 164.703C245.385 158.588 241.98 153.987 235.314 149.154C217.285 145.798 203.017 146.636 192.799 163.325C191.233 174.133 190.68 184.598 195.633 194.503C196.08 194.939 196.515 195.366 196.941 195.783L196.95 195.793L196.95 195.793C201.567 200.317 205.056 203.736 209.396 206.146L209.216 206.14L204.134 205.841C202.956 208.197 202.268 209.574 201.838 211.027C201.235 213.071 201.143 215.265 200.923 220.544L200.945 231.35C200.942 232.874 200.913 234.355 200.884 235.803L200.884 235.805V235.805C200.737 243.248 200.608 249.806 204.134 256.859C216.608 278.592 230.205 297.502 255.152 305.043C279.699 308.433 300.113 305.589 320.342 290.871C336.084 276.646 347.703 261.139 349.371 239.421C349.953 210.708 344.107 197.321 325.302 175.903C310.206 162.523 298.818 157.133 278.202 156.753C276.28 156.759 274.123 156.63 271.858 156.495C263.858 156.016 254.517 155.458 249.483 160.492C249.463 161.895 249.46 163.299 249.471 164.703Z" fill="white"/>
<path fill-rule="evenodd" clip-rule="evenodd" d="M915.552 27.2781C910.44 15.0089 903.774 10.6359 892.268 4.53701C858.003 -7.47742 823.875 4.728 807.493 36.8993C801.301 55.3378 802.383 74.9616 810.682 92.4677C820.549 106.688 830.645 115.932 847.528 120.811C867.652 122.927 887.91 123.276 904.569 110.537C919.887 91.1335 921.221 79.1673 921.221 52.7871H864.534V75.4617H892.877C890.151 82.184 889.103 84.7664 887.335 86.6844C886.232 87.8809 884.849 88.8189 882.603 90.342C871.404 93.8785 858.226 94.9823 847.528 89.6334C839.742 77.6552 837.304 67.3671 837.874 53.3296C840.007 41.8197 844.057 37.5384 853.197 30.1124C861.588 28.3003 867.099 28.9805 875.871 30.1124L875.872 30.1127L875.872 30.113C880.906 33.4688 882.96 34.8379 885.158 35.911C886.672 36.6505 888.255 37.2495 890.929 38.2611C894.398 38.4225 896.629 38.5263 898.741 38.0736C902.549 37.2575 905.968 34.6331 915.552 27.2781ZM657.601 6.83338C653.007 4.60302 647.33 4.60302 623.616 4.60302V117.976H651.96V49.9523H657.628C657.628 52.3544 657.628 53.8445 657.997 55.237C658.599 57.5119 660.184 59.5266 664.36 64.8326C669.095 70.807 673.678 76.74 677.673 83.2391L680.879 88.6144C683.169 92.2593 685.457 95.9055 687.743 99.5532C689.728 103.135 691.83 106.655 694.054 110.093C696.565 112.312 698.369 113.906 700.424 115.051C705.671 117.976 712.548 117.976 736.99 117.976V4.60302H705.812L702.978 69.7927L697.309 61.2897C692.693 54.262 688.02 47.2955 683.22 40.392L677.646 32.4149L672.37 24.3382L666.939 16.7043L662.146 9.67174C660.386 8.45831 659.047 7.53538 657.601 6.83338ZM1204.65 154.823H1170.64V288.036H1204.65V234.184H1252.84V288.036H1286.85V154.823H1252.84V205.841H1204.65V154.823ZM623.616 322.048H663.297L666.818 334.471C668.36 339.896 669.903 345.321 671.446 350.746L673.76 358.917C677.553 372.242 681.43 385.48 685.972 398.575C691.567 385.927 694.904 372.825 698.299 359.495L698.303 359.477L698.66 358.074L698.903 357.123C700.144 352.303 701.388 347.483 702.634 342.664L704.279 336.235C705.567 331.458 707.082 326.742 708.646 322.048H739.824L762.498 401.41L764.275 395.04C766.928 385.53 769.585 376.021 772.242 366.512L775.037 356.486L777.722 346.882L780.196 338.021C781.734 332.661 783.41 327.339 785.173 322.048H824.854C819.049 339.585 813.086 357.056 806.962 374.483L804.381 381.833C802.626 386.829 800.87 391.826 799.114 396.822C796.576 404.056 794.056 411.296 791.539 418.537C790.008 422.925 788.476 427.313 786.945 431.701L784.793 437.924C781.009 448.726 780.108 451.301 778.499 453.309C777.995 453.937 777.422 454.51 776.67 455.262L776.67 455.262H745.493L725.652 384.404C720.343 392.368 718.287 397.597 715.81 406.657L713.579 414.673L711.303 423.021C709.802 428.493 708.293 433.962 706.775 439.429L704.77 446.777C703.71 450.12 703.276 451.485 702.513 452.63C701.985 453.42 701.301 454.104 700.143 455.262C694.892 455.467 689.633 455.499 684.377 455.439L675.686 455.361L668.966 455.262C641.06 377.772 641.06 377.771 630.348 345.609L630.348 345.609L628.226 339.249C623.616 325.271 623.616 325.271 623.616 322.048ZM1167.81 322.048H1204.65V373.066H1252.84V322.048H1286.85V455.262H1252.84V401.41H1204.65V458.096H1167.81V322.048ZM623.616 154.823H657.628V205.841H705.812V157.657V154.823H739.824V288.036H705.812V282.368V234.184H657.628V288.036H623.616V154.823ZM1112.36 318.505L1123.51 318.461C1127.68 318.766 1130.16 318.948 1132.58 319.433C1136.13 320.145 1139.54 321.512 1147.97 324.883V364.563L1139.64 360.312C1127.35 355.099 1115.81 353.808 1102.62 356.06C1092.78 361.92 1086.24 367.708 1082.78 378.735C1081.41 393.561 1083.35 402.951 1091.28 415.581C1100.63 421.814 1103.93 422.09 1114.84 422.136L1122.78 422.28H1122.78C1126.55 421.977 1128.91 421.787 1131.18 421.215C1134.98 420.254 1138.51 418.213 1147.97 412.747V452.428C1134.4 457.853 1126.99 458.939 1112.72 458.982L1101.74 459.126C1084.07 457.386 1069.21 448.542 1057.27 435.422C1044.93 415.762 1040.24 396.191 1043.1 373.066C1050.51 349.76 1064.9 334.782 1084.99 321.561C1093.5 318.387 1101.31 318.437 1110.17 318.493L1110.2 318.493C1110.64 318.496 1111.09 318.499 1111.53 318.501C1111.81 318.503 1112.08 318.504 1112.36 318.505ZM765.333 154.823H839.025V183.166H799.345V205.841H839.025V234.184H799.345V259.693H839.025V285.202H765.333V154.823ZM1040.26 322.048H949.564V353.226H977.908V458.096H1011.92V353.226H1040.26V322.048ZM997.748 151.988H1034.59V256.859H1071.44V288.036H997.748V151.988ZM1156.47 154.823H1068.61V183.166H1094.12V288.036H1128.13V183.166H1156.47V154.823ZM941.061 4.60302H1003.42V27.2777H969.405V47.118H1003.42V72.627H969.405V92.4673H1006.25V117.976H941.061V4.60302ZM1156.47 4.60302H1128.13V117.976H1156.47V4.60302ZM759.664 4.60302H788.007V117.976H759.664V4.60302ZM861.7 322.048H909.884L909.886 322.054C926.912 366.775 932.334 381.018 937.367 395.397C939.719 402.117 941.987 408.866 945.313 418.77L947.396 424.902C951.102 436.117 953.268 446.307 955.233 458.096H918.387L912.718 432.587H858.866L856.031 449.593L853.197 455.262H816.351C820.436 434.375 826.889 414.982 834.243 395.032L837.685 385.583C845.46 364.313 853.427 343.13 861.7 322.048ZM884.375 353.226C892.408 362.571 895.614 371.583 899.078 383.341L902.034 393.194C903.339 398.11 903.863 400.084 904.074 402.091C904.215 403.439 904.215 404.801 904.215 407.078H867.369C872.714 389.006 878.299 371.065 884.375 353.226ZM892.878 154.823H941.061C951.414 182.095 961.426 209.437 970.966 237.004L973.335 243.838L975.62 250.437C977.883 256.789 980.299 263.064 982.746 269.347C984.792 275.035 985.696 277.547 986.095 280.136C986.41 282.184 986.41 284.281 986.41 288.036H949.564C946.326 279.94 944.937 276.469 944.342 272.867C943.896 270.164 943.896 267.387 943.896 262.527L892.878 265.361L884.375 288.036H847.528L851.071 277.585C855.783 263.493 860.093 249.291 864.357 235.058C867.184 226.254 870.321 217.657 873.609 209.019C877.168 199.56 880.512 190.025 883.857 180.489L884.304 179.214L884.906 177.497L892.878 154.823ZM915.552 183.166C917.75 184.265 919.096 184.938 920.133 185.932C921.77 187.503 922.637 189.877 924.874 195.998C926.159 200.158 927.42 204.325 928.661 208.498L930.632 214.869C934.017 225.981 934.995 229.192 935.278 232.464C935.392 233.794 935.392 235.134 935.392 237.018H901.38C905.214 218.735 909.97 200.991 915.552 183.166ZM1247.17 4.60302H1204.65C1200.66 15.7404 1196.67 26.8811 1192.7 38.0282C1191.08 42.5939 1189.45 47.1591 1187.83 51.7238C1185.42 58.4202 1183.02 65.1167 1180.63 71.8204L1178.36 78.2292C1173.61 91.3747 1169.65 104.06 1167.81 117.976H1198.99L1204.65 100.97L1250 98.136C1250 101.59 1250 103.641 1250.38 105.619C1250.94 108.51 1252.31 111.245 1255.67 117.976H1286.85C1275.24 79.5058 1261.83 42.0111 1247.17 4.60302ZM1229.25 33.0154C1228.23 31.9779 1226.85 31.2896 1224.49 30.112C1220.02 45.118 1216.45 60.1533 1213.16 75.4613H1241.5C1241.5 74.7945 1241.5 74.2587 1241.47 73.7245C1241.36 71.5416 1240.76 69.3841 1237.75 58.411L1236.19 52.7867C1235.21 49.1197 1234.22 45.4583 1233.2 41.8036C1231.42 36.6262 1230.69 34.4752 1229.25 33.0154ZM1023.26 4.60275L1053.37 3.89417L1062.77 3.5814C1079.84 3.38716 1089.75 4.36038 1102.62 15.9401C1110.67 28.0105 1109.73 38.6237 1108.29 52.7864L1108.29 52.7866C1106.46 57.4047 1105.62 59.5146 1104.42 61.3868C1103.41 62.9616 1102.13 64.3682 1099.78 66.9579L1099.78 66.9581C1095.11 68.9698 1090.39 70.8755 1085.61 72.6267L1091.81 81.8272C1094.47 85.7869 1097.13 89.7469 1099.78 93.7071L1103.88 99.7798L1107.76 105.565L1111.35 110.917C1112.99 113.568 1113.59 114.556 1113.82 115.624C1113.96 116.258 1113.96 116.92 1113.96 117.976C1102.27 119.508 1091.57 120.2 1079.94 117.976C1071.9 110.572 1067.63 102.237 1062.94 92.467L1057.27 83.9641L1054.43 117.976H1023.26V4.60275ZM1054.43 30.1119C1061.05 29.9917 1067.66 29.9959 1074.27 30.1119L1074.28 30.1123C1075.16 30.9957 1075.77 31.6038 1076.2 32.3175C1077.16 33.8932 1077.27 35.9837 1077.64 42.6889V42.6893V42.6898C1077.35 48.2557 1077.22 50.7534 1076.21 52.8238C1075.39 54.5092 1073.98 55.9115 1071.44 58.4552C1066.83 58.6397 1064.62 58.7281 1062.41 58.7205C1060.37 58.7134 1058.34 58.625 1054.43 58.4552L1054.43 58.4552V30.1119Z" fill="white"/>
</svg>
