<svg width="1288" height="461" viewBox="0 0 1288 461" fill="none" xmlns="http://www.w3.org/2000/svg">
<path fill-rule="evenodd" clip-rule="evenodd" d="M454.098 48.8451C480.715 69.9449 503.055 93.6606 519.332 123.645L523.894 131.749C541.834 165.32 547.676 192.979 547.676 231.349H471.149L467.783 212.395C457.2 157.557 429.578 102.869 383.284 69.7926C339.52 42.6734 289.996 28.0411 238.751 38.9948C205.071 46.9885 177.3 61.6233 150.869 83.9642L145.588 88.0054C123.498 105.393 109.889 130.265 97.0169 154.823C95.5998 150.571 94.8912 148.446 94.9852 146.356C95.0792 144.266 95.976 142.212 97.7698 138.104C99.6004 134.795 101.479 131.512 103.394 128.251L106.485 122.951C139.44 68.3273 190.762 26.5529 252.905 10.2716L258.595 8.76723C324.935 -7.5396 398.807 10.1117 454.098 48.8451ZM0.648691 231.349H80.01L81.4272 247.647C89.6852 304.306 118.841 358.446 165.04 392.906C211.714 424.356 259.279 433.31 314.374 423.907C366.444 412.078 410.621 377.41 439.97 333.385L442.805 339.054C416.107 391.219 368.131 427.999 313.676 447.545C266.845 462.482 209.218 466.103 162.206 449.593L153.559 446.57C120.383 433.797 94.2139 414.472 68.6727 390.072L63.2919 385.333C31.3777 356.163 14.0272 312.138 3.48302 271.03L1.84442 264.73C0.475581 255.719 0.546578 246.552 0.617348 237.415C0.633025 235.391 0.648691 233.369 0.648691 231.349ZM353.801 105.831C360.162 110.558 366.08 115.487 371.947 120.811L379.564 127.719C413.958 165.831 422.871 202.037 420.684 252.685C417.933 287.52 397.925 318.27 373.121 341.789C362.141 351.045 350.749 358.127 337.935 364.563L331.303 368.117C313.445 376.214 296.127 376.982 276.82 377.141L269.31 377.228C231.519 376.725 198.822 361.798 171.418 336.043C144.169 307.353 128.309 272.535 127.132 232.944C128.341 188.585 145.896 152.561 176.378 120.811C185.274 112.951 194.378 106.775 204.722 100.97L212.317 96.6192C255.289 76.159 314.313 79.7628 353.801 105.831ZM250.056 164.702C245.971 158.588 242.566 153.987 235.899 149.153C217.871 145.798 203.603 146.635 193.384 163.325C191.819 174.133 191.266 184.598 196.219 194.503C196.668 194.941 197.105 195.37 197.533 195.789L197.536 195.792C202.153 200.317 205.641 203.736 209.982 206.146L209.802 206.14L204.72 205.841C203.542 208.197 202.853 209.574 202.424 211.027C201.821 213.07 201.729 215.265 201.509 220.544L201.531 231.35C201.528 232.874 201.499 234.355 201.47 235.803L201.47 235.805V235.805C201.323 243.247 201.194 249.806 204.72 256.859C217.194 278.592 230.791 297.502 255.738 305.042C280.285 308.432 300.699 305.589 320.928 290.871C336.67 276.646 348.289 261.139 349.957 239.421C350.539 210.708 344.693 197.32 325.888 175.903C310.792 162.522 299.404 157.133 278.788 156.753C276.866 156.759 274.709 156.63 272.444 156.494C264.444 156.016 255.103 155.458 250.069 160.491C250.049 161.895 250.046 163.299 250.056 164.702Z" fill="black"/>
<path fill-rule="evenodd" clip-rule="evenodd" d="M916.138 27.2781C911.026 15.0089 904.36 10.6359 892.854 4.53701C858.589 -7.47742 824.461 4.728 808.079 36.8993C801.887 55.3378 802.969 74.9616 811.268 92.4677C821.135 106.688 831.231 115.932 848.114 120.811C868.238 122.927 888.496 123.276 905.155 110.537C920.473 91.1335 921.807 79.1673 921.807 52.7871H865.12V75.4617H893.463C890.737 82.184 889.689 84.7664 887.921 86.6844C886.818 87.8809 885.435 88.8189 883.189 90.342C871.99 93.8785 858.812 94.9823 848.114 89.6334C840.328 77.6552 837.89 67.3671 838.46 53.3296C840.593 41.8197 844.643 37.5384 853.783 30.1124C862.174 28.3003 867.685 28.9805 876.457 30.1124L876.458 30.1127L876.458 30.113C881.492 33.4688 883.546 34.8379 885.744 35.911C887.258 36.6505 888.841 37.2495 891.515 38.2611C894.984 38.4225 897.215 38.5263 899.327 38.0736C903.135 37.2575 906.554 34.6331 916.138 27.2781ZM658.187 6.83338C653.593 4.60302 647.916 4.60302 624.202 4.60302V117.976H652.545V49.9523H658.214C658.214 52.3544 658.214 53.8445 658.583 55.237C659.185 57.5119 660.77 59.5266 664.946 64.8326C669.681 70.807 674.264 76.74 678.259 83.2391L681.465 88.6144C683.755 92.2593 686.043 95.9055 688.329 99.5532C690.314 103.135 692.416 106.655 694.64 110.093C697.151 112.312 698.955 113.906 701.01 115.051C706.257 117.976 713.134 117.976 737.575 117.976V4.60302H706.398L703.563 69.7927L697.895 61.2897C693.279 54.262 688.606 47.2955 683.806 40.392L678.232 32.4149L672.956 24.3382L667.525 16.7043L662.732 9.67174C660.972 8.45831 659.633 7.53538 658.187 6.83338ZM1205.24 154.823H1171.23V288.036H1205.24V234.184H1253.42V288.036H1287.44V154.823H1253.42V205.841H1205.24V154.823ZM624.202 322.048H663.883L667.404 334.471C668.946 339.896 670.489 345.321 672.032 350.746L674.345 358.917C678.139 372.242 682.016 385.48 686.557 398.575C692.153 385.927 695.49 372.825 698.885 359.495L698.889 359.477C699.089 358.693 699.289 357.908 699.489 357.123C700.73 352.303 701.974 347.483 703.22 342.664L704.865 336.235C706.153 331.458 707.667 326.742 709.232 322.048H740.41L763.084 401.41L764.861 395.04C767.514 385.53 770.171 376.021 772.827 366.512L775.623 356.486L778.308 346.882L780.782 338.021C782.32 332.661 783.996 327.339 785.759 322.048H825.44C819.635 339.585 813.672 357.056 807.548 374.483L804.967 381.833C803.212 386.829 801.456 391.826 799.7 396.822C797.162 404.056 794.642 411.296 792.125 418.537C790.594 422.925 789.062 427.313 787.531 431.701L785.379 437.924C781.595 448.726 780.694 451.301 779.084 453.309C778.581 453.937 778.008 454.51 777.256 455.262L777.256 455.262H746.078L726.238 384.404C720.929 392.368 718.873 397.597 716.395 406.657L714.165 414.673L711.889 423.021C710.388 428.493 708.879 433.962 707.361 439.429L705.356 446.777C704.296 450.12 703.862 451.485 703.099 452.63C702.571 453.42 701.887 454.104 700.729 455.262C695.477 455.467 690.218 455.499 684.963 455.439L676.272 455.361L669.551 455.262C641.646 377.772 641.646 377.771 630.934 345.609L630.934 345.609L628.812 339.249C624.202 325.271 624.202 325.271 624.202 322.048ZM1168.39 322.048H1205.24V373.066H1253.42V322.048H1287.44V455.262H1253.42V401.41H1205.24V458.096H1168.39V322.048ZM624.202 154.823H658.214V205.841H706.398V157.657V154.823H740.41V288.036H706.398V282.368V234.184H658.214V288.036H624.202V154.823ZM1112.95 318.505L1124.1 318.461C1128.27 318.766 1130.75 318.948 1133.16 319.433C1136.71 320.145 1140.13 321.512 1148.55 324.882L1148.55 324.882L1148.55 324.883V364.563L1140.23 360.312C1127.93 355.099 1116.4 353.808 1103.2 356.06C1093.37 361.92 1086.83 367.708 1083.36 378.735C1081.99 393.561 1083.94 402.951 1091.87 415.581C1101.22 421.814 1104.51 422.09 1115.43 422.136L1123.37 422.28H1123.37C1127.14 421.977 1129.5 421.787 1131.76 421.215C1135.57 420.254 1139.1 418.213 1148.55 412.747V452.428C1134.99 457.853 1127.57 458.939 1113.3 458.982L1102.33 459.126C1084.65 457.386 1069.8 448.542 1057.86 435.422C1045.52 415.762 1040.83 396.191 1043.68 373.066C1051.1 349.76 1065.48 334.782 1085.58 321.561C1094.08 318.387 1101.89 318.437 1110.75 318.493C1111.2 318.496 1111.66 318.499 1112.12 318.501C1112.39 318.503 1112.67 318.504 1112.95 318.505ZM765.919 154.823H839.611V183.166H799.931V205.841H839.611V234.184H799.931V259.693H839.611V285.202H765.919V154.823ZM1040.85 322.048H950.15V353.226H978.494V458.096H1012.51V353.226H1040.85V322.048ZM998.334 151.988H1035.18V256.859H1072.03V288.036H998.334V151.988ZM1157.06 154.823H1069.19V183.166H1094.7V288.036H1128.71V183.166H1157.06V154.823ZM941.647 4.60302H1004V27.2777H969.991V47.118H1004V72.627H969.991V92.4673H1006.84V117.976H941.647V4.60302ZM1157.06 4.60302H1128.71V117.976H1157.06V4.60302ZM760.25 4.60302H788.593V117.976H760.25V4.60302ZM862.286 322.048H910.47L910.472 322.054C927.498 366.775 932.92 381.018 937.953 395.397C940.305 402.117 942.572 408.866 945.899 418.77L947.982 424.902C951.688 436.117 953.854 446.307 955.819 458.096H918.973L913.304 432.587H859.452L856.617 449.593L853.783 455.262H816.937C821.022 434.375 827.475 414.982 834.828 395.032L838.271 385.583C846.046 364.313 854.013 343.13 862.286 322.048ZM884.961 353.226C892.994 362.571 896.2 371.583 899.664 383.341L902.62 393.194L902.62 393.195C903.925 398.11 904.449 400.084 904.66 402.091C904.801 403.439 904.801 404.801 904.801 407.078H867.955C873.3 389.006 878.885 371.065 884.961 353.226ZM893.463 154.823H941.647C952 182.095 962.012 209.437 971.552 237.004L973.921 243.838L976.206 250.437C978.469 256.789 980.885 263.064 983.332 269.347C985.378 275.035 986.282 277.547 986.681 280.136C986.996 282.184 986.996 284.281 986.996 288.036H950.15C946.912 279.94 945.523 276.469 944.928 272.867C944.481 270.164 944.481 267.387 944.481 262.527L893.463 265.361L884.96 288.036H848.114L851.657 277.585C856.369 263.493 860.679 249.291 864.943 235.058C867.77 226.254 870.907 217.657 874.195 209.019C877.754 199.56 881.098 190.025 884.443 180.488L884.565 180.139L884.964 179.001C885.14 178.499 885.316 177.998 885.492 177.497L893.463 154.823ZM916.138 183.166C918.336 184.265 919.682 184.938 920.719 185.932C922.356 187.503 923.223 189.877 925.46 195.998C926.745 200.158 928.006 204.325 929.247 208.498L931.218 214.869C934.602 225.981 935.581 229.192 935.863 232.464C935.978 233.794 935.978 235.134 935.978 237.018H901.966C905.8 218.735 910.556 200.991 916.138 183.166ZM1247.76 4.60302H1205.24C1201.24 15.7404 1197.26 26.8811 1193.29 38.0282C1191.66 42.5939 1190.04 47.1591 1188.41 51.7238C1186.01 58.4202 1183.6 65.1167 1181.22 71.8204L1178.95 78.2292C1174.2 91.3747 1170.23 104.06 1168.39 117.976H1199.57L1205.24 100.97L1250.59 98.136C1250.59 101.59 1250.59 103.641 1250.97 105.619C1251.53 108.51 1252.89 111.245 1256.26 117.976H1287.44C1275.83 79.5058 1262.42 42.0111 1247.76 4.60302ZM1229.83 33.0154C1228.81 31.9779 1227.44 31.2896 1225.08 30.112C1220.61 45.118 1217.04 60.1533 1213.74 75.4613H1242.09C1242.09 74.7945 1242.09 74.2587 1242.06 73.7245C1241.94 71.5416 1241.35 69.3841 1238.33 58.411L1236.77 52.7867C1235.8 49.1197 1234.8 45.4583 1233.78 41.8036C1232.01 36.6262 1231.27 34.4752 1229.83 33.0154ZM1023.84 4.60275L1053.96 3.89417L1063.35 3.5814C1080.43 3.38716 1090.33 4.36038 1103.2 15.9401C1111.25 28.0105 1110.32 38.6237 1108.87 52.7864L1108.87 52.7866C1107.04 57.4047 1106.21 59.5146 1105.01 61.3868C1103.99 62.9616 1102.72 64.3682 1100.37 66.9579L1100.37 66.9581C1095.7 68.9698 1090.98 70.8755 1086.2 72.6267L1092.4 81.8272C1095.06 85.7869 1097.71 89.7469 1100.37 93.7071L1104.47 99.7798L1108.34 105.565L1111.94 110.917C1113.57 113.568 1114.18 114.556 1114.41 115.624C1114.54 116.258 1114.54 116.92 1114.54 117.976C1102.85 119.508 1092.15 120.2 1080.53 117.976C1072.49 110.572 1068.21 102.237 1063.52 92.467L1057.85 83.9641L1055.02 117.976H1023.84V4.60275ZM1055.02 30.1119C1061.63 29.9917 1068.25 29.9959 1074.86 30.1119C1075.74 30.9956 1076.35 31.6037 1076.79 32.3175C1077.75 33.8932 1077.86 35.9837 1078.23 42.6889V42.6893V42.6898C1077.93 48.2557 1077.8 50.7534 1076.79 52.8238C1075.97 54.5092 1074.57 55.9115 1072.03 58.4552C1067.41 58.6397 1065.2 58.7281 1062.99 58.7205C1060.96 58.7134 1058.93 58.625 1055.02 58.4552L1055.02 58.4552V30.1119Z" fill="black"/>
</svg>
