<svg width="2109" height="1000" viewBox="0 0 2109 1000" fill="none" xmlns="http://www.w3.org/2000/svg">
<path d="M364.659 645.35H175.811C122.255 645.35 78.8379 601.93 78.8379 548.37V457.715C78.8379 404.155 122.255 360.734 175.811 360.734H364.659C418.214 360.734 461.632 404.155 461.632 457.715V548.37C461.632 601.93 418.214 645.35 364.659 645.35ZM196.538 424.377C173.815 424.377 155.399 442.794 155.399 465.52V540.328C155.399 563.043 173.815 581.471 196.538 581.471H343.92C366.645 581.471 385.06 563.054 385.06 540.328V465.52C385.06 442.794 366.645 424.377 343.92 424.377H196.538Z" fill="black"/>
<path d="M449.01 680.954C453.848 685.161 450.872 693.112 444.454 693.112H388.182C388.182 693.112 334.818 695.288 287.442 638.65L392.872 634.398C394.519 634.33 396.133 634.895 397.384 635.977L449.01 680.954Z" fill="black"/>
<path d="M801.978 547.94C801.978 566.449 786.979 581.449 768.473 581.449H605.833C587.327 581.449 572.329 566.449 572.329 547.94V457.873C572.329 439.366 587.327 424.366 605.833 424.366H738.205C742.84 424.366 746.596 420.61 746.596 415.975V369.125C746.596 364.49 742.84 360.734 738.205 360.734H585.095C535.745 360.734 495.744 400.738 495.744 450.091V556.006C495.744 605.358 535.745 645.363 585.095 645.363H789.201C838.548 645.363 878.55 605.358 878.55 556.006V481.727C878.55 477.091 874.795 473.336 870.159 473.336H810.367C805.733 473.336 801.978 477.091 801.978 481.727V547.963V547.94Z" fill="black"/>
<path d="M1099.42 535.782H1190.15C1228.85 535.782 1260.24 504.395 1260.24 465.688V437.91C1260.24 396.034 1226.3 362.086 1184.42 362.086H922.058C916.713 362.086 912.62 367.049 913.804 372.259C918.179 391.511 929.592 407.38 951.447 418.196C961.856 423.35 973.482 425.572 985.088 425.572H1156.89C1190.75 425.572 1190.75 473.369 1156.89 473.369H933.697C926.762 473.369 923.571 482.019 928.859 486.519L1075.29 611.233C1098.64 629.245 1125.97 639.023 1155.88 643.478C1161.25 644.279 1166.68 644.549 1172.12 644.549H1222.44C1228.61 644.549 1231.26 636.723 1226.36 632.978L1099.42 535.782Z" fill="black"/>
<path d="M1443.7 359.74H1520.46C1523.39 359.74 1526.12 361.274 1527.65 363.789L1690.01 631.747C1693.4 637.342 1689.37 644.493 1682.83 644.493H1612.53C1609.57 644.493 1606.83 642.937 1605.31 640.388L1481.8 432.642C1481.8 432.642 1481.78 432.631 1481.77 432.642L1423.83 531.248C1423.83 531.248 1423.83 531.27 1423.84 531.27L1386.87 594.147C1386.87 594.147 1386.86 594.147 1386.85 594.147L1359.72 640.331C1358.21 642.89 1355.45 644.47 1352.48 644.47H1283.93C1277.41 644.47 1273.39 637.376 1276.73 631.781L1423.71 385.229L1436.48 363.823C1437.99 361.285 1440.74 359.74 1443.7 359.74Z" fill="black"/>
<path d="M870.239 435.226H794.884C790.25 435.226 786.494 431.471 786.494 426.835V369.61C786.494 364.974 790.25 361.219 794.884 361.219H870.239C874.873 361.219 878.628 364.974 878.628 369.61V426.835C878.628 431.471 874.873 435.226 870.239 435.226Z" fill="black"/>
<path d="M2016.38 359.023H1936.76C1934.13 359.023 1931.63 360.162 1929.93 362.147L1833.87 473.373C1830.27 477.546 1823.81 477.535 1820.21 473.373L1724.27 362.147C1722.56 360.162 1720.07 359.012 1717.44 359.012H1637.89C1630.03 359.012 1625.93 368.373 1631.26 374.147L1785.46 541.279C1787 542.947 1787.85 545.125 1787.85 547.403V635.835C1787.85 640.821 1791.89 644.859 1796.88 644.859H1858.01C1863 644.859 1867.03 640.821 1867.03 635.835V543.874H1867.1L2023.02 374.125C2028.32 368.339 2024.22 359 2016.38 359" fill="black"/>
</svg>
