<svg width="1854" height="1000" viewBox="0 0 1854 1000" fill="none" xmlns="http://www.w3.org/2000/svg">
<path d="M1067.85 363.599C1070.55 363.586 1070.55 363.586 1073.3 363.573C1075.31 363.571 1077.32 363.57 1079.33 363.568C1081.43 363.561 1083.54 363.554 1085.64 363.546C1091.37 363.527 1097.1 363.517 1102.83 363.511C1106.42 363.506 1110 363.5 1113.59 363.494C1124.81 363.474 1136.03 363.46 1147.25 363.454C1160.19 363.447 1173.12 363.422 1186.06 363.379C1196.06 363.347 1206.07 363.332 1216.07 363.33C1222.04 363.329 1228.01 363.32 1233.99 363.294C1239.61 363.269 1245.24 363.267 1250.87 363.279C1252.93 363.28 1254.99 363.274 1257.04 363.26C1282.28 363.091 1300.56 369.586 1318.67 387.273C1333.64 402.962 1334.91 423.001 1334.82 443.513C1334.82 445.598 1334.83 447.683 1334.83 449.768C1334.84 455.392 1334.83 461.016 1334.81 466.64C1334.8 472.532 1334.8 478.425 1334.8 484.318C1334.8 494.198 1334.79 504.078 1334.77 513.958C1334.75 525.392 1334.74 536.826 1334.74 548.259C1334.74 559.264 1334.73 570.269 1334.72 581.273C1334.72 585.957 1334.71 590.642 1334.71 595.326C1334.71 600.828 1334.7 606.33 1334.69 611.831C1334.68 613.855 1334.68 615.879 1334.68 617.903C1334.68 620.653 1334.67 623.404 1334.66 626.154C1334.66 627.697 1334.66 629.239 1334.66 630.828C1334.47 634.278 1334.47 634.278 1333 635.748C1330.75 635.893 1328.49 635.936 1326.24 635.938C1324.09 635.945 1324.09 635.945 1321.89 635.952C1320.32 635.949 1318.76 635.946 1317.15 635.943C1314.76 635.945 1314.76 635.945 1312.32 635.948C1308.94 635.949 1305.57 635.946 1302.19 635.94C1297 635.932 1291.82 635.94 1286.63 635.949C1283.36 635.948 1280.09 635.946 1276.82 635.943C1275.25 635.946 1273.69 635.949 1272.08 635.952C1270.64 635.948 1269.2 635.943 1267.72 635.938C1266.45 635.937 1265.18 635.936 1263.87 635.935C1260.97 635.748 1260.97 635.748 1259.5 634.278C1259.35 631.685 1259.31 629.086 1259.31 626.489C1259.3 623.955 1259.3 623.955 1259.29 621.369C1259.29 618.563 1259.29 618.563 1259.29 615.7C1259.29 613.722 1259.28 611.745 1259.27 609.768C1259.26 605.498 1259.26 601.229 1259.25 596.959C1259.24 590.2 1259.22 583.441 1259.19 576.682C1259.18 574.369 1259.17 572.055 1259.16 569.742C1259.16 568.583 1259.15 567.424 1259.15 566.23C1259.09 550.49 1259.04 534.75 1259.02 519.01C1259.01 508.4 1258.97 497.792 1258.92 487.183C1258.89 481.57 1258.87 475.958 1258.88 470.345C1258.88 465.055 1258.86 459.766 1258.82 454.477C1258.81 451.627 1258.82 448.777 1258.84 445.926C1258.7 433.324 1256.21 424.805 1249.67 414.151C1241.12 405.83 1231.15 401.882 1219.36 401.722C1217.44 401.693 1215.53 401.664 1213.56 401.633C1211.47 401.608 1209.39 401.584 1207.3 401.559C1205.16 401.529 1203.03 401.498 1200.89 401.466C1195.27 401.385 1189.65 401.313 1184.03 401.242C1178.3 401.168 1172.56 401.086 1166.83 401.005C1155.58 400.847 1144.33 400.698 1133.08 400.554C1133.08 401.757 1133.08 402.96 1133.09 404.2C1133.12 433.433 1133.14 462.666 1133.16 491.899C1133.17 506.036 1133.18 520.173 1133.19 534.31C1133.21 546.626 1133.22 558.943 1133.22 571.26C1133.22 577.786 1133.23 584.312 1133.24 590.838C1133.25 596.973 1133.25 603.108 1133.25 609.243C1133.25 611.502 1133.25 613.76 1133.26 616.018C1133.26 619.088 1133.26 622.158 1133.26 625.228C1133.26 626.951 1133.26 628.673 1133.26 630.447C1133.08 634.278 1133.08 634.278 1131.61 635.748C1129.36 635.893 1127.11 635.936 1124.86 635.938C1122.7 635.945 1122.7 635.945 1120.5 635.952C1118.94 635.949 1117.37 635.946 1115.76 635.943C1113.37 635.945 1113.37 635.945 1110.94 635.948C1107.56 635.949 1104.18 635.946 1100.81 635.94C1095.62 635.932 1090.43 635.94 1085.24 635.949C1081.97 635.948 1078.7 635.946 1075.43 635.943C1073.87 635.946 1072.3 635.949 1070.69 635.952C1069.26 635.948 1067.82 635.943 1066.34 635.938C1065.07 635.937 1063.8 635.936 1062.48 635.935C1059.58 635.748 1059.58 635.748 1058.11 634.278C1057.97 630.804 1057.92 627.373 1057.93 623.899C1057.92 622.8 1057.92 621.701 1057.92 620.569C1057.91 616.86 1057.92 613.15 1057.92 609.441C1057.92 606.793 1057.92 604.145 1057.92 601.497C1057.91 594.284 1057.91 587.071 1057.92 579.858C1057.92 572.327 1057.92 564.796 1057.91 557.265C1057.91 544.616 1057.91 531.967 1057.92 519.317C1057.93 504.671 1057.93 490.024 1057.92 475.378C1057.91 462.826 1057.91 450.275 1057.92 437.724C1057.92 430.217 1057.92 422.711 1057.91 415.204C1057.91 408.148 1057.91 401.092 1057.92 394.037C1057.92 391.439 1057.92 388.842 1057.92 386.245C1057.91 382.714 1057.92 379.184 1057.93 375.654C1057.92 374.613 1057.92 373.571 1057.92 372.499C1057.95 363.441 1059.03 363.623 1067.85 363.599Z" fill="white"/>
<path d="M590.688 363.471C592.424 363.47 594.161 363.47 595.95 363.469C601.661 363.471 607.371 363.494 613.082 363.517C617.053 363.525 621.024 363.527 624.995 363.53C634.36 363.539 643.725 363.563 653.09 363.593C663.759 363.626 674.427 363.642 685.095 363.657C707.027 363.687 728.959 363.741 750.891 363.805C750.891 375.932 750.891 388.059 750.891 400.554C745.038 400.574 745.038 400.574 739.068 400.595C726.154 400.645 713.24 400.727 700.327 400.824C692.5 400.882 684.673 400.929 676.846 400.952C669.288 400.974 661.73 401.025 654.172 401.095C651.293 401.117 648.415 401.128 645.536 401.13C641.493 401.133 637.451 401.173 633.408 401.221C631.637 401.21 631.637 401.21 629.83 401.199C622.345 401.336 617.196 402.909 610.695 406.645C608.304 407.903 608.304 407.903 605.364 407.903C605.364 408.874 605.364 409.844 605.364 410.843C603.682 412.39 603.682 412.39 601.965 413.967C592.852 423.715 592.892 433.922 593.185 446.754C594.215 459.639 599.452 466.065 609.131 474.327C616.527 479.827 622.265 480.376 631.406 480.4C632.697 480.415 633.988 480.43 635.319 480.445C639.582 480.49 643.845 480.515 648.108 480.54C651.066 480.568 654.024 480.596 656.981 480.626C664.763 480.702 672.544 480.76 680.325 480.815C688.267 480.874 696.209 480.949 704.15 481.023C719.73 481.165 735.31 481.287 750.891 481.402C750.891 493.529 750.891 505.656 750.891 518.151C698.501 518.151 646.112 518.151 592.135 518.151C588.964 553.86 588.964 553.86 601.965 585.493C603.087 586.554 604.209 587.615 605.364 588.709C605.364 589.679 605.364 590.649 605.364 591.649C607.804 592.653 610.257 593.627 612.714 594.589C613.991 595.099 615.269 595.609 616.585 596.134C622.656 597.845 628.114 597.969 634.386 597.974C635.647 597.986 636.908 597.999 638.206 598.011C642.351 598.049 646.496 598.067 650.64 598.086C653.524 598.109 656.408 598.135 659.293 598.161C666.868 598.228 674.443 598.279 682.019 598.326C694.17 598.403 706.322 598.498 718.473 598.603C722.725 598.636 726.976 598.66 731.228 598.683C733.815 598.703 736.402 598.723 738.989 598.743C740.775 598.749 740.775 598.749 742.597 598.755C750.724 598.831 750.724 598.831 752.361 600.468C752.507 602.961 752.553 605.459 752.556 607.956C752.558 609.47 752.56 610.984 752.562 612.544C752.556 614.138 752.55 615.731 752.544 617.373C752.55 618.967 752.556 620.56 752.562 622.202C752.559 624.473 752.559 624.473 752.556 626.79C752.554 628.189 752.552 629.589 752.551 631.03C752.361 634.278 752.361 634.278 750.891 635.748C748.591 635.905 746.284 635.959 743.978 635.974C742.483 635.986 740.987 635.999 739.446 636.012C736.963 636.021 736.963 636.021 734.43 636.031C732.697 636.043 730.964 636.055 729.178 636.068C723.408 636.104 717.638 636.129 711.868 636.15C709.878 636.157 707.889 636.165 705.899 636.173C697.612 636.205 689.325 636.233 681.038 636.249C669.189 636.273 657.34 636.321 645.492 636.405C637.15 636.463 628.808 636.491 620.466 636.499C615.492 636.504 610.519 636.522 605.545 636.57C599.972 636.616 594.402 636.616 588.829 636.605C587.209 636.629 585.589 636.654 583.921 636.678C564.352 636.524 548.657 628.909 534.909 615.3C521.035 600.324 516.721 585.215 516.74 565.167C516.73 563.586 516.72 562.004 516.71 560.375C516.682 555.172 516.676 549.968 516.673 544.765C516.663 541.129 516.653 537.494 516.643 533.858C516.626 526.245 516.62 518.633 516.622 511.02C516.622 501.293 516.582 491.566 516.531 481.839C516.499 474.332 516.493 466.825 516.494 459.318C516.491 455.733 516.478 452.148 516.455 448.563C516.426 443.537 516.435 438.512 516.452 433.485C516.436 432.022 516.419 430.56 516.402 429.052C516.572 409.897 524.729 395.109 537.666 381.341C553.024 366.977 570.305 363.338 590.688 363.471Z" fill="white"/>
<path d="M861.805 363.114C863.54 363.111 865.275 363.108 867.062 363.104C872.734 363.101 878.405 363.139 884.077 363.179C888.036 363.19 891.995 363.191 895.954 363.194C904.216 363.203 912.478 363.234 920.74 363.281C931.355 363.34 941.969 363.366 952.584 363.38C962.7 363.393 972.816 363.424 982.932 363.455C985.84 363.462 985.84 363.462 988.807 363.47C994.254 363.487 999.702 363.514 1005.15 363.545C1007.59 363.551 1007.59 363.551 1010.09 363.557C1011.56 363.567 1013.03 363.578 1014.55 363.589C1015.84 363.595 1017.13 363.601 1018.45 363.608C1021.36 363.805 1021.36 363.805 1022.83 365.275C1022.98 367.767 1023.03 370.266 1023.03 372.763C1023.03 374.277 1023.03 375.791 1023.03 377.351C1023.03 378.944 1023.02 380.538 1023.02 382.18C1023.02 383.773 1023.03 385.367 1023.03 387.009C1023.03 389.28 1023.03 389.28 1023.03 391.597C1023.03 392.996 1023.03 394.395 1023.02 395.837C1022.83 399.084 1022.83 399.084 1021.36 400.554C1017.45 400.707 1013.58 400.765 1009.67 400.763C1008.44 400.768 1007.21 400.773 1005.95 400.778C1003.28 400.789 1000.6 400.797 997.928 400.802C993.688 400.813 989.449 400.836 985.209 400.863C973.151 400.94 961.092 401.01 949.033 401.033C941.663 401.048 934.295 401.091 926.925 401.153C924.122 401.171 921.318 401.178 918.515 401.175C914.574 401.172 910.635 401.204 906.695 401.245C905.549 401.235 904.403 401.226 903.222 401.216C892.702 401.392 883.982 404.656 876.021 411.579C874.99 412.792 873.959 414.004 872.897 415.254C872.109 416.103 871.321 416.952 870.508 417.826C864.799 427.168 863.422 437.023 863.483 447.776C863.468 449.679 863.468 449.679 863.453 451.621C863.426 455.774 863.432 459.925 863.44 464.078C863.433 466.99 863.425 469.902 863.417 472.814C863.403 478.902 863.407 484.989 863.422 491.077C863.439 498.848 863.409 506.619 863.366 514.39C863.339 520.399 863.339 526.408 863.348 532.418C863.348 535.281 863.339 538.145 863.321 541.009C863.227 558.11 863.48 571.552 873.173 586.229C887.33 599.757 901.817 598.59 920.395 598.517C923.306 598.532 926.217 598.551 929.127 598.574C936.754 598.624 944.379 598.632 952.006 598.629C962.793 598.634 973.581 598.697 984.368 598.753C990.109 598.782 995.849 598.796 1001.59 598.797C1004.19 598.803 1006.79 598.808 1009.4 598.814C1010.59 598.811 1011.79 598.808 1013.02 598.805C1021.2 598.833 1021.2 598.833 1022.83 600.469C1022.98 602.961 1023.03 605.46 1023.03 607.957C1023.03 609.471 1023.03 610.985 1023.03 612.545C1023.03 614.138 1023.02 615.732 1023.02 617.374C1023.02 618.967 1023.03 620.561 1023.03 622.203C1023.03 624.474 1023.03 624.474 1023.03 626.791C1023.03 628.19 1023.03 629.589 1023.02 631.031C1022.83 634.278 1022.83 634.278 1021.36 635.748C1019.13 635.895 1016.89 635.94 1014.64 635.945C1013.19 635.951 1011.74 635.957 1010.24 635.964C1008.64 635.963 1007.03 635.962 1005.37 635.962C1003.69 635.967 1002.01 635.971 1000.27 635.977C994.672 635.991 989.072 635.993 983.472 635.995C979.587 636 975.702 636.005 971.818 636.01C963.653 636.019 955.488 636.021 947.324 636.021C937.913 636.02 928.502 636.035 919.091 636.058C911.001 636.078 902.911 636.085 894.822 636.085C889.995 636.084 885.169 636.09 880.343 636.104C874.942 636.118 869.542 636.114 864.141 636.105C862.56 636.113 860.98 636.122 859.351 636.13C847.485 636.081 835.036 635.591 824.664 629.225C823.654 628.621 822.644 628.016 821.603 627.393C820.582 626.755 819.561 626.116 818.508 625.458C817.307 624.812 816.106 624.166 814.868 623.5C799.703 613.476 791.301 595.592 787.639 578.42C787.078 573.136 787.02 567.917 787.045 562.607C787.035 561.118 787.025 559.629 787.015 558.095C786.988 553.223 786.994 548.351 787.002 543.479C786.995 540.058 786.987 536.637 786.979 533.216C786.965 526.064 786.969 518.911 786.984 511.758C787 502.64 786.971 493.522 786.928 484.404C786.901 477.343 786.901 470.282 786.91 463.22C786.91 459.861 786.901 456.501 786.883 453.142C786.763 427.585 787.336 405.882 805.279 385.854C821.61 369.469 838.703 362.842 861.805 363.114Z" fill="white"/>
<path d="M212.919 363.615C213.984 363.619 215.049 363.624 216.147 363.628C217.27 363.627 218.394 363.626 219.552 363.624C223.346 363.622 227.14 363.63 230.934 363.638C233.643 363.638 236.351 363.638 239.06 363.637C246.436 363.637 253.813 363.646 261.19 363.656C268.89 363.665 276.591 363.666 284.291 363.668C298.883 363.672 313.476 363.684 328.068 363.699C344.676 363.715 361.285 363.724 377.893 363.731C412.068 363.746 446.243 363.773 480.417 363.805C480.417 375.932 480.417 388.059 480.417 400.554C472.874 400.585 472.874 400.585 465.178 400.617C460.269 400.662 455.36 400.72 450.451 400.778C447.058 400.812 443.665 400.834 440.272 400.841C435.374 400.855 430.478 400.916 425.581 400.985C424.081 400.979 422.581 400.973 421.036 400.967C408.526 401.218 399.298 404.984 389.463 412.681C380.362 424.459 379.605 435.632 379.681 450.188C379.67 452.201 379.657 454.213 379.642 456.226C379.607 461.653 379.608 467.079 379.615 472.505C379.616 478.192 379.583 483.879 379.553 489.565C379.501 500.319 379.477 511.072 379.465 521.826C379.446 537.641 379.389 553.456 379.326 569.271C379.322 570.429 379.317 571.588 379.312 572.781C379.303 575.09 379.294 577.399 379.284 579.708C379.258 586.48 379.242 593.251 379.234 600.023C379.228 604.22 379.217 608.417 379.205 612.613C379.198 615.501 379.199 618.388 379.201 621.275C379.195 622.978 379.189 624.68 379.183 626.433C379.181 627.922 379.179 629.41 379.177 630.943C378.99 634.278 378.99 634.278 377.52 635.748C375.272 635.893 373.017 635.936 370.764 635.938C368.608 635.945 368.608 635.945 366.409 635.952C364.846 635.949 363.282 635.946 361.672 635.943C359.282 635.945 359.282 635.945 356.844 635.947C353.468 635.948 350.092 635.946 346.716 635.94C341.528 635.932 336.341 635.94 331.153 635.949C327.882 635.948 324.611 635.946 321.34 635.943C319.776 635.946 318.213 635.949 316.602 635.952C315.165 635.948 313.728 635.943 312.247 635.938C310.975 635.937 309.703 635.936 308.393 635.935C305.492 635.748 305.492 635.748 304.022 634.278C303.879 631.264 303.843 628.245 303.845 625.228C303.844 624.273 303.842 623.317 303.841 622.332C303.839 619.107 303.847 615.881 303.855 612.656C303.855 610.353 303.855 608.05 303.854 605.747C303.854 599.476 303.862 593.205 303.873 586.933C303.882 580.387 303.883 573.84 303.884 567.293C303.889 554.887 303.901 542.481 303.916 530.076C303.932 515.956 303.94 501.836 303.948 487.716C303.963 458.662 303.989 429.608 304.022 400.554C302.791 400.557 301.561 400.561 300.293 400.564C288.72 400.593 277.147 400.616 265.574 400.63C259.624 400.638 253.674 400.648 247.723 400.665C241.986 400.681 236.248 400.69 230.51 400.693C228.317 400.696 226.123 400.702 223.929 400.709C220.867 400.72 217.804 400.722 214.742 400.721C212.996 400.724 211.249 400.727 209.45 400.731C205.534 400.554 205.534 400.554 204.064 399.084C203.918 396.592 203.872 394.093 203.869 391.596C203.866 389.325 203.866 389.325 203.863 387.009C203.869 385.415 203.875 383.821 203.881 382.179C203.875 380.586 203.869 378.992 203.863 377.35C203.865 375.836 203.867 374.322 203.869 372.763C203.871 371.363 203.872 369.964 203.874 368.522C204.235 362.358 207.543 363.632 212.919 363.615Z" fill="white"/>
<path fill-rule="evenodd" clip-rule="evenodd" d="M1475.34 363.007C1471.82 363.014 1468.3 363.02 1464.79 363.024C1436.67 362.912 1412.18 362.851 1390.3 382.868C1370.91 402.716 1370.35 424.823 1370.5 451.042C1370.52 454.522 1370.54 458.002 1370.54 461.482C1370.54 468.779 1370.55 476.075 1370.58 483.372C1370.63 492.817 1370.67 502.262 1370.67 511.707C1370.67 519.108 1370.67 526.51 1370.69 533.911C1370.7 537.443 1370.71 540.975 1370.72 544.507C1370.72 549.561 1370.73 554.615 1370.76 559.669L1370.79 564.316C1370.77 585.196 1376.48 602.443 1391.24 617.781C1410.77 636.036 1431.64 636.618 1457.1 636.504C1460.63 636.486 1464.15 636.477 1467.68 636.477C1475.08 636.486 1482.48 636.486 1489.88 636.459C1499.45 636.416 1509.02 636.386 1518.58 636.403C1526.08 636.418 1533.57 636.421 1541.06 636.408C1544.65 636.4 1548.24 636.392 1551.83 636.385C1554.95 636.39 1558.15 636.453 1561.39 636.517C1580.47 636.894 1601.12 637.302 1616.95 626.095L1619.64 623.988C1622.73 621.641 1625.67 619.246 1628.54 616.621C1648.17 596.556 1650.14 573.258 1649.99 546.618C1649.97 543.304 1649.96 539.991 1649.96 536.678C1649.97 529.704 1649.98 522.73 1649.94 515.756C1649.89 506.762 1649.86 497.771 1649.88 488.777C1649.91 481.717 1649.91 474.658 1649.9 467.598C1649.89 464.218 1649.88 460.838 1649.87 457.457C1649.95 429.671 1649.48 405.007 1629.65 383.282C1609.22 364.279 1583.97 362.921 1557.66 363.003C1554.2 363.017 1550.75 363.022 1547.29 363.018C1540.03 363.003 1532.77 362.996 1525.52 363.017C1516.14 363.052 1506.77 363.072 1497.39 363.038C1490.04 363.01 1482.69 362.998 1475.34 363.007ZM1486.22 400.236L1482.25 400.293C1472.52 400.416 1465.5 403.228 1457.94 409.373C1449.81 419.053 1445.87 428.594 1445.8 441.224L1445.83 445.015C1445.82 449.265 1445.81 453.515 1445.83 457.765C1445.84 460.802 1445.84 463.839 1445.85 466.876C1445.85 473.214 1445.85 479.552 1445.87 485.89C1445.89 494.128 1445.91 502.367 1445.91 510.605C1445.91 517.038 1445.91 523.471 1445.92 529.904C1445.93 532.972 1445.93 536.04 1445.94 539.109C1445.94 543.521 1445.94 547.932 1445.95 552.344L1445.97 556.387L1445.97 560.197L1445.99 563.706C1446.01 573.21 1449.43 579.69 1455 587.239C1464.34 596.367 1473.62 601.097 1486.66 601.285L1490.74 601.249C1493.65 601.261 1496.57 601.268 1499.48 601.272C1504.03 601.235 1508.57 601.203 1513.12 601.235C1516.1 601.26 1519.09 601.27 1522.07 601.266L1526.38 601.249C1539.56 601.366 1551.74 599.005 1561.72 589.604C1573.98 575.538 1573.98 575.538 1573.76 543.403V543.402C1573.73 540.318 1573.72 537.234 1573.72 534.15C1573.74 527.676 1573.74 521.203 1573.7 514.73C1573.64 506.36 1573.6 497.993 1573.64 489.623C1573.67 483.066 1573.68 476.509 1573.66 469.952C1573.65 466.815 1573.64 463.678 1573.63 460.541C1573.63 458.814 1573.65 457.105 1573.67 455.413C1573.87 438.305 1574.04 422.975 1561.21 409.557C1551.5 403.213 1543.22 399.887 1531.54 399.85L1527.32 399.928C1522.76 399.943 1518.2 399.966 1513.64 400.029C1510.49 400.073 1507.34 400.103 1504.19 400.12C1501.1 400.131 1498 400.147 1494.91 400.167L1490.48 400.203L1486.22 400.236Z" fill="white"/>
<path d="M896.417 593.119C896.417 594.089 896.417 595.059 896.417 596.059C958.993 596.786 958.993 596.786 1022.83 597.529C1022.35 598.499 1021.86 599.469 1021.36 600.469C1004.41 600.379 987.451 600.265 970.495 600.122C962.622 600.056 954.749 599.999 946.876 599.959C939.279 599.921 931.683 599.862 924.087 599.788C921.187 599.763 918.287 599.746 915.387 599.737C911.329 599.723 907.272 599.682 903.214 599.634C902.012 599.636 900.81 599.639 899.571 599.641C893.251 599.536 889.218 599.187 884.657 594.589C888.909 593.374 891.842 593.119 896.417 593.119Z" fill="white"/>
<path d="M1409.43 369.685C1410.4 370.17 1411.37 370.655 1412.37 371.155C1411.22 372.064 1410.07 372.974 1408.88 373.911C1405.07 376.885 1405.07 376.885 1402.08 379.974C1401.11 379.974 1400.14 379.974 1399.14 379.974C1397.14 381.387 1395.18 382.854 1393.26 384.384C1392.29 383.899 1391.32 383.414 1390.32 382.914C1404.1 372.351 1404.1 372.351 1409.43 369.685Z" fill="white"/>
<path d="M896.417 593.119C896.417 594.089 896.417 595.059 896.417 596.059C898.842 596.544 901.268 597.029 903.767 597.529C903.767 598.014 903.767 598.499 903.767 598.999C891.724 599.694 891.724 599.694 886.77 596.794C886.073 596.066 885.376 595.339 884.657 594.589C888.909 593.374 891.842 593.119 896.417 593.119Z" fill="white"/>
<path d="M1291.84 368.215C1293.78 368.215 1295.72 368.215 1297.72 368.215C1297.72 369.185 1297.72 370.155 1297.72 371.155C1298.69 371.155 1299.66 371.155 1300.66 371.155C1301.14 370.184 1301.63 369.214 1302.13 368.215C1304.55 370.155 1306.98 372.095 1309.48 374.094C1308.51 374.094 1307.54 374.094 1306.54 374.094C1306.05 375.065 1305.57 376.035 1305.07 377.034C1300.7 374.609 1296.33 372.183 1291.84 369.685C1291.84 369.199 1291.84 368.714 1291.84 368.215Z" fill="white"/>
<path d="M1644.63 587.239C1645.6 587.724 1646.57 588.209 1647.57 588.709C1647.57 590.164 1647.57 591.619 1647.57 593.119C1646.6 593.119 1645.63 593.119 1644.63 593.119C1644.78 594.21 1644.93 595.302 1645.09 596.426C1644.63 600.468 1644.63 600.468 1640.95 603.868C1639.13 605.096 1639.13 605.096 1637.28 606.348C1637.67 605.378 1638.07 604.408 1638.47 603.408C1640.6 598.044 1642.61 592.645 1644.63 587.239Z" fill="white"/>
<path d="M1565.25 582.829C1566.22 584.284 1567.19 585.739 1568.19 587.239C1564.87 590.671 1561.9 593.394 1557.9 596.059C1556.93 595.088 1555.96 594.118 1554.96 593.119C1556.11 592.239 1557.26 591.36 1558.45 590.454C1562.52 587.37 1562.52 587.37 1565.25 582.829Z" fill="white"/>
<path d="M564.125 366.458C567.091 366.553 570.058 366.649 573.025 366.745C572.54 368.2 572.055 369.655 571.555 371.155C567.189 370.67 562.823 370.185 558.325 369.685C561.265 366.745 561.265 366.745 564.125 366.458Z" fill="white"/>
<path d="M605.364 407.904C606.334 407.904 607.304 407.904 608.304 407.904C606.058 412.957 603.156 417.002 599.484 421.133C598.514 421.133 597.544 421.133 596.544 421.133C598.314 417.468 600.152 414.252 602.424 410.843C603.394 410.843 604.364 410.843 605.364 410.843C605.364 409.873 605.364 408.903 605.364 407.904Z" fill="white"/>
<path d="M1629.93 613.698C1630.9 615.154 1631.87 616.609 1632.87 618.108C1632.38 619.079 1631.9 620.049 1631.4 621.048C1629.94 621.048 1628.49 621.048 1626.99 621.048C1626.5 622.504 1626.02 623.959 1625.52 625.458C1624.42 622.886 1624.42 622.886 1624.05 619.578C1626.9 616.271 1626.9 616.271 1629.93 613.698Z" fill="white"/>
<path d="M1571.13 571.07C1572.1 573.01 1573.07 574.95 1574.07 576.949C1572.05 579.889 1572.05 579.889 1569.66 582.829C1568.69 582.829 1567.72 582.829 1566.72 582.829C1567.17 581.708 1567.63 580.586 1568.1 579.43C1569.19 576.673 1570.19 573.882 1571.13 571.07Z" fill="white"/>
<path d="M389.28 410.844C390.25 410.844 391.22 410.844 392.22 410.844C392.705 412.784 393.19 414.724 393.69 416.723C390.779 417.694 387.869 418.664 384.87 419.663C387.626 412.497 387.626 412.497 389.28 410.844Z" fill="white"/>
<path d="M799.399 393.204C799.884 393.204 800.369 393.204 800.869 393.204C800.384 397.085 799.899 400.965 799.399 404.964C798.914 403.993 798.429 403.023 797.929 402.024C796.959 402.024 795.989 402.024 794.989 402.024C797.745 394.858 797.745 394.858 799.399 393.204Z" fill="white"/>
<path d="M1388.85 384.384C1389.82 385.84 1390.79 387.295 1391.79 388.794C1388.4 391.22 1385 393.645 1381.5 396.144C1383.25 391.183 1384.85 387.843 1388.85 384.384Z" fill="white"/>
</svg>
