<svg width="1904" height="1000" viewBox="0 0 1904 1000" fill="none" xmlns="http://www.w3.org/2000/svg">
<g clip-path="url(#clip0_2015_167)">
<path d="M881.18 307.341C881.438 323.595 881.696 339.85 881.962 356.597C884.284 354.533 886.606 352.469 888.999 350.342C898.256 346.635 908.603 347.255 917.927 350.342C921.375 352.103 923.424 354.965 925.095 358.425C926.547 363.073 926.12 368.092 926.05 372.917C926.045 374.118 926.04 375.319 926.037 376.519C926.025 379.661 925.994 382.802 925.96 385.943C925.928 389.156 925.913 392.369 925.898 395.582C925.864 401.872 925.811 408.162 925.745 414.452C928.325 414.452 930.905 414.452 933.563 414.452C933.563 415.484 933.563 416.516 933.563 417.58C920.147 417.58 906.731 417.58 892.908 417.58C892.908 416.548 892.908 415.516 892.908 414.452C895.746 414.452 898.584 414.452 901.508 414.452C901.442 407.282 901.368 400.112 901.283 392.942C901.244 389.613 901.208 386.283 901.178 382.954C901.149 379.74 901.113 376.526 901.072 373.312C901.057 372.086 901.045 370.861 901.036 369.636C901.023 367.918 901 366.2 900.976 364.482C900.965 363.504 900.955 362.527 900.944 361.52C900.731 359.001 900.35 357.256 899.163 355.033C896.642 353.899 895.093 354.031 892.508 354.947C888.656 356.724 886.132 358.079 884.308 362.069C883.792 362.069 883.276 362.069 882.744 362.069C881.929 364.763 881.841 367.267 881.802 370.073C881.786 371.059 881.77 372.045 881.754 373.061C881.741 374.133 881.728 375.205 881.715 376.277C881.699 377.377 881.682 378.477 881.666 379.576C881.623 382.466 881.584 385.355 881.546 388.245C881.507 391.195 881.463 394.146 881.42 397.096C881.336 402.882 881.257 408.667 881.18 414.452C884.018 414.452 886.856 414.452 889.781 414.452C889.781 415.484 889.781 416.516 889.781 417.58C876.106 417.58 862.432 417.58 848.343 417.58C848.343 416.548 848.343 415.516 848.343 414.452C850.923 414.452 853.503 414.452 856.162 414.452C856.162 381.686 856.162 348.919 856.162 315.159C853.582 315.675 851.002 316.191 848.343 316.723C848.343 315.433 848.343 314.143 848.343 312.814C849.524 312.614 849.524 312.614 850.728 312.411C857.682 311.217 864.587 309.895 871.468 308.334C872.056 308.205 872.643 308.076 873.249 307.943C873.762 307.827 874.275 307.71 874.804 307.591C876.908 307.279 879.053 307.341 881.18 307.341Z" fill="black"/>
<path d="M1674.74 432.435C1674.74 467.781 1674.74 503.128 1674.74 539.546C1677.84 539.546 1680.94 539.546 1684.13 539.546C1684.13 540.836 1684.13 542.126 1684.13 543.455C1673.29 543.455 1662.45 543.455 1651.29 543.455C1650.9 539.972 1650.9 539.972 1650.51 536.419C1647.38 537.583 1647.38 537.583 1646.65 539.497C1645.49 541.733 1644.14 542.364 1641.91 543.455C1635.16 545.574 1626.41 544.692 1620.15 541.571C1613.54 537.604 1608.41 532.927 1605.94 525.473C1605.67 524.759 1605.39 524.046 1605.11 523.311C1602.17 515.027 1601.05 504.93 1604.38 496.545C1604.68 495.759 1604.99 494.973 1605.31 494.163C1607.9 488.055 1611.12 481.241 1617.47 478.377C1618.05 478.18 1618.63 477.984 1619.23 477.781C1619.23 477.265 1619.23 476.749 1619.23 476.217C1624.26 474.046 1629.17 473.597 1634.58 473.53C1635.2 473.513 1635.83 473.496 1636.47 473.478C1642.31 473.497 1646.38 475.216 1650.51 479.345C1650.76 466.444 1651.02 453.544 1651.29 440.253C1647.03 441.027 1647.03 441.027 1642.69 441.817C1642.69 440.527 1642.69 439.237 1642.69 437.907C1643.54 437.774 1644.39 437.641 1645.27 437.504C1652.31 436.381 1659.27 435.091 1666.2 433.428C1669.2 432.725 1671.62 432.435 1674.74 432.435ZM1632.52 480.908C1631.24 484.12 1630.76 486.831 1630.75 490.28C1630.74 491.185 1630.73 492.091 1630.72 493.023C1630.72 493.991 1630.72 494.959 1630.73 495.956C1630.72 496.96 1630.72 497.964 1630.72 498.999C1630.71 501.12 1630.71 503.24 1630.71 505.361C1630.72 508.067 1630.71 510.772 1630.69 513.478C1630.67 516.075 1630.68 518.671 1630.68 521.268C1630.67 522.234 1630.66 523.2 1630.65 524.195C1630.68 529.071 1630.73 532.977 1633.31 537.201C1637.05 538.45 1639.93 538.567 1643.52 536.81C1646.74 534.07 1649.39 530.833 1651.29 527.037C1651.37 525.784 1651.41 524.529 1651.43 523.273C1651.44 522.49 1651.45 521.707 1651.46 520.9C1651.46 520.051 1651.47 519.202 1651.47 518.327C1651.48 517.455 1651.49 516.583 1651.49 515.685C1651.5 513.837 1651.51 511.989 1651.52 510.141C1651.53 507.318 1651.57 504.496 1651.6 501.673C1651.61 499.878 1651.62 498.083 1651.62 496.289C1651.63 495.445 1651.65 494.602 1651.66 493.734C1651.65 488.999 1651.44 486.022 1648.16 482.472C1647.64 482.472 1647.13 482.472 1646.6 482.472C1646.42 482.004 1646.24 481.537 1646.06 481.055C1644.71 478.813 1643.5 478.078 1641.12 476.999C1636.8 476.279 1635.17 477.529 1632.52 480.908Z" fill="black"/>
<path d="M1018.78 470.744C1018.79 471.473 1018.79 472.202 1018.8 472.953C1018.84 479.843 1018.9 486.732 1018.97 493.622C1019 497.163 1019.03 500.705 1019.05 504.246C1019.07 507.668 1019.11 511.09 1019.15 514.512C1019.16 515.813 1019.17 517.114 1019.17 518.416C1019.2 525.037 1019.24 531.011 1021.91 537.2C1026.96 536.788 1026.96 536.788 1031.21 534.278C1032.39 532.693 1033.42 531.086 1034.42 529.382C1034.89 528.721 1035.36 528.06 1035.84 527.379C1038.36 522.198 1037.65 515.844 1037.62 510.23C1037.62 509.301 1037.62 508.371 1037.62 507.414C1037.62 504.459 1037.61 501.504 1037.6 498.548C1037.59 496.539 1037.59 494.53 1037.59 492.521C1037.58 487.608 1037.56 482.694 1037.55 477.781C1034.06 478.168 1034.06 478.168 1030.51 478.563C1030.51 477.531 1030.51 476.499 1030.51 475.435C1033.54 474.799 1036.57 474.164 1039.6 473.53C1040.46 473.35 1041.31 473.17 1042.19 472.985C1043.02 472.811 1043.86 472.637 1044.71 472.458C1045.47 472.298 1046.24 472.138 1047.02 471.974C1047.76 471.826 1048.51 471.678 1049.27 471.526C1049.97 471.378 1050.66 471.23 1051.37 471.077C1055.07 470.603 1058.83 470.744 1062.57 470.744C1062.57 493.191 1062.57 515.637 1062.57 538.764C1065.4 538.764 1068.24 538.764 1071.17 538.764C1071.17 539.796 1071.17 540.828 1071.17 541.891C1060.07 541.891 1048.98 541.891 1037.55 541.891C1037.16 538.795 1037.16 538.795 1036.77 535.637C1036.41 536.024 1036.06 536.411 1035.69 536.81C1034.42 537.982 1034.42 537.982 1032.86 537.982C1032.7 538.45 1032.53 538.918 1032.37 539.399C1030.8 541.897 1029.37 542.39 1026.6 543.455C1023.75 543.792 1020.92 543.783 1018.05 543.748C1017.3 543.757 1016.54 543.766 1015.77 543.776C1011.21 543.757 1007.97 543.233 1003.93 541.11C1003.93 540.594 1003.93 540.078 1003.93 539.546C1003.36 539.433 1002.8 539.32 1002.22 539.204C998.276 537.014 996.829 532.864 995.294 528.769C994.006 524.137 994.265 519.275 994.223 514.506C994.208 513.444 994.193 512.383 994.177 511.322C994.137 508.544 994.106 505.767 994.077 502.989C994.045 500.148 994.005 497.307 993.966 494.467C993.891 488.905 993.825 483.343 993.765 477.781C991.185 478.039 988.605 478.297 985.946 478.563C985.946 477.531 985.946 476.499 985.946 475.435C989.112 474.755 992.281 474.088 995.452 473.431C996.526 473.207 997.6 472.98 998.672 472.749C1000.23 472.414 1001.79 472.091 1003.35 471.771C1004.29 471.574 1005.22 471.378 1006.18 471.175C1010.35 470.47 1014.57 470.662 1018.78 470.744Z" fill="black"/>
<path d="M871.798 470.744C871.803 471.475 871.807 472.205 871.812 472.958C871.857 479.86 871.914 486.761 871.982 493.662C872.017 497.21 872.048 500.758 872.069 504.305C872.089 507.732 872.121 511.159 872.16 514.586C872.173 515.89 872.182 517.194 872.187 518.498C872.195 520.332 872.217 522.166 872.242 523.999C872.241 524.532 872.24 525.066 872.238 525.615C872.317 529.684 873.371 532.718 874.925 536.419C879.483 536.899 879.483 536.899 883.33 534.757C883.911 534.015 884.491 533.274 885.089 532.509C885.638 531.816 886.186 531.123 886.751 530.408C890.473 523.832 890.921 517.263 890.962 509.83C890.983 508.415 890.983 508.415 891.005 506.971C891.047 503.985 891.073 500.998 891.1 498.011C891.126 495.975 891.153 493.939 891.181 491.903C891.247 486.935 891.3 481.967 891.344 476.999C890.634 477.257 889.925 477.515 889.194 477.781C886.653 478.563 886.653 478.563 883.526 478.563C883.526 477.531 883.526 476.499 883.526 475.435C886.571 474.8 889.617 474.165 892.663 473.53C893.525 473.35 894.388 473.17 895.276 472.985C896.11 472.811 896.944 472.637 897.803 472.458C898.569 472.298 899.335 472.138 900.123 471.974C905.733 470.815 909.402 470.744 915.581 470.744C915.581 493.191 915.581 515.637 915.581 538.764C918.161 538.764 920.741 538.764 923.399 538.764C923.399 539.796 923.399 540.828 923.399 541.891C912.563 541.891 901.727 541.891 890.562 541.891C890.175 538.795 890.175 538.795 889.78 535.637C886.701 538.12 886.701 538.12 883.868 540.865C880.223 544.193 875.395 543.742 870.772 543.748C870.059 543.767 869.346 543.787 868.611 543.806C862.639 543.832 858.955 542.106 854.011 538.96C849.058 534.006 847.485 527.2 847.384 520.402C847.384 518.379 847.392 516.357 847.408 514.335C847.411 513.256 847.414 512.177 847.415 511.098C847.421 508.274 847.436 505.45 847.454 502.627C847.47 499.739 847.477 496.851 847.485 493.963C847.501 488.308 847.528 482.654 847.561 476.999C846.303 477.386 846.303 477.386 845.02 477.781C842.088 478.563 842.088 478.563 838.961 478.563C838.961 477.531 838.961 476.499 838.961 475.435C842.127 474.755 845.296 474.088 848.467 473.431C849.541 473.207 850.614 472.98 851.687 472.749C853.246 472.414 854.807 472.091 856.369 471.771C857.303 471.574 858.236 471.378 859.198 471.175C863.363 470.47 867.589 470.662 871.798 470.744Z" fill="black"/>
<path d="M1341.68 473.872C1353.55 473.872 1365.42 473.872 1377.65 473.872C1377.65 474.904 1377.65 475.936 1377.65 476.999C1376.1 476.999 1374.55 476.999 1372.96 476.999C1373.32 477.669 1373.69 478.339 1374.07 479.03C1378.54 487.23 1378.54 487.23 1379.75 490.192C1380.71 492.488 1381.88 494.548 1383.14 496.688C1384.19 498.657 1384.89 500.71 1385.63 502.812C1386.27 504.42 1387.06 505.817 1387.96 507.295C1389.37 509.836 1389.37 509.836 1389.37 512.963C1389.89 512.963 1390.41 512.963 1390.94 512.963C1391.07 512.546 1391.2 512.129 1391.34 511.699C1392.43 508.342 1393.63 505.107 1395.04 501.871C1396.89 497.26 1396.16 494.55 1394.26 490.095C1392.71 486.742 1391.04 483.455 1389.34 480.178C1388.59 478.563 1388.59 478.563 1388.59 476.999C1386.79 476.999 1384.98 476.999 1383.12 476.999C1383.12 475.967 1383.12 474.935 1383.12 473.872C1394.21 473.872 1405.31 473.872 1416.74 473.872C1416.74 474.904 1416.74 475.936 1416.74 476.999C1415.19 477.257 1413.64 477.515 1412.05 477.781C1412.35 478.367 1412.65 478.954 1412.96 479.558C1415.27 484.085 1417.36 488.596 1419.19 493.335C1420 495.318 1421.1 497.058 1422.21 498.89C1422.76 500.399 1423.32 501.909 1423.86 503.423C1425.1 506.493 1426.79 509.326 1428.47 512.182C1430.18 508.116 1431.69 504.194 1432.66 499.877C1433.32 497.524 1434.21 495.298 1435.11 493.027C1438.29 485.6 1438.29 485.6 1437.85 477.781C1436.56 477.523 1435.27 477.265 1433.94 476.999C1433.94 475.967 1433.94 474.935 1433.94 473.872C1439.36 473.872 1444.77 473.872 1450.36 473.872C1450.36 474.904 1450.36 475.936 1450.36 476.999C1448.29 477.515 1446.23 478.031 1444.1 478.563C1444.01 479.103 1443.92 479.643 1443.82 480.2C1443.26 482.754 1442.42 485.1 1441.51 487.554C1440.15 491.294 1438.89 495.027 1437.75 498.841C1436.69 502.372 1435.39 505.665 1433.94 509.054C1433.48 510.467 1433.05 511.885 1432.62 513.305C1431.03 518.559 1429.35 523.778 1427.63 528.991C1427.37 529.813 1427.1 530.635 1426.83 531.481C1426.57 532.264 1426.31 533.047 1426.04 533.853C1425.81 534.554 1425.58 535.255 1425.35 535.977C1424.49 538.149 1423.58 539.996 1422.21 541.891C1419.72 542.136 1419.72 542.136 1417.52 541.891C1416.67 539.97 1415.82 538.048 1414.98 536.125C1414.73 535.553 1414.48 534.98 1414.22 534.39C1412.87 531.326 1411.58 528.255 1410.39 525.131C1409.14 521.947 1407.57 519.063 1405.86 516.106C1404.78 514.092 1404.14 512.013 1403.45 509.836C1402.65 508.184 1401.81 506.558 1400.95 504.937C1400.32 503.581 1400.32 503.581 1400.32 502.018C1399.8 502.018 1399.29 502.018 1398.76 502.018C1398.68 502.421 1398.59 502.824 1398.51 503.239C1397.94 505.274 1397.12 507.138 1396.27 509.069C1395.59 510.706 1395.04 512.353 1394.5 514.038C1393.53 517.038 1392.33 519.857 1391.02 522.724C1388.28 528.968 1385.99 535.403 1383.9 541.891C1382.09 541.891 1380.29 541.891 1378.43 541.891C1374.32 533.878 1370.49 525.759 1366.76 517.557C1364.42 512.403 1361.96 507.321 1359.39 502.277C1357.47 498.498 1355.84 494.645 1354.26 490.715C1353.51 488.968 1352.69 487.411 1351.7 485.795C1350.05 482.84 1349.41 480.296 1348.72 476.999C1346.4 476.999 1344.07 476.999 1341.68 476.999C1341.68 475.967 1341.68 474.935 1341.68 473.872Z" fill="black"/>
<path d="M848.245 604.096C852.582 608.299 853.945 614.303 854.218 620.174C854.239 621.89 854.245 623.606 854.237 625.322C854.246 626.237 854.256 627.153 854.265 628.096C854.293 630.993 854.3 633.89 854.304 636.787C854.317 639.7 854.334 642.614 854.36 645.527C854.376 647.332 854.383 649.138 854.382 650.944C854.387 651.761 854.392 652.578 854.398 653.42C854.399 654.135 854.4 654.851 854.401 655.588C854.621 657.839 855.127 659.502 856.161 661.512C858.084 662.137 859.626 662.294 861.634 662.294C861.731 661.568 861.828 660.843 861.927 660.095C862.416 657.603 862.416 657.603 863.98 655.257C864.754 655.257 865.528 655.257 866.325 655.257C866.562 661.403 866.562 661.403 864.762 663.858C858.624 669.586 853.517 669.749 845.533 669.578C839.153 669.257 834.952 666.532 830.361 662.294C830.103 662.81 829.845 663.326 829.579 663.858C828.074 664.704 826.537 665.495 824.986 666.252C824.149 666.664 823.313 667.076 822.451 667.501C816.392 670.317 807.944 670.371 801.482 668.5C795.696 666.128 791.149 662.436 788.655 656.662C786.671 651.23 786.378 645.661 788.242 640.131C790.419 635.544 792.483 632.238 796.742 629.457C797.596 628.892 798.451 628.328 799.332 627.747C805.747 624.291 812.752 624.566 819.855 624.668C820.793 624.675 821.73 624.682 822.697 624.689C824.991 624.708 827.285 624.733 829.579 624.766C829.469 622.257 829.354 619.749 829.237 617.241C829.206 616.534 829.175 615.828 829.144 615.1C828.991 609.706 828.991 609.706 828.015 604.438C825.448 602.243 822.205 602.666 818.975 602.679C818.45 602.673 817.924 602.667 817.383 602.661C814.502 602.672 813.273 602.799 810.815 604.438C811.331 604.954 811.847 605.47 812.379 606.002C814.378 609 814.531 611.096 813.942 614.602C812.976 616.823 812.179 618.058 810.277 619.537C806.227 620.741 803.284 620.61 799.576 618.755C797.351 616.796 796.55 615.922 795.96 613.038C795.915 609.892 796.376 607.467 797.866 604.682C809.937 593.788 835.433 594.736 848.245 604.096ZM815.262 632.633C810.71 640.556 811.647 651.405 813.447 660.034C813.875 661.678 813.875 661.678 815.506 663.076C818.834 664.185 820.938 663.716 824.106 662.294C826.299 660.754 828.359 659.261 829.579 656.821C829.647 654.711 829.669 652.621 829.655 650.511C829.654 649.889 829.653 649.266 829.652 648.625C829.648 646.633 829.638 644.642 829.628 642.65C829.624 641.301 829.62 639.953 829.617 638.604C829.608 635.294 829.595 631.985 829.579 628.675C828.468 628.65 827.358 628.632 826.247 628.617C825.628 628.606 825.01 628.595 824.373 628.584C820.66 628.768 817.99 630.199 815.262 632.633Z" fill="black"/>
<path d="M1323.7 476.217C1323.7 476.733 1323.7 477.249 1323.7 477.781C1324.15 477.958 1324.6 478.136 1325.07 478.318C1329 480.615 1330.47 484.053 1331.81 488.212C1332.72 492.068 1332.64 495.932 1332.64 499.877C1332.66 501.225 1332.66 501.225 1332.68 502.6C1332.71 505.452 1332.72 508.304 1332.74 511.155C1332.76 514.016 1332.78 516.876 1332.81 519.736C1332.83 521.51 1332.84 523.284 1332.85 525.059C1332.89 529.144 1332.99 532.604 1334.64 536.419C1336.19 536.419 1337.74 536.419 1339.34 536.419C1340.37 534.354 1341.4 532.29 1342.46 530.164C1343.24 530.164 1344.01 530.164 1344.81 530.164C1344.91 535.343 1344.91 535.343 1344.03 537.982C1342.84 539.21 1342.84 539.21 1341.39 540.425C1340.91 540.831 1340.44 541.236 1339.95 541.653C1336.23 544.37 1331.42 543.66 1327.02 543.699C1325.76 543.733 1325.76 543.733 1324.48 543.768C1318.14 543.819 1314.8 542.937 1310.07 538.569C1309.46 537.891 1309.46 537.891 1308.84 537.2C1308.04 537.779 1308.04 537.779 1307.22 538.37C1306.51 538.871 1305.81 539.372 1305.08 539.888C1304.38 540.387 1303.68 540.886 1302.97 541.4C1298.79 544.14 1294.42 543.685 1289.59 543.748C1288.77 543.777 1287.94 543.807 1287.09 543.837C1281.35 543.901 1277.59 542.864 1272.88 539.546C1272.88 539.03 1272.88 538.514 1272.88 537.982C1272.18 537.692 1272.18 537.692 1271.46 537.396C1268.44 535.671 1267.59 533.827 1266.48 530.555C1264.87 523.214 1265.13 515.609 1269.11 509.106C1273.59 503.211 1280.61 500.678 1287.73 499.672C1291.27 499.497 1294.8 499.524 1298.34 499.575C1299.28 499.582 1300.21 499.589 1301.18 499.596C1303.47 499.614 1305.77 499.64 1308.06 499.672C1308 497.196 1307.91 494.72 1307.82 492.245C1307.79 491.205 1307.79 491.205 1307.76 490.144C1307.74 489.458 1307.71 488.773 1307.68 488.067C1307.66 487.445 1307.64 486.822 1307.62 486.181C1307.23 483.275 1307.23 483.275 1304.94 477.781C1300.03 477.781 1295.13 477.781 1290.08 477.781C1289.82 480.128 1289.82 480.128 1291.25 481.446C1292.94 484.049 1292.86 486.531 1292.43 489.508C1290.94 493.005 1290.94 493.005 1288.76 494.053C1280.15 494.751 1280.15 494.751 1276.79 492.636C1274.82 489.886 1274.44 488.258 1274.44 484.866C1275.14 481.28 1276.19 478.503 1279.13 476.217C1293.17 470.56 1309.56 471.119 1323.7 476.217ZM1293.75 507.784C1290.51 512.819 1290.6 517.248 1290.62 523.078C1290.61 523.916 1290.59 524.754 1290.58 525.618C1290.58 530.019 1290.59 533.465 1293.21 537.2C1295.24 538.659 1295.24 538.659 1297.9 538.764C1302.44 537.542 1305.49 535.724 1308.06 531.728C1308.33 529.442 1308.43 527.464 1308.37 525.189C1308.36 524.57 1308.36 523.95 1308.35 523.312C1308.34 521.345 1308.3 519.378 1308.26 517.41C1308.24 516.072 1308.23 514.734 1308.22 513.396C1308.18 510.124 1308.13 506.853 1308.06 503.581C1306.95 503.556 1305.84 503.538 1304.73 503.523C1304.11 503.513 1303.49 503.502 1302.86 503.491C1299.04 503.68 1296.37 505.089 1293.75 507.784Z" fill="black"/>
<path d="M1504.3 476.217C1504.3 476.733 1504.3 477.249 1504.3 477.781C1504.75 477.958 1505.21 478.136 1505.67 478.318C1509.61 480.615 1511.08 484.053 1512.41 488.212C1513.32 492.068 1513.25 495.932 1513.25 499.877C1513.26 501.225 1513.26 501.225 1513.28 502.6C1513.31 505.452 1513.33 508.304 1513.34 511.155C1513.36 514.016 1513.38 516.876 1513.42 519.736C1513.43 521.51 1513.45 523.284 1513.45 525.059C1513.49 529.144 1513.59 532.604 1515.25 536.419C1516.8 536.419 1518.35 536.419 1519.94 536.419C1520.97 534.354 1522 532.29 1523.07 530.164C1523.84 530.164 1524.62 530.164 1525.41 530.164C1525.51 535.343 1525.51 535.343 1524.63 537.982C1523.44 539.21 1523.44 539.21 1521.99 540.425C1521.52 540.831 1521.05 541.236 1520.56 541.653C1516.83 544.37 1512.03 543.66 1507.63 543.699C1506.37 543.733 1506.37 543.733 1505.09 543.768C1498.74 543.819 1495.4 542.937 1490.67 538.569C1490.07 537.891 1490.07 537.891 1489.45 537.2C1488.64 537.779 1488.64 537.779 1487.82 538.37C1487.12 538.871 1486.41 539.372 1485.69 539.888C1484.99 540.387 1484.29 540.886 1483.57 541.4C1479.38 544.148 1474.99 543.685 1470.15 543.748C1469.31 543.777 1468.48 543.807 1467.63 543.837C1462 543.899 1458.68 543.021 1454.27 539.546C1453.01 538.723 1453.01 538.723 1451.72 537.884C1447.57 533.545 1446.29 528.206 1446.06 522.297C1446.3 516.258 1447.97 511.272 1452.12 506.806C1459.85 499.811 1468.96 499.431 1478.94 499.575C1479.88 499.582 1480.82 499.589 1481.78 499.596C1484.08 499.614 1486.37 499.64 1488.67 499.672C1488.6 497.196 1488.51 494.72 1488.42 492.245C1488.4 491.205 1488.4 491.205 1488.37 490.144C1488.34 489.458 1488.31 488.773 1488.28 488.067C1488.26 487.445 1488.24 486.822 1488.22 486.181C1487.84 483.275 1487.84 483.275 1485.54 477.781C1480.64 477.781 1475.74 477.781 1470.68 477.781C1470.42 480.128 1470.42 480.128 1471.86 481.446C1473.55 484.049 1473.47 486.531 1473.03 489.508C1471.54 493.005 1471.54 493.005 1469.37 494.053C1460.76 494.751 1460.76 494.751 1457.39 492.636C1455.43 489.886 1455.05 488.258 1455.05 484.866C1455.74 481.28 1456.8 478.503 1459.74 476.217C1473.78 470.56 1490.16 471.119 1504.3 476.217ZM1474.35 507.784C1471.11 512.819 1471.2 517.248 1471.22 523.078C1471.21 523.916 1471.2 524.754 1471.18 525.618C1471.18 530.019 1471.19 533.465 1473.81 537.2C1475.84 538.659 1475.84 538.659 1478.5 538.764C1483.04 537.542 1486.09 535.724 1488.67 531.728C1488.93 529.442 1489.03 527.464 1488.97 525.189C1488.97 524.57 1488.96 523.95 1488.96 523.312C1488.94 521.345 1488.9 519.378 1488.86 517.41C1488.85 516.072 1488.83 514.734 1488.82 513.396C1488.78 510.124 1488.73 506.853 1488.67 503.581C1487.56 503.556 1486.45 503.538 1485.33 503.523C1484.72 503.513 1484.1 503.502 1483.46 503.491C1479.65 503.68 1476.97 505.089 1474.35 507.784Z" fill="black"/>
<path d="M1169.68 602.874C1172.8 606.24 1172.8 606.24 1172.8 608.347C1173.32 608.347 1173.84 608.347 1174.37 608.347C1175.86 614.028 1176.17 619.31 1176.2 625.169C1176.21 626.087 1176.22 627.005 1176.24 627.95C1176.28 631.852 1176.32 635.754 1176.35 639.657C1176.37 642.516 1176.41 645.374 1176.45 648.233C1176.45 649.555 1176.45 649.555 1176.46 650.904C1176.47 651.726 1176.48 652.548 1176.49 653.395C1176.5 654.475 1176.5 654.475 1176.51 655.577C1176.74 657.828 1177.25 659.498 1178.28 661.512C1180.15 662.421 1180.15 662.421 1182.19 662.294C1184.78 660.661 1185.28 658.088 1186.1 655.257C1186.87 655.257 1187.64 655.257 1188.44 655.257C1188.67 659.179 1188.55 661.51 1186.1 664.639C1181.46 668.908 1177.46 669.6 1171.39 669.575C1170.79 669.587 1170.19 669.6 1169.57 669.613C1165.2 669.617 1161.96 668.718 1157.95 666.985C1157.95 666.469 1157.95 665.953 1157.95 665.421C1155.68 664.439 1154.2 663.858 1151.7 663.858C1150.11 664.578 1148.55 665.35 1147 666.154C1140.07 669.748 1132.75 670.586 1125.09 668.769C1123.17 668.035 1121.43 667.21 1119.64 666.203C1119.13 665.929 1118.62 665.655 1118.09 665.372C1113.44 662.513 1111.17 657.979 1109.48 652.912C1108.93 646.463 1109.33 641.359 1112.6 635.712C1113.12 635.712 1113.64 635.712 1114.17 635.712C1114.25 635.244 1114.33 634.776 1114.41 634.294C1115.33 631.384 1116.94 630.425 1119.61 629.011C1120.49 628.61 1121.37 628.209 1122.28 627.795C1123.16 627.39 1124.03 626.985 1124.94 626.568C1128.82 624.998 1132.19 624.67 1136.37 624.689C1137.78 624.693 1137.78 624.693 1139.21 624.697C1140.19 624.704 1141.16 624.71 1142.17 624.717C1143.16 624.721 1144.14 624.724 1145.16 624.728C1147.6 624.737 1150.04 624.75 1152.48 624.766C1152.39 622.257 1152.29 619.749 1152.18 617.241C1152.16 616.534 1152.14 615.828 1152.11 615.1C1151.88 609.608 1151.88 609.608 1150.13 604.438C1147.58 602.379 1144.7 602.666 1141.53 602.679C1140.1 602.673 1140.1 602.673 1138.65 602.667C1136.25 602.859 1134.94 603.176 1132.93 604.438C1133.9 605.212 1133.9 605.212 1134.89 606.002C1136.95 608.476 1137.43 609.821 1137.23 613.038C1136.53 615.837 1134.98 617.296 1132.93 619.293C1130.43 620.546 1127.84 620.348 1125.11 620.075C1122.13 619.082 1120.84 618.478 1119.3 615.726C1118.7 612.083 1118.71 608.807 1119.64 605.22C1121.2 603.363 1121.2 603.363 1123.55 602.093C1124.04 601.823 1124.53 601.552 1125.04 601.274C1138 594.782 1157.17 595.892 1169.68 602.874ZM1136.84 633.366C1133.66 642.063 1133.24 651.799 1136.03 660.654C1136.78 662.511 1136.78 662.511 1138.99 663.711C1141.98 663.884 1144.2 663.304 1147 662.294C1147 661.778 1147 661.262 1147 660.73C1147.47 660.521 1147.94 660.311 1148.42 660.095C1150.29 659.078 1151.24 658.562 1152.48 656.821C1152.68 654.632 1152.75 652.621 1152.71 650.435C1152.7 649.503 1152.7 649.503 1152.7 648.552C1152.68 646.568 1152.65 644.585 1152.62 642.601C1152.61 641.256 1152.6 639.911 1152.59 638.566C1152.57 635.268 1152.53 631.972 1152.48 628.675C1151.25 628.635 1150.02 628.607 1148.79 628.583C1148.1 628.566 1147.42 628.549 1146.71 628.532C1142.81 628.804 1139.57 630.632 1136.84 633.366Z" fill="black"/>
<path d="M922.618 563.001C922.618 563.517 922.618 564.033 922.618 564.565C923.392 564.823 924.166 565.081 924.963 565.346C926.202 567.825 925.975 570.46 925.745 573.165C924.963 575.119 924.963 575.119 924.181 576.292C923.665 576.292 923.149 576.292 922.618 576.292C922.618 576.808 922.618 577.324 922.618 577.856C920.122 579.103 917.514 578.934 914.799 578.638C912.503 577.612 912.503 577.612 910.89 576.292C909.724 572.795 909.724 569.625 910.89 566.128C911.406 565.612 911.922 565.096 912.454 564.565C908.821 564.944 908.821 564.944 905.417 566.128C904.551 570.388 904.661 573.868 905.368 578.149C906.501 585.081 906.333 591.96 906.199 598.965C908.779 598.965 911.359 598.965 914.017 598.965C914.017 600.255 914.017 601.545 914.017 602.875C911.437 602.875 908.857 602.875 906.199 602.875C906.199 622.999 906.199 643.123 906.199 663.858C908.779 663.858 911.359 663.858 914.017 663.858C914.017 664.89 914.017 665.922 914.017 666.985C900.343 666.985 886.669 666.985 872.58 666.985C872.58 665.953 872.58 664.921 872.58 663.858C875.418 663.858 878.256 663.858 881.18 663.858C881.18 643.733 881.18 623.609 881.18 602.875C878.342 602.875 875.504 602.875 872.58 602.875C872.58 601.585 872.58 600.295 872.58 598.965C875.418 598.965 878.256 598.965 881.18 598.965C881.163 597.956 881.146 596.946 881.128 595.905C881.144 584.431 883.017 574.727 891.149 566.226C900.613 560.038 912.423 556.476 922.618 563.001Z" fill="black"/>
<path d="M839.743 438.689C841.656 441.636 841.756 444.648 841.307 448.071C840.027 450.874 839.204 451.819 836.616 453.544C832.626 453.994 832.626 453.994 830.361 453.544C828.064 451.638 828.064 451.638 826.452 449.635C826.194 449.377 825.936 449.119 825.67 448.853C825.377 446.312 825.377 446.312 825.67 443.38C827.625 441.084 827.625 441.084 829.579 439.471C828.104 439.423 828.104 439.423 826.599 439.373C826.045 439.355 825.492 439.337 824.922 439.318C823.079 439.367 823.079 439.367 820.979 441.035C820.055 445.299 820.227 448.764 820.93 453.055C822.063 459.988 821.895 466.866 821.761 473.872C824.341 473.872 826.921 473.872 829.579 473.872C829.579 474.904 829.579 475.936 829.579 476.999C826.999 476.999 824.419 476.999 821.761 476.999C821.761 497.382 821.761 517.764 821.761 538.764C824.341 538.764 826.921 538.764 829.579 538.764C829.579 539.796 829.579 540.828 829.579 541.891C816.163 541.891 802.747 541.891 788.924 541.891C788.924 540.859 788.924 539.827 788.924 538.764C791.504 538.764 794.084 538.764 796.742 538.764C796.742 518.382 796.742 497.999 796.742 476.999C794.162 476.999 791.582 476.999 788.924 476.999C788.924 475.967 788.924 474.935 788.924 473.872C791.504 473.872 794.084 473.872 796.742 473.872C796.71 472.92 796.678 471.969 796.644 470.989C796.693 460.7 798.7 449.179 806.112 441.542C815.126 434.17 830.006 431.184 839.743 438.689Z" fill="black"/>
<path d="M996.388 351.86C998.478 353.359 1000.45 354.888 1002.37 356.597C1002.83 356.999 1003.29 357.401 1003.77 357.815C1004.71 358.942 1004.71 358.942 1004.71 361.288C1005.23 361.288 1005.74 361.288 1006.27 361.288C1010.2 367.09 1010.6 371.056 1011.75 378.488C996.783 378.488 981.819 378.488 966.401 378.488C966.788 394.355 966.788 394.355 967.183 410.543C967.699 410.543 968.215 410.543 968.746 410.543C969.196 411.051 969.645 411.559 970.108 412.083C972.96 414.648 975.695 414.088 979.377 413.988C982.639 413.599 985.257 412.655 988.197 411.227C989.856 410.543 989.856 410.543 992.983 410.543C992.983 410.027 992.983 409.511 992.983 408.98C993.789 408.431 994.596 407.883 995.426 407.318C1000.21 404.037 1003.14 399.361 1005.49 394.125C1006.78 394.125 1008.07 394.125 1009.4 394.125C1009.27 400.322 1005.82 404.717 1001.56 409.022C1000.05 410.378 998.498 411.645 996.892 412.889C996.183 413.469 995.473 414.05 994.742 414.648C984.941 419.926 971.768 419.819 961.252 416.734C958.753 415.784 956.772 414.538 954.673 412.889C953.931 412.47 953.19 412.05 952.425 411.618C945.113 406.061 941.249 398.399 939.818 389.434C939.121 380.055 939.492 370.638 944.977 362.58C946.068 361.317 947.238 360.123 948.419 358.942C948.686 358.405 948.953 357.868 949.228 357.314C950.307 355.168 951.802 354.609 953.891 353.469C954.588 352.965 955.284 352.462 956.002 351.942C958.761 350.231 961.37 349.322 964.495 348.583C965.319 348.387 965.319 348.387 966.16 348.187C976.199 345.959 987.335 346.622 996.388 351.86ZM967.183 355.033C966.183 357.032 966.312 358.448 966.324 360.683C966.326 361.409 966.328 362.136 966.33 362.884C966.337 363.808 966.345 364.733 966.352 365.686C966.368 368.62 966.384 371.555 966.401 374.579C972.593 374.579 978.785 374.579 985.165 374.579C985.667 362.909 985.667 362.909 981.598 352.248C976.227 349.08 971.156 350.754 967.183 355.033Z" fill="black"/>
<path d="M1203.3 477.781C1208.76 482.117 1213.07 486.303 1215.56 492.929C1215.89 493.774 1216.21 494.618 1216.55 495.488C1217.37 498.109 1217.37 498.109 1218.15 503.581C1202.93 503.581 1187.71 503.581 1172.02 503.581C1172.14 510.136 1172.14 510.136 1172.27 516.824C1172.29 518.188 1172.31 519.553 1172.33 520.959C1172.44 529.729 1172.44 529.729 1175.15 537.982C1181.77 540.374 1189.88 538.856 1196.26 536.419C1198.59 535.223 1200.53 534.137 1201.73 531.728C1202.2 531.534 1202.67 531.341 1203.15 531.141C1205.59 529.746 1206.52 527.85 1207.99 525.473C1211.16 520.319 1211.16 520.319 1214.24 519.218C1215.21 521.935 1214.87 523.287 1213.66 525.864C1211.41 530.568 1211.41 530.568 1209.55 532.509C1209.04 532.509 1208.52 532.509 1207.99 532.509C1207.79 532.977 1207.6 533.445 1207.4 533.926C1206.26 535.92 1205.21 536.727 1203.3 537.982C1202.75 538.353 1202.2 538.724 1201.63 539.106C1194.81 542.816 1189.18 543.954 1181.4 543.846C1180.54 543.858 1179.67 543.87 1178.77 543.883C1170.76 543.845 1163.36 541.735 1157.51 536.028C1156.57 535.06 1156.57 535.06 1155.6 534.073C1155.06 533.702 1154.51 533.331 1153.94 532.949C1151.92 531.26 1151.22 529.435 1150.13 527.037C1149.73 526.293 1149.73 526.293 1149.32 525.534C1149.04 525.014 1148.76 524.494 1148.47 523.958C1148.08 523.246 1148.08 523.246 1147.68 522.52C1144.69 514.845 1144.79 501.104 1147.79 493.418C1149.43 490.412 1151.26 487.599 1153.26 484.817C1153.65 484.219 1154.05 483.62 1154.46 483.003C1154.84 482.57 1155.21 482.137 1155.6 481.69C1156.38 481.69 1157.15 481.69 1157.95 481.69C1158.15 481.207 1158.35 480.725 1158.56 480.227C1161.07 475.854 1168.2 474.388 1172.8 473.09C1182.61 470.77 1194.82 472.016 1203.3 477.781ZM1175.15 477.781C1171.67 482.359 1171.63 486.2 1171.83 491.805C1171.89 494.401 1171.96 496.997 1172.02 499.672C1178.22 499.672 1184.41 499.672 1190.79 499.672C1190.85 496.931 1190.92 494.19 1190.98 491.365C1191.03 490.082 1191.03 490.082 1191.07 488.774C1191.12 484.084 1190.88 481.296 1187.66 477.781C1183.15 475.757 1179.72 475.936 1175.15 477.781Z" fill="black"/>
<path d="M1565.29 470.744C1565.67 475.388 1565.67 475.388 1566.07 480.126C1566.6 479.546 1567.13 478.965 1567.68 478.367C1571.65 474.397 1576.28 472.234 1581.9 472.112C1587.3 472.183 1591.92 473.925 1595.78 477.781C1597.64 480.975 1597.78 484.329 1597.34 487.945C1596.3 491.138 1595.29 492.401 1592.65 494.493C1588.9 496.382 1585.01 496.362 1580.92 495.763C1578.63 494.975 1577.4 494.165 1575.45 492.636C1574.2 489.174 1574.32 485.314 1574.67 481.69C1575.84 479.247 1575.84 479.247 1577.01 477.781C1571.88 479.024 1568.85 483.765 1566.07 487.945C1565.81 490.237 1565.81 490.237 1565.82 492.876C1565.8 493.893 1565.79 494.91 1565.77 495.959C1565.76 497.069 1565.75 498.18 1565.74 499.29C1565.73 500.426 1565.71 501.562 1565.7 502.698C1565.66 505.687 1565.63 508.675 1565.6 511.664C1565.57 514.714 1565.53 517.764 1565.49 520.814C1565.41 526.797 1565.35 532.78 1565.29 538.764C1567.87 538.764 1570.45 538.764 1573.1 538.764C1573.1 539.796 1573.1 540.828 1573.1 541.891C1559.43 541.891 1545.76 541.891 1531.67 541.891C1531.67 540.859 1531.67 539.827 1531.67 538.764C1534.51 538.764 1537.34 538.764 1540.27 538.764C1540.27 518.639 1540.27 498.515 1540.27 477.781C1539.24 478.039 1538.2 478.297 1537.14 478.563C1535.32 478.593 1533.49 478.598 1531.67 478.563C1531.67 477.531 1531.67 476.499 1531.67 475.435C1535.07 474.757 1538.48 474.089 1541.88 473.431C1543.04 473.206 1544.19 472.979 1545.35 472.748C1552.06 471.411 1558.41 470.455 1565.29 470.744Z" fill="black"/>
<path d="M1109.48 470.744C1109.86 475.388 1109.86 475.388 1110.26 480.126C1110.79 479.546 1111.32 478.965 1111.87 478.367C1115.84 474.397 1120.47 472.234 1126.09 472.112C1131.49 472.183 1136.11 473.925 1139.97 477.781C1141.83 480.975 1141.97 484.329 1141.53 487.945C1140.49 491.138 1139.48 492.401 1136.84 494.493C1133.09 496.382 1129.2 496.362 1125.11 495.763C1122.82 494.975 1121.59 494.165 1119.64 492.636C1118.39 489.174 1118.51 485.314 1118.86 481.69C1120.03 479.247 1120.03 479.247 1121.2 477.781C1116.07 479.024 1113.04 483.765 1110.26 487.945C1110 490.237 1110 490.237 1110.01 492.876C1109.99 493.893 1109.98 494.91 1109.96 495.959C1109.95 497.069 1109.94 498.18 1109.93 499.29C1109.92 500.426 1109.9 501.562 1109.89 502.698C1109.85 505.687 1109.82 508.675 1109.79 511.664C1109.76 514.714 1109.72 517.764 1109.68 520.814C1109.6 526.797 1109.54 532.78 1109.48 538.764C1112.06 538.764 1114.64 538.764 1117.29 538.764C1117.29 539.796 1117.29 540.828 1117.29 541.891C1103.62 541.891 1089.95 541.891 1075.86 541.891C1075.86 540.859 1075.86 539.827 1075.86 538.764C1078.7 538.764 1081.53 538.764 1084.46 538.764C1084.46 518.639 1084.46 498.515 1084.46 477.781C1083.43 478.039 1082.39 478.297 1081.33 478.563C1079.51 478.593 1077.68 478.598 1075.86 478.563C1075.86 477.531 1075.86 476.499 1075.86 475.435C1079.26 474.757 1082.67 474.089 1086.07 473.431C1087.23 473.206 1088.38 472.979 1089.54 472.748C1096.25 471.411 1102.6 470.455 1109.48 470.744Z" fill="black"/>
<path d="M954.673 595.838C955.06 600.482 955.06 600.482 955.454 605.22C955.97 604.446 956.486 603.672 957.018 602.874C957.792 602.616 958.566 602.358 959.364 602.093C960.146 601.312 960.928 600.53 961.709 599.747C967.319 597.136 972.374 596.344 978.323 598.379C981.869 599.898 984.482 601.444 986.19 605.024C987.399 610.738 987.086 613.934 984.056 618.85C981.553 621.327 977.952 620.98 974.609 621.003C973.892 621.014 973.174 621.025 972.435 621.037C970.117 620.84 968.473 620.339 966.4 619.293C963.575 615.396 963.658 611.408 964.055 606.784C964.289 605.735 964.541 604.689 964.836 603.656C962.052 604.799 960.644 606.266 958.826 608.64C958.355 609.243 957.885 609.846 957.4 610.467C955.358 613.607 955.346 616.495 955.294 620.189C955.278 621.159 955.263 622.129 955.247 623.129C955.233 624.183 955.22 625.238 955.207 626.293C955.191 627.375 955.174 628.457 955.158 629.54C955.115 632.383 955.076 635.226 955.038 638.069C954.999 640.973 954.955 643.876 954.912 646.779C954.828 652.472 954.749 658.165 954.673 663.858C957.253 663.858 959.833 663.858 962.491 663.858C962.491 664.89 962.491 665.922 962.491 666.985C949.075 666.985 935.658 666.985 921.835 666.985C921.835 665.953 921.835 664.921 921.835 663.858C924.416 663.858 926.996 663.858 929.654 663.858C929.654 643.991 929.654 624.125 929.654 603.656C927.074 603.656 924.494 603.656 921.835 603.656C921.835 602.624 921.835 601.592 921.835 600.529C945.465 595.838 945.465 595.838 954.673 595.838Z" fill="black"/>
<path d="M1734.16 476.217C1734.36 475.717 1734.55 475.218 1734.75 474.702C1735.73 473.09 1735.73 473.09 1738.85 472.308C1738.85 478.758 1738.85 485.208 1738.85 491.854C1737.82 491.854 1736.79 491.854 1735.73 491.854C1735.5 491.004 1735.5 491.004 1735.26 490.138C1733.77 485.328 1732.37 482.165 1728.06 479.412C1722.59 476.707 1716.63 476.304 1710.71 477.781C1708.23 479.705 1706.97 481.439 1705.23 484.036C1705.34 487.009 1705.57 488.891 1707.34 491.316C1712.09 494.785 1717.87 494.658 1723.52 495.009C1729.09 495.459 1733.87 496.805 1738.31 500.317C1743.55 506.529 1744.84 512.175 1744.65 520.281C1743.9 526.856 1741.46 533.474 1736.51 537.982C1729.87 542.477 1725.23 543.644 1717.3 543.748C1716.49 543.778 1715.67 543.807 1714.82 543.837C1709.57 543.896 1705.99 543.123 1701.44 540.467C1699.82 539.578 1698.43 539.121 1696.63 538.764C1696.04 539.538 1695.44 540.312 1694.83 541.11C1693.81 542.429 1693.81 542.429 1692.73 543.455C1691.95 543.455 1691.18 543.455 1690.38 543.455C1690.38 535.457 1690.38 527.459 1690.38 519.218C1691.67 519.476 1692.96 519.734 1694.29 520C1695.53 522.245 1695.53 522.245 1696.49 525.033C1696.82 525.951 1697.14 526.869 1697.48 527.815C1698.2 530.164 1698.2 530.164 1698.2 531.728C1698.9 532.018 1698.9 532.018 1699.62 532.314C1701.33 533.291 1701.33 533.291 1702.35 534.806C1704.98 538.02 1709.1 538.887 1713.05 539.546C1718.3 539.96 1724.09 540.117 1728.69 537.2C1730.58 533.184 1730.9 529.186 1729.62 524.935C1725.76 520.861 1719.6 520.732 1714.27 520.489C1707.39 520.087 1700.94 517.726 1695.85 512.964C1695.85 512.19 1695.85 511.416 1695.85 510.618C1695.08 510.36 1694.3 510.102 1693.51 509.836C1689.86 504.236 1689.45 497.524 1690.38 491.072C1692.4 484.808 1695.72 479.756 1701.33 476.217C1712.75 470.533 1722.66 471.818 1734.16 476.217Z" fill="black"/>
<path d="M1098.53 603.657C1101.69 606.927 1102.3 611.002 1102.44 615.384C1101.83 618.825 1100.57 621.122 1097.72 623.261C1094.44 624.804 1091.08 624.718 1087.58 623.984C1084.86 622.416 1082.74 620.555 1081.33 617.73C1081 610.875 1081 610.875 1082.89 608.348C1086.28 605.22 1086.28 605.22 1089.15 605.22C1089.15 604.704 1089.15 604.188 1089.15 603.657C1087.33 603.373 1085.5 603.118 1083.68 602.875C1083 602.773 1082.32 602.671 1081.62 602.566C1076.61 601.932 1073.31 602.033 1068.82 604.439C1062.71 611.563 1063.94 624.623 1063.93 633.366C1063.93 633.902 1063.93 634.438 1063.93 634.99C1063.34 649.572 1063.34 649.572 1068.82 662.294C1074.26 665.012 1080.74 664.425 1086.41 662.734C1087.59 662.339 1088.76 661.933 1089.93 661.513C1090.7 661.255 1091.48 660.997 1092.28 660.731C1092.28 660.215 1092.28 659.699 1092.28 659.167C1093 658.699 1093.73 658.232 1094.47 657.75C1097 656.018 1097.86 654.743 1099.31 652.131C1099.83 652.131 1100.34 652.131 1100.88 652.131C1101.65 649.808 1102.42 647.486 1103.22 645.094C1104.25 645.094 1105.29 645.094 1106.35 645.094C1106.99 649.948 1104.9 653.577 1102.44 657.603C1100.44 659.9 1100.44 659.9 1098.53 661.513C1097.98 661.98 1097.43 662.448 1096.87 662.93C1095.4 663.858 1095.4 663.858 1093.06 663.858C1093.06 664.374 1093.06 664.89 1093.06 665.422C1083.28 669.889 1071.57 671.704 1061.21 667.85C1055.12 664.874 1049.79 661.197 1045.37 656.04C1044.97 655.583 1044.58 655.127 1044.17 654.656C1039.13 647.043 1037.51 636.381 1038.82 627.503C1040.94 617.918 1045.11 610.078 1053.12 604.1C1054.45 603.315 1054.45 603.315 1057.09 602.093C1057.58 601.824 1058.07 601.555 1058.57 601.278C1070.93 594.541 1086.92 596.019 1098.53 603.657Z" fill="black"/>
<path d="M817.07 322.978C818.102 322.978 819.134 322.978 820.197 322.978C820.197 331.492 820.197 340.006 820.197 348.778C824.067 348.778 827.937 348.778 831.924 348.778C831.924 349.81 831.924 350.842 831.924 351.905C828.054 351.905 824.184 351.905 820.197 351.905C820.264 358.002 820.337 364.099 820.422 370.196C820.461 373.027 820.497 375.859 820.527 378.69C820.556 381.428 820.592 384.165 820.633 386.903C820.655 388.445 820.669 389.987 820.682 391.529C820.801 398.812 820.964 405.443 825.67 411.325C828.066 412.523 830.061 412.286 832.706 412.107C835.472 410.975 836.424 410.077 837.984 407.514C838.844 405.363 839.407 403.445 839.743 401.161C841.033 401.419 842.323 401.677 843.652 401.943C843.344 406.764 841.789 410.519 838.961 414.452C833.017 419.569 824.474 418.9 817.07 418.361C810.562 417.544 805.623 415.744 801.433 410.543C796.537 402.742 795.732 395.839 795.807 386.798C795.81 385.799 795.812 384.8 795.814 383.771C795.821 381.133 795.835 378.494 795.853 375.855C795.869 373.156 795.876 370.457 795.884 367.757C795.901 362.473 795.928 357.189 795.96 351.905C793.122 351.905 790.284 351.905 787.36 351.905C787.36 350.873 787.36 349.841 787.36 348.778C788.294 348.734 788.294 348.734 789.247 348.69C793.852 348.404 797.431 348.128 801.433 345.651C802.642 345.119 802.642 345.119 803.876 344.576C806.356 343.174 807.55 341.644 809.251 339.396C809.767 339.396 810.283 339.396 810.815 339.396C810.992 338.783 811.17 338.171 811.352 337.539C812.464 334.469 813.879 331.692 815.411 328.814C816.3 326.859 816.734 325.091 817.07 322.978Z" fill="black"/>
<path d="M958.582 448.071C959.356 448.071 960.13 448.071 960.927 448.071C960.927 456.585 960.927 465.1 960.927 473.872C964.798 473.872 968.668 473.872 972.655 473.872C972.655 474.904 972.655 475.936 972.655 476.999C968.785 476.999 964.915 476.999 960.927 476.999C960.995 483.096 961.068 489.193 961.152 495.289C961.191 498.121 961.227 500.952 961.257 503.784C961.286 506.522 961.323 509.259 961.364 511.997C961.385 513.538 961.399 515.081 961.413 516.623C961.531 523.906 961.694 530.536 966.4 536.419C968.468 537.453 970.057 537.276 972.362 537.249C973.146 537.242 973.93 537.235 974.738 537.228C975.341 537.219 975.943 537.21 976.564 537.201C976.788 536.633 977.012 536.066 977.242 535.481C978.053 533.477 978.906 531.502 979.789 529.529C980.065 528.911 980.342 528.293 980.626 527.657C980.834 527.194 981.041 526.731 981.255 526.255C982.803 526.642 982.803 526.642 984.382 527.037C983.961 531.163 982.996 534.274 981.255 537.982C980.739 537.982 980.223 537.982 979.691 537.982C979.691 538.498 979.691 539.014 979.691 539.546C974.751 543.953 970.578 543.621 964.25 543.651C962.992 543.675 962.992 543.675 961.709 543.7C956.879 543.723 953.467 543.403 949.2 541.11C948.665 540.872 948.13 540.634 947.578 540.389C943.85 538.475 942.353 536.245 940.6 532.51C940.164 531.736 939.729 530.962 939.28 530.164C936.771 524.428 937.37 518.033 937.396 511.892C937.397 510.893 937.398 509.894 937.399 508.865C937.403 506.226 937.41 503.588 937.419 500.949C937.427 498.25 937.43 495.55 937.434 492.851C937.443 487.567 937.456 482.283 937.472 476.999C934.376 476.999 931.28 476.999 928.09 476.999C928.09 475.967 928.09 474.935 928.09 473.872C928.724 473.87 929.358 473.868 930.011 473.866C938.112 473.583 944.246 471.458 949.884 465.467C954.003 460.304 956.408 454.25 958.582 448.071Z" fill="black"/>
<path d="M1025.82 594.274C1025.82 617.237 1025.82 640.199 1025.82 663.858C1028.66 663.858 1031.5 663.858 1034.42 663.858C1034.42 664.89 1034.42 665.922 1034.42 666.985C1020.75 666.985 1007.07 666.985 992.983 666.985C992.983 665.953 992.983 664.921 992.983 663.858C995.821 663.858 998.659 663.858 1001.58 663.858C1001.58 643.217 1001.58 622.577 1001.58 601.311C997.326 602.085 997.326 602.085 992.983 602.875C992.983 601.585 992.983 600.295 992.983 598.965C997.393 597.765 1001.63 597.047 1006.18 596.62C1010.67 596.165 1015.05 595.621 1019.46 594.561C1021.13 594.274 1021.13 594.274 1025.82 594.274Z" fill="black"/>
<path fill-rule="evenodd" clip-rule="evenodd" d="M592.652 308.464L590.337 306.558C537.183 261.401 465.358 239.841 396.116 244.644L394.096 244.793C331.69 249.331 269.049 276.049 224.488 320.473L222.923 322.048C218.848 326.139 214.848 330.264 211.033 334.601L209.583 336.268C192.345 355.44 177.846 376.57 166.779 399.878L165.8 401.942C154.445 425.354 147.08 450.366 142.764 475.992L142.345 478.562C140.202 491.606 139.796 504.555 139.759 517.747L139.755 520.342C139.704 535.209 140.382 549.834 142.851 564.514L143.322 567.154C148.842 598.335 159.047 628.297 174.906 655.777L175.964 657.603C183.07 670.059 191.067 681.937 200.164 693.029C200.961 693.988 201.755 694.95 202.546 695.912C207.236 701.835 212.152 707.332 217.508 712.646L218.721 713.846C224.635 719.732 230.574 725.547 237.033 730.842L239.293 732.659C241.245 734.262 243.202 735.856 245.187 737.42L247.111 738.913C254.105 744.37 261.359 749.387 268.806 754.202L270.566 755.332C299.306 773.784 332.538 785.62 366.009 791.736C437.01 804.318 512.285 789.261 571.632 747.788L573.136 746.732C581.01 741.249 588.619 735.609 595.819 729.26C597.213 728.022 598.614 726.792 600.027 725.576C623.594 705.344 643.862 678.807 658.282 651.425L659.138 649.784C660.749 646.711 662.327 643.625 663.841 640.503C664.358 639.427 664.875 638.351 665.393 637.275C677.284 613.174 684.611 586.826 688.595 560.315C698.846 490.209 681.706 415.285 639.224 358.193L638.029 356.596C633.078 349.924 628.122 343.317 622.453 337.23L620.828 335.486C612.306 325.617 602.698 316.765 592.652 308.464ZM381.649 357.2L379.437 357.231C373.735 357.274 368.037 357.41 362.338 357.623L359.94 357.72L357.606 357.812L355.435 357.912C353.192 358.014 351.691 358.222 349.532 358.941C348.754 359.278 347.983 359.623 347.215 359.966C341.194 362.659 335.401 365.249 328.667 362.899C326.489 361.899 324.551 361.499 322.168 361.287L320.604 362.851C318.932 364.67 317.311 366.353 315.241 367.719C314.17 368.362 313.103 369.013 312.04 369.67L310.44 370.669C305.998 373.347 304.317 376.452 302.573 381.273C301.912 383.327 301.196 385.107 300.276 387.087C298.426 389.185 296.491 390.716 293.78 391.555C289.617 391.991 287.312 393.142 284.294 396.021L283.076 397.251C280.91 399.266 279.208 401.099 277.554 403.555L276.039 405.851C274.211 407.68 272.546 409.409 271.055 411.52C270.389 412.509 269.702 413.485 269.003 414.452C264.747 418.96 263.806 422.1 263.938 428.329C264.025 430.165 264.096 432.002 264.151 433.839L264.223 436.502C264.385 440.29 264.224 442.865 262.427 446.223C258.965 452.616 258.266 457.663 258.521 464.837C259.102 469.918 263.566 474.264 267.396 477.502L267.553 477.627C269.781 479.392 271.173 480.495 272.326 483.204C273.312 487.232 274.22 490.587 277.75 492.977C279.392 494.029 280.791 495.039 282.202 496.392C283.227 497.458 284.261 498.515 285.302 499.565L286.985 501.235C288.81 503.048 290.652 504.717 292.669 506.314C296.381 508.359 300.083 508.096 304.185 507.49C305.355 507.043 305.933 506.822 306.53 506.708C307.112 506.598 307.714 506.589 308.901 506.573C310.376 506.544 311.851 506.514 313.326 506.478C314.954 506.437 316.582 506.401 318.21 506.366C319.835 506.336 321.46 506.304 323.085 506.263L324.632 506.223L324.747 506.22L325.137 506.213H325.137C327.516 506.168 329.497 506.131 331.75 505.189C333.851 504.083 334.902 503.53 335.983 503.041C337.066 502.551 338.177 502.125 340.403 501.272C344.959 499.975 351.382 499.033 355.787 501.235C357.075 503.364 358.368 505.373 359.888 507.347C361.106 508.313 361.859 508.91 362.715 509.247C364.099 509.794 365.751 509.661 370.075 509.314H370.075C373.341 509.029 375.517 509.109 378.46 510.617C378.474 511.172 378.491 511.725 378.507 512.279L378.508 512.284C378.639 516.654 378.77 521.008 377.678 525.277C377.22 527.061 376.881 528.739 376.682 530.573C376.457 536.345 378.313 540.118 382.161 544.352C390.751 553.527 395.886 563.364 397.633 575.876L398.006 578.637C398.417 580.496 398.811 582.283 398.992 584.177C398.678 585.356 398.519 585.952 398.243 586.488C397.96 587.037 397.555 587.524 396.735 588.508C392.997 592.875 391.545 598.173 390.187 603.656C389.231 610.38 390.958 615.504 394.683 621.052L395.026 621.551C399.149 627.546 402.939 633.055 403.97 640.414C404.04 640.975 404.107 641.536 404.174 642.098L404.175 642.106C404.854 647.794 405.537 653.522 409 658.238C411.319 661.202 413.33 664.219 415.217 667.469L416.281 669.33C418.525 673.074 420.045 676.14 420.416 680.538C420.451 681.533 420.467 682.009 420.503 682.483C420.536 682.918 420.585 683.352 420.679 684.185C421.69 686.557 422.461 687.192 424.588 688.876C427.002 689.325 429.2 689.19 431.625 688.876C434.153 688.42 436.555 688.082 439.125 687.957C442.374 687.843 445.595 687.685 448.825 687.312C458.077 685.577 466.031 682.304 471.645 674.51C473.123 672.297 474.562 670.186 476.29 668.16C476.819 667.583 477.361 667.015 477.903 666.447L477.904 666.445C480.803 663.408 483.687 660.386 484.374 656.094L484.692 653.547C484.739 653.221 484.78 652.919 484.818 652.635L484.818 652.635C485.143 650.234 485.279 649.229 487.526 647.488L487.526 647.487C489.05 647.025 489.725 646.82 490.377 646.558C490.897 646.35 491.401 646.106 492.308 645.668L492.309 645.667L494.465 644.556L498.081 642.748C498.194 636.692 497.903 630.719 497.47 624.683L497.299 622.42L497.414 622.345L497.415 622.345C499.512 620.977 501.581 619.628 503.52 618.037C507.364 614.76 511.424 612.497 515.916 610.253L517.673 609.42L519.352 608.588C520.068 608.248 520.443 608.07 520.798 607.859C521.187 607.627 521.552 607.354 522.317 606.784L522.317 606.783L522.318 606.783C524.403 604.249 525.374 602.593 525.837 599.325L525.833 596.299C525.835 595.192 525.836 594.085 525.834 592.977C525.81 591.251 525.787 589.526 525.794 587.8C525.798 587.052 525.819 586.298 525.839 585.543C525.938 581.895 526.038 578.21 524.332 574.942C521.288 570.553 520.457 566.158 520.433 560.878L520.461 558.798L520.433 556.663L520.442 554.626C520.415 553.676 520.403 553.229 520.45 552.788C520.493 552.395 520.583 552.007 520.754 551.273L520.754 551.273L520.755 551.272C521.922 550.494 522.509 550.103 522.948 549.587C523.39 549.067 523.683 548.419 524.272 547.119C525.654 543.723 527.151 541.075 529.537 538.284C532.595 535.003 535.636 531.724 538.541 528.306C540.03 526.528 541.505 525.119 543.296 523.622C548.601 519.28 553.569 514.243 557.989 509.005C565.946 498.259 573.632 483.61 572.355 469.962C567.357 469.706 562.884 470.592 558.273 472.5C551.853 475.233 545.369 477.068 538.47 474.845C537.744 474.409 537.381 474.191 537.172 473.871C536.964 473.552 536.912 473.131 536.806 472.289L536.757 468.624C536.562 467.673 536.435 467.051 536.16 466.502C535.642 465.469 534.6 464.697 531.594 462.472L529.818 461.282C528.492 460.362 527.165 459.444 525.836 458.528L525.823 458.519C521.619 455.735 518.428 453.623 516.658 448.758C515.806 446.173 515.131 444.461 513.122 442.601C511.537 441.278 510.012 439.983 508.535 438.548C506.021 435.558 505.767 433.294 505.844 429.475V429.474C505.871 428.612 505.885 428.179 505.796 427.769C505.705 427.355 505.51 426.964 505.117 426.179L504.939 425.985L504.939 425.984C502.849 423.701 500.905 421.577 499.403 418.846C497.066 414.192 494.4 410.286 491.093 406.291C487.085 401.45 483.827 396.568 480.88 390.997C481.715 391.353 482.111 391.522 482.442 391.776C482.741 392.007 482.985 392.308 483.452 392.881L486.353 396.469L489.48 395.688L489.59 393.574L489.676 390.801L489.682 390.654C489.797 387.776 489.864 386.112 488.256 383.646C487.38 383.071 486.908 382.761 486.392 382.561C485.787 382.326 485.124 382.243 483.681 382.064L480.734 382.152C478.957 382.187 477.179 382.257 475.407 382.396L474.626 383.178C472.698 382.666 471.176 382.393 469.156 382.375C460.258 382.607 452.29 381.561 443.841 378.829C440.912 377.835 438.014 376.953 434.987 376.291C432.13 376.126 431.176 376.385 428.937 378.096C426.461 380.129 426.192 380.52 425.761 383.862L426.152 386.306L425.929 386.288L425.477 386.252C420.182 385.83 414.186 385.353 409.852 382.091C406.282 378.984 403.197 377.802 398.641 376.777C394.936 376.012 391.738 375.288 388.624 373.014L388.624 373.014C388.193 372.235 387.985 371.857 387.891 371.453C387.803 371.073 387.816 370.67 387.842 369.887C388.738 368.544 389.12 367.97 389.328 367.338C389.483 366.867 389.54 366.364 389.641 365.486L389.65 363.193V363.192V363.192C389.671 361.955 389.681 361.383 389.641 360.815C389.607 360.328 389.537 359.843 389.406 358.943L389.406 358.942L389.406 358.941C387.915 357.948 387.372 357.586 386.774 357.405C386.43 357.301 386.069 357.257 385.5 357.188L383.701 357.197L381.649 357.2ZM567.387 590.298C567.1 590.073 566.77 589.902 566.247 589.632C562.964 589.538 561.262 591.808 559.473 594.35C559.303 594.611 559.136 594.868 558.972 595.121C555.742 600.103 553.578 603.441 547.287 604.829C544.506 605.306 542.999 605.705 540.825 607.528C539.248 610.403 539.105 612.538 539.003 615.774C538.988 617.22 538.963 618.666 538.93 620.111L538.874 622.188C538.858 623.308 538.821 624.43 538.736 625.547L537.954 626.329C533.686 631.201 532.774 634.965 533.022 641.401C533.397 644.709 534.704 646.769 537.172 649.002C540.069 649.397 542.87 649.325 545.773 649.002C548.542 647.618 550.731 646.008 552.262 643.285L553.053 641.184L554.022 638.689C554.872 636.44 555.754 634.206 556.654 631.976C557.473 629.95 558.289 627.923 559.097 625.893L559.511 624.848L559.515 624.838C560.354 622.719 561.194 620.6 562.059 618.491C563.804 614.272 565.431 610.317 565.954 605.757L566.1 602.874L569.228 602.092L569.283 600.122L569.325 597.548C569.354 596.198 569.368 595.561 569.352 594.925C569.338 594.356 569.3 593.787 569.228 592.71C568.241 591.23 567.877 590.684 567.387 590.298Z" fill="black"/>
<path d="M1021.91 565.346C1025.33 569.117 1026.88 572.571 1026.83 577.755C1026.32 581.436 1023.93 584.209 1021.91 587.238C1016.93 589.168 1011.98 589.643 1006.86 587.971C1003.28 585.448 1001.23 583.172 1000.37 578.787C1000.01 573.242 1001.21 570.071 1004.77 565.85C1008.93 562.289 1017.34 562.902 1021.91 565.346Z" fill="black"/>
</g>
<defs>
<clipPath id="clip0_2015_167">
<rect width="1627" height="551.976" fill="white" transform="translate(140 244.012)"/>
</clipPath>
</defs>
</svg>
