<svg width="1607" height="1000" viewBox="0 0 1607 1000" fill="none" xmlns="http://www.w3.org/2000/svg">
<g clip-path="url(#clip0_2015_157)">
<path d="M459.387 286.863C462.239 287.944 465.105 288.916 468.008 289.849C489.683 297.061 513.4 308.978 530.119 324.945C530.119 325.758 530.119 326.571 530.119 327.408C530.881 327.535 531.643 327.662 532.428 327.793C535.045 328.639 535.045 328.639 537.508 332.334C538.283 332.718 539.057 333.102 539.855 333.498C542.96 335.062 544.531 336.903 546.744 339.568C549.11 342.378 551.42 345.005 554.056 347.573C555.98 349.574 555.98 349.574 555.98 352.037C556.724 352.359 557.468 352.682 558.235 353.014C561.09 354.602 562.332 355.935 564.22 358.564C564.798 359.362 565.377 360.16 565.973 360.982C566.561 361.814 567.149 362.647 567.755 363.505C568.348 364.323 568.941 365.141 569.552 365.984C572.626 370.259 575.518 374.561 578.146 379.129C578.905 380.429 579.663 381.729 580.445 383.068C606.261 427.772 606.261 427.772 605.238 448.09C607.092 447.332 607.092 447.332 608.985 446.56C610.686 445.889 612.387 445.219 614.089 444.549C614.894 444.217 615.7 443.886 616.53 443.544C629.62 438.456 643.436 437.783 657.343 437.853C658.793 437.86 660.244 437.867 661.738 437.874C683.132 438.171 704.194 442.298 720.993 456.71C720.993 457.522 720.993 458.335 720.993 459.173C721.857 459.401 722.72 459.63 723.61 459.865C732.885 464.503 737.953 475.255 743.159 483.801C744.107 485.302 744.107 485.302 745.074 486.832C759.181 511.614 762.226 548.558 756.705 576.16C708.346 576.16 659.988 576.16 610.163 576.16C613.856 589.834 613.856 589.834 618.783 595.863C618.783 597.082 618.783 598.301 618.783 599.557C619.596 599.557 620.409 599.557 621.246 599.557C621.983 600.573 622.719 601.589 623.478 602.636C633.454 614.838 649.212 620.04 664.347 621.723C688.439 623.617 713.92 621.406 736.933 613.817C739.465 613.103 739.465 613.103 743.159 613.103C745.285 624.172 747.126 635.217 748.316 646.429C748.419 647.38 748.522 648.33 748.628 649.31C749.233 655.33 749.72 661.242 749.317 667.287C719.852 686.93 665.821 683.683 632.329 677.138C628.173 676.05 624.094 674.79 620.015 673.444C618.783 673.055 617.551 672.666 616.282 672.266C601.71 667.216 588.763 658.775 578.146 647.584C577.104 646.568 576.063 645.552 574.99 644.505C571.48 640.905 568.092 637.329 565.831 632.806C565.018 632.806 564.206 632.806 563.368 632.806C561.812 634.622 560.337 636.51 558.904 638.425C554.993 643.45 550.995 647.658 546.075 651.687C543.518 653.81 543.518 653.81 540.774 656.646C531.573 665.807 521.431 673.968 510.416 680.833C509.299 681.568 508.181 682.303 507.03 683.06C500.923 687.051 495.074 690.493 488.25 693.147C486.373 693.958 484.5 694.78 482.632 695.61C481.334 696.182 481.334 696.182 480.01 696.765C477.833 697.766 475.686 698.834 473.555 699.93C453.865 709.511 428.225 714.142 406.489 714.418C405.384 714.434 404.279 714.449 403.141 714.465C348.165 715.079 348.165 715.079 322.291 704.13C319.609 703.026 316.919 702.102 314.155 701.229C303.698 697.798 293.887 693.591 284.552 687.745C279.735 684.74 274.795 681.951 269.871 679.125C266.965 677.365 264.24 675.659 261.664 673.444C261.664 672.631 261.664 671.819 261.664 670.981C260.829 670.724 259.994 670.467 259.134 670.202C254.289 667.953 250.717 664.802 246.733 661.284C245.919 660.569 245.105 659.855 244.267 659.119C219.354 636.923 198.044 607.583 186.546 576.16C185.978 574.744 185.41 573.328 184.824 571.869C168.024 528.967 167.244 477.303 180.389 433.312C180.786 431.946 181.183 430.581 181.592 429.174C183.782 421.812 186.143 414.835 189.471 407.914C189.84 407.144 190.209 406.375 190.589 405.582C196.024 394.362 202.162 383.573 208.712 372.971C209.198 372.176 209.684 371.381 210.184 370.561C211.264 368.854 212.44 367.209 213.638 365.583C214.451 365.583 215.263 365.583 216.101 365.583C216.36 364.732 216.618 363.881 216.885 363.004C219.083 358.318 222.163 355.13 225.721 351.421C226.364 350.737 227.006 350.053 227.667 349.348C231.536 345.242 235.502 341.242 239.498 337.259C240.336 336.378 241.175 335.497 242.038 334.59C242.825 333.769 243.613 332.948 244.424 332.103C245.211 331.273 245.999 330.442 246.81 329.587C249.35 327.408 249.35 327.408 252.659 326.114C253.599 325.728 254.539 325.342 255.507 324.945C255.913 323.726 256.32 322.507 256.738 321.251C257.958 320.844 259.177 320.438 260.433 320.019C261.093 319.333 261.754 318.648 262.434 317.941C270.231 310.349 279.999 305.76 289.699 301.071C293.201 299.325 296.489 297.404 299.839 295.39C303.853 293.51 307.999 292.004 312.154 290.465C314.411 289.603 314.411 289.603 316.714 288.723C360.691 272.551 415.187 269.991 459.387 286.863ZM233.341 375.434C234.8 382.822 236.775 389.714 239.522 396.72C239.885 397.663 240.248 398.607 240.622 399.578C241.804 402.642 242.998 405.701 244.193 408.76C245.027 410.909 245.86 413.058 246.693 415.207C258.069 444.478 269.97 473.525 282.31 502.403C283.724 505.717 285.128 509.036 286.529 512.356C294.395 530.939 302.714 549.317 311.091 567.674C312.094 569.872 313.095 572.07 314.096 574.268C322.745 593.221 331.745 611.996 340.862 630.728C341.382 631.799 341.902 632.87 342.438 633.974C343.956 637.097 345.479 640.217 347.004 643.336C347.441 644.236 347.878 645.135 348.329 646.062C352.874 655.326 357.776 664.32 362.643 673.444C381.742 673.444 400.842 673.444 420.521 673.444C427.626 659.944 434.671 646.557 441.224 632.806C441.959 631.273 442.693 629.739 443.428 628.206C444.554 625.857 445.679 623.508 446.802 621.158C449.192 616.163 451.609 611.183 454.044 606.21C464.404 585.002 474.028 563.502 483.524 541.897C485.544 537.301 487.578 532.712 489.616 528.124C496.666 512.233 503.485 496.259 510.097 480.181C511.652 476.403 513.215 472.63 514.779 468.856C523.751 447.108 532.211 425.168 540.586 403.185C542.229 398.874 543.883 394.568 545.581 390.278C546.146 388.843 546.71 387.409 547.292 385.93C547.785 384.694 548.277 383.458 548.784 382.185C550.021 379.084 550.021 379.084 549.822 375.434C525.846 375.434 501.87 375.434 477.167 375.434C473.744 382.28 470.933 388.586 468.547 395.753C458.392 425.433 446.886 454.659 435.298 483.801C434.921 484.751 434.544 485.7 434.155 486.677C432.67 490.409 431.178 494.137 429.68 497.862C428.362 501.146 427.054 504.433 425.754 507.723C415.163 534.479 403.733 560.883 392.197 587.243C388.984 583.326 387.029 579.352 385.03 574.707C384.71 573.968 384.39 573.229 384.061 572.468C383.02 570.058 381.99 567.645 380.961 565.231C380.236 563.544 379.511 561.857 378.787 560.17C372.828 546.275 367.041 532.314 361.411 518.282C360.848 516.879 360.285 515.477 359.705 514.031C356.253 505.427 352.814 496.819 349.381 488.207C347.355 483.132 345.312 478.065 343.257 473.002C338.119 460.314 333.173 447.617 328.74 434.665C326.158 427.14 323.341 419.732 320.414 412.335C316.888 403.384 313.629 394.341 310.4 385.279C310.004 384.175 309.608 383.071 309.2 381.933C308.849 380.946 308.497 379.958 308.135 378.941C307.409 376.685 307.409 376.685 305.996 375.434C303.729 375.319 301.457 375.29 299.187 375.294C297.005 375.295 297.005 375.295 294.779 375.295C292.405 375.304 292.405 375.304 289.983 375.314C288.372 375.316 286.761 375.317 285.101 375.319C280.811 375.324 276.521 375.336 272.232 375.35C267.857 375.362 263.482 375.368 259.108 375.374C250.519 375.387 241.93 375.408 233.341 375.434ZM627.404 493.653C625.727 494.948 625.727 494.948 624.017 496.27C615.316 507.388 612.577 514.886 610.163 529.365C639.422 529.365 668.682 529.365 698.827 529.365C697.163 517.714 694.229 507.629 686.513 498.579C685.624 497.512 684.735 496.445 683.819 495.346C671.759 485.162 659.348 484.666 644.024 485.842C637.414 486.75 632.495 489.485 627.404 493.653Z" fill="white"/>
<path d="M1334.72 437.853C1336.17 437.859 1337.62 437.865 1339.12 437.871C1357.65 438.12 1373.11 442.138 1389.67 450.552C1389.67 451.365 1389.67 452.178 1389.67 453.015C1390.56 453.315 1391.45 453.615 1392.37 453.924C1398.66 456.751 1403.23 461.815 1408.14 466.561C1408.83 467.206 1409.52 467.85 1410.23 468.514C1436.38 495.59 1434 544.374 1434 576.16C1385.64 576.16 1337.28 576.16 1287.46 576.16C1291.74 591.322 1291.74 591.322 1301 603.251C1301 604.064 1301 604.877 1301 605.714C1301.99 606.07 1302.99 606.426 1304.01 606.792C1307.16 608.177 1307.16 608.177 1308.39 610.64C1326.41 624.731 1354.73 623.705 1376.07 621.137C1394.31 618.827 1394.31 618.827 1412.01 614.235C1415.53 613.103 1415.53 613.103 1420.45 613.103C1421.39 616.525 1421.94 619.804 1422.26 623.335C1422.35 624.349 1422.45 625.363 1422.55 626.408C1422.64 627.478 1422.74 628.548 1422.84 629.651C1423.66 638.304 1424.74 646.82 1426.15 655.396C1426.72 659.43 1426.8 663.223 1426.61 667.287C1424.06 668.15 1421.51 669.008 1418.96 669.846C1416.68 670.601 1414.4 671.384 1412.14 672.193C1399.59 676.448 1386.78 678.05 1373.66 679.601C1371.58 679.849 1371.58 679.849 1369.45 680.101C1365.92 680.452 1362.42 680.679 1358.88 680.833C1356.65 680.93 1356.65 680.93 1354.38 681.03C1321.48 681.977 1288.08 675.551 1261.6 654.972C1259.54 652.863 1257.68 650.691 1255.84 648.382C1254.07 646.097 1254.07 646.097 1251.13 643.35C1246.06 638.149 1240.8 632.74 1239.43 625.418C1238.62 625.418 1237.81 625.418 1236.97 625.418C1234.25 619.344 1231.83 613.203 1229.58 606.946C1229.11 605.639 1229.11 605.639 1228.63 604.307C1219.1 576.415 1218.13 534.679 1229.58 507.199C1231.12 504.245 1232.79 501.433 1234.51 498.579C1235.06 497.207 1235.62 495.836 1236.2 494.423C1238.74 488.747 1241.97 483.916 1245.59 478.876C1246.28 477.882 1246.98 476.888 1247.7 475.864C1262.29 456.215 1285.84 443.369 1309.76 439.32C1318.1 438.121 1326.3 437.811 1334.72 437.853ZM1296.97 501.672C1290.6 510.867 1288.71 518.106 1287.46 529.365C1316.72 529.365 1345.98 529.365 1376.12 529.365C1372.84 514.596 1369.4 502.324 1356.9 493.028C1348.25 487.626 1341.72 485.367 1331.41 485.495C1329.69 485.511 1329.69 485.511 1327.94 485.528C1314.36 485.985 1305.55 491.191 1296.97 501.672Z" fill="white"/>
<path d="M978.365 438.238C1001.53 438.238 1024.69 438.238 1048.56 438.238C1051.61 450.429 1051.61 450.429 1054.71 462.867C1055.93 466.524 1057.15 470.182 1058.41 473.95C1058.96 476.045 1059.47 478.148 1059.95 480.261C1065.56 503.331 1073.24 526.103 1081.69 548.274C1083.76 553.752 1085.56 559.248 1087.17 564.875C1089.01 571.072 1091.32 576.841 1094.35 582.548C1096.31 586.332 1097.13 589.062 1096.58 593.4C1097.4 593.4 1098.21 593.4 1099.05 593.4C1099.26 592.64 1099.47 591.879 1099.68 591.096C1101.51 584.707 1103.68 578.758 1106.47 572.73C1108.44 568.239 1109.88 563.591 1111.36 558.92C1113.2 553.185 1115.14 547.554 1117.44 541.987C1119.83 536.102 1121.69 530.129 1123.51 524.045C1124.82 519.811 1126.21 515.62 1127.63 511.427C1130.7 502.426 1133.46 493.434 1135.82 484.22C1136.94 479.855 1138.16 475.52 1139.4 471.184C1139.78 469.815 1140.17 468.446 1140.57 467.035C1141.35 464.307 1142.13 461.58 1142.92 458.855C1144.76 452.376 1146.23 446.145 1147.07 439.469C1148.3 438.238 1148.3 438.238 1151.12 438.09C1152.36 438.093 1153.61 438.095 1154.89 438.098C1157 438.098 1157 438.098 1159.15 438.098C1160.68 438.105 1162.2 438.111 1163.78 438.118C1166.11 438.12 1166.11 438.12 1168.5 438.123C1172.64 438.129 1176.78 438.14 1180.93 438.153C1185.15 438.166 1189.38 438.172 1193.61 438.178C1201.9 438.191 1210.2 438.212 1218.5 438.238C1217.82 444.078 1217.18 449.074 1214.96 454.555C1212.62 460.636 1210.97 466.709 1209.52 473.055C1208.65 476.413 1208.65 476.413 1207.46 479.309C1206.13 482.706 1205.29 486.115 1204.44 489.658C1203.08 494.87 1201.3 499.946 1199.56 505.044C1199.18 506.184 1198.8 507.324 1198.4 508.499C1197.64 510.75 1196.88 513.001 1196.12 515.251C1194.85 519.029 1193.59 522.811 1192.33 526.594C1191.61 528.749 1190.89 530.904 1190.17 533.059C1189.8 534.219 1189.8 534.219 1189.43 535.402C1186.83 543.419 1183.72 551.193 1180.55 558.997C1177 567.814 1173.46 576.632 1170.16 585.55C1167.78 591.961 1165.36 598.352 1162.85 604.714C1162.27 606.179 1161.7 607.644 1161.1 609.154C1159.54 612.753 1157.73 615.919 1155.69 619.26C1154.93 621.038 1154.21 622.835 1153.54 624.648C1147.81 639.308 1140.58 653.363 1133.48 667.392C1132.63 669.084 1131.79 670.779 1130.95 672.478C1130.29 673.816 1130.29 673.816 1129.62 675.181C1129.22 675.997 1128.82 676.813 1128.4 677.653C1127.37 679.601 1127.37 679.601 1126.14 680.833C1124.43 680.998 1122.72 681.081 1121.01 681.129C1119.92 681.16 1118.83 681.192 1117.71 681.225C1112.71 681.328 1107.71 681.41 1102.71 681.467C1100.07 681.506 1097.43 681.564 1094.8 681.643C1091 681.756 1087.2 681.804 1083.4 681.838C1082.23 681.885 1081.05 681.932 1079.84 681.98C1071.85 681.957 1071.85 681.957 1068.7 678.815C1067.07 676.27 1065.79 673.739 1064.57 670.981C1063.93 669.797 1063.29 668.613 1062.63 667.393C1058 657.97 1053.51 648.489 1049.1 638.964C1048.42 637.509 1047.74 636.055 1047.04 634.557C1041.81 623.283 1036.95 611.893 1032.39 600.327C1031.1 597.059 1029.76 593.997 1028.16 590.86C1026.24 586.924 1024.95 582.98 1023.62 578.815C1022.68 575.929 1022.68 575.929 1020.85 572.465C1018.98 568.734 1017.74 565.107 1016.47 561.147C1014.99 556.744 1013.34 552.409 1011.69 548.067C1009.1 541.216 1006.66 534.344 1004.38 527.378C1002.92 522.972 1001.38 518.593 999.83 514.214C994.588 499.375 989.959 484.445 985.682 469.298C984.708 465.963 983.657 462.686 982.521 459.403C980.138 452.422 978.365 445.637 978.365 438.238Z" fill="white"/>
<path d="M945.116 443.163C944.008 454.787 942.714 466.06 939.859 477.408C938.261 484.387 937.401 491.481 936.496 498.578C931.782 500.323 928.346 499.251 923.566 498.04C911.428 495.337 901.199 495.421 889.163 498.271C888.332 498.463 887.501 498.656 886.645 498.855C881.269 500.259 877.863 502.365 873.693 505.967C872.88 505.967 872.067 505.967 871.23 505.967C871.23 563.673 871.23 621.378 871.23 680.832C848.879 680.832 826.528 680.832 803.5 680.832C803.278 652.519 803.096 624.207 802.99 595.894C802.939 582.747 802.87 569.602 802.757 556.456C802.659 544.999 802.595 533.543 802.573 522.086C802.56 516.018 802.53 509.951 802.459 503.884C802.392 498.174 802.371 492.465 802.386 486.755C802.383 484.658 802.364 482.562 802.326 480.466C802.054 464.604 802.054 464.604 805.631 460.306C808.183 458.676 810.49 457.668 813.352 456.709C814.642 455.974 815.933 455.239 817.263 454.482C854.366 435.214 905.111 429.77 945.116 443.163Z" fill="white"/>
</g>
<defs>
<clipPath id="clip0_2015_157">
<rect width="1261" height="437.163" fill="white" transform="translate(173 276.918)"/>
</clipPath>
</defs>
</svg>
