<svg width="80" height="30" viewBox="0 0 80 30" fill="none" xmlns="http://www.w3.org/2000/svg">
<g clip-path="url(#clip0_308_2225)">
<g clip-path="url(#clip1_308_2225)">
<g clip-path="url(#clip2_308_2225)">
<path d="M34.4629 0.000488281L37.8296 2.11249L41.1969 0.000488281L44.5636 2.11249L47.9302 0.000488281V5.67315H34.4629V0.000488281Z" fill="black"/>
<path d="M38.2436 23.0831H34.463V7.56378H38.2436V23.0831ZM38.6216 15.3231L43.4863 7.56311H47.9303L43.0656 15.3231L47.9303 23.0831H43.4863L38.6216 15.3231ZM48.533 10.7624H52.3136V23.0831H48.533V10.7624ZM62.1123 16.4018C62.1123 14.7211 61.1836 13.7924 59.7463 13.7924C58.309 13.7924 57.381 14.7211 57.381 16.4018V23.0831H53.6003V10.7631H57.381V12.3998C58.133 11.3604 59.459 10.6304 61.1176 10.6304C63.9696 10.6304 65.871 12.5764 65.871 15.8938V23.0838H62.1123V16.4018ZM73.3856 13.8811C71.9703 13.8811 70.6883 14.9424 70.6883 16.9104C70.6883 18.8784 71.9703 19.9844 73.3856 19.9844C74.8223 19.9844 76.083 18.9011 76.083 16.9324C76.083 14.9638 74.8223 13.8811 73.3856 13.8811ZM72.2803 10.5864C74.093 10.5864 75.4196 11.4044 76.083 12.5104V10.7638H79.8636V23.0804C79.8636 26.3751 77.9616 29.1838 73.695 29.1838C70.025 29.1838 67.637 27.3264 67.3056 24.3851H71.0423C71.285 25.3138 72.2136 25.9111 73.5183 25.9111C74.955 25.9111 76.083 25.1591 76.083 23.0804V21.3331C75.3976 22.4171 74.093 23.2791 72.2803 23.2791C69.251 23.2791 66.841 20.8024 66.841 16.9104C66.841 13.0184 69.251 10.5864 72.2803 10.5864ZM8.03498 19.6011C8.38098 19.3138 8.55431 18.8978 8.55431 18.3518C8.55431 17.8058 8.37364 17.3791 8.01298 17.0698C7.65231 16.7604 7.15431 16.6051 6.52098 16.6051H3.78031V20.0318H6.56498C7.19831 20.0318 7.68831 19.8884 8.03498 19.6011ZM3.78031 13.8424H6.25564C6.87431 13.8424 7.34964 13.7064 7.68098 13.4338C8.01231 13.1611 8.17831 12.7591 8.17831 12.2284C8.17831 11.6978 8.01231 11.2924 7.68098 11.0124C7.34964 10.7324 6.87431 10.5924 6.25564 10.5924H3.78031V13.8418V13.8424ZM11.5603 16.4624C12.0994 17.1448 12.3882 17.9915 12.3783 18.8611C12.3783 20.1578 11.925 21.1858 11.019 21.9451C10.113 22.7044 8.84898 23.0831 7.22831 23.0831H0.000976562V7.56378H6.98498C8.56164 7.56378 9.79564 7.92578 10.687 8.64778C11.5783 9.36978 12.0243 10.3498 12.0243 11.5878C12.0243 12.5018 11.7843 13.2604 11.3063 13.8651C10.8283 14.4698 10.1903 14.8891 9.39431 15.1244C10.293 15.3164 11.015 15.7624 11.5603 16.4624ZM21.5343 15.7211C21.5343 15.0724 21.313 14.5578 20.871 14.1744C20.429 13.7911 19.8763 13.5991 19.2136 13.5991C18.5803 13.5991 18.0456 13.7838 17.6116 14.1524C17.1776 14.5211 16.9076 15.0444 16.805 15.7218H21.5343V15.7211ZM25.3356 17.8211H16.7823C16.841 18.5878 17.0883 19.1738 17.523 19.5784C17.9576 19.9831 18.4916 20.1864 19.1256 20.1864C20.0683 20.1864 20.7243 19.7884 21.093 18.9924H25.1156C24.9126 19.7965 24.5311 20.5445 23.9996 21.1811C23.4616 21.8304 22.7876 22.3384 21.977 22.7064C21.1663 23.0744 20.2603 23.2598 19.2583 23.2598C18.0503 23.2598 16.9743 23.0018 16.0316 22.4858C15.089 21.9698 14.3516 21.2331 13.8216 20.2751C13.2916 19.3171 13.0256 18.1964 13.0256 16.9144C13.0256 15.6324 13.287 14.5118 13.8103 13.5538C14.3336 12.5958 15.0663 11.8591 16.0096 11.3431C16.953 10.8271 18.035 10.5698 19.2583 10.5698C20.4516 10.5698 21.5123 10.8204 22.441 11.3218C23.358 11.8119 24.1141 12.5564 24.6183 13.4658C25.1416 14.3938 25.403 15.4778 25.403 16.7158C25.403 17.0691 25.381 17.4378 25.337 17.8204L25.3356 17.8211ZM33.2523 19.8778V23.0831H31.3296C29.9596 23.0831 28.891 22.7484 28.125 22.0771C27.359 21.4058 26.9756 20.3118 26.9756 18.7938V13.8858H25.473V10.7624H26.9756V7.56311H30.755V10.7624H33.2303V13.8858H30.755V18.8378C30.755 19.2064 30.8436 19.4718 31.0196 19.6338C31.1956 19.7958 31.491 19.8771 31.9043 19.8771L33.2523 19.8778Z" fill="black"/>
</g>
</g>
</g>
<defs>
<clipPath id="clip0_308_2225">
<rect width="80" height="29.3333" fill="white" transform="translate(0.000244141 0.00012207)"/>
</clipPath>
<clipPath id="clip1_308_2225">
<rect width="80" height="29.3333" fill="white" transform="translate(0.000488281 0.000244141)"/>
</clipPath>
<clipPath id="clip2_308_2225">
<rect width="80" height="29.3333" fill="white" transform="translate(0.000732422 0.000366211)"/>
</clipPath>
</defs>
</svg>
