<svg width="100" height="48" viewBox="0 0 100 48" fill="none" xmlns="http://www.w3.org/2000/svg">
<g clip-path="url(#clip0_437_2682)">
<g clip-path="url(#clip1_437_2682)">
<g clip-path="url(#clip2_437_2682)">
<path d="M44.4629 10L47.8296 12.112L51.1969 10L54.5636 12.112L57.9302 10V15.6727H44.4629V10Z" fill="white"/>
<path d="M48.2427 33.0827H44.462V17.5634H48.2427V33.0827ZM48.6207 25.3227L53.4853 17.5627H57.9293L53.0647 25.3227L57.9293 33.0827H53.4853L48.6207 25.3227ZM58.532 20.7621H62.3127V33.0827H58.532V20.7621ZM72.1113 26.4014C72.1113 24.7207 71.1827 23.7921 69.7453 23.7921C68.308 23.7921 67.38 24.7207 67.38 26.4014V33.0827H63.5993V20.7627H67.38V22.3994C68.132 21.3601 69.458 20.6301 71.1167 20.6301C73.9687 20.6301 75.87 22.5761 75.87 25.8934V33.0834H72.1113V26.4014ZM83.3847 23.8807C81.9693 23.8807 80.6873 24.9421 80.6873 26.9101C80.6873 28.8781 81.9693 29.9841 83.3847 29.9841C84.8213 29.9841 86.082 28.9007 86.082 26.9321C86.082 24.9634 84.8213 23.8807 83.3847 23.8807ZM82.2793 20.5861C84.092 20.5861 85.4187 21.4041 86.082 22.5101V20.7634H89.8627V33.0801C89.8627 36.3747 87.9607 39.1834 83.694 39.1834C80.024 39.1834 77.636 37.3261 77.3047 34.3847H81.0413C81.284 35.3134 82.2127 35.9107 83.5173 35.9107C84.954 35.9107 86.082 35.1587 86.082 33.0801V31.3327C85.3967 32.4167 84.092 33.2787 82.2793 33.2787C79.25 33.2787 76.84 30.8021 76.84 26.9101C76.84 23.0181 79.25 20.5861 82.2793 20.5861ZM18.034 29.6007C18.38 29.3134 18.5533 28.8974 18.5533 28.3514C18.5533 27.8054 18.3727 27.3787 18.012 27.0694C17.6513 26.7601 17.1533 26.6047 16.52 26.6047H13.7793V30.0314H16.564C17.1973 30.0314 17.6873 29.8881 18.034 29.6007ZM13.7793 23.8421H16.2547C16.8733 23.8421 17.3487 23.7061 17.68 23.4334C18.0113 23.1607 18.1773 22.7587 18.1773 22.2281C18.1773 21.6974 18.0113 21.2921 17.68 21.0121C17.3487 20.7321 16.8733 20.5921 16.2547 20.5921H13.7793V23.8414V23.8421ZM21.5593 26.4621C22.0984 27.1445 22.3872 27.9911 22.3773 28.8607C22.3773 30.1574 21.924 31.1854 21.018 31.9447C20.112 32.7041 18.848 33.0827 17.2273 33.0827H10V17.5634H16.984C18.5607 17.5634 19.7947 17.9254 20.686 18.6474C21.5773 19.3694 22.0233 20.3494 22.0233 21.5874C22.0233 22.5014 21.7833 23.2601 21.3053 23.8647C20.8273 24.4694 20.1893 24.8887 19.3933 25.1241C20.292 25.3161 21.014 25.7621 21.5593 26.4621ZM31.5333 25.7207C31.5333 25.0721 31.312 24.5574 30.87 24.1741C30.428 23.7907 29.8753 23.5987 29.2127 23.5987C28.5793 23.5987 28.0447 23.7834 27.6107 24.1521C27.1767 24.5207 26.9067 25.0441 26.804 25.7214H31.5333V25.7207ZM35.3347 27.8207H26.7813C26.84 28.5874 27.0873 29.1734 27.522 29.5781C27.9567 29.9827 28.4907 30.1861 29.1247 30.1861C30.0673 30.1861 30.7233 29.7881 31.092 28.9921H35.1147C34.9116 29.7961 34.5302 30.5442 33.9987 31.1807C33.4607 31.8301 32.7867 32.3381 31.976 32.7061C31.1653 33.0741 30.2593 33.2594 29.2573 33.2594C28.0493 33.2594 26.9733 33.0014 26.0307 32.4854C25.088 31.9694 24.3507 31.2327 23.8207 30.2747C23.2907 29.3167 23.0247 28.1961 23.0247 26.9141C23.0247 25.6321 23.286 24.5114 23.8093 23.5534C24.3327 22.5954 25.0653 21.8587 26.0087 21.3427C26.952 20.8267 28.034 20.5694 29.2573 20.5694C30.4507 20.5694 31.5113 20.8201 32.44 21.3214C33.3571 21.8115 34.1131 22.556 34.6173 23.4654C35.1407 24.3934 35.402 25.4774 35.402 26.7154C35.402 27.0687 35.38 27.4374 35.336 27.8201L35.3347 27.8207ZM43.2513 29.8774V33.0827H41.3287C39.9587 33.0827 38.89 32.7481 38.124 32.0767C37.358 31.4054 36.9747 30.3114 36.9747 28.7934V23.8854H35.472V20.7621H36.9747V17.5627H40.754V20.7621H43.2293V23.8854H40.754V28.8374C40.754 29.2061 40.8427 29.4714 41.0187 29.6334C41.1947 29.7954 41.49 29.8767 41.9033 29.8767L43.2513 29.8774Z" fill="white"/>
</g>
</g>
</g>
<defs>
<clipPath id="clip0_437_2682">
<rect width="80" height="29.3333" fill="white" transform="translate(10 10)"/>
</clipPath>
<clipPath id="clip1_437_2682">
<rect width="80" height="29.3333" fill="white" transform="translate(10 10)"/>
</clipPath>
<clipPath id="clip2_437_2682">
<rect width="80" height="29.3333" fill="white" transform="translate(10 10)"/>
</clipPath>
</defs>
</svg>
