<svg width="64" height="28" viewBox="0 0 64 28" fill="none" xmlns="http://www.w3.org/2000/svg">
<path d="M18.6556 12.1142L18.6554 12.1142L18.5308 11.898L18.6556 12.1142ZM18.6556 12.1142C19.1976 13.053 19.7394 13.992 20.2812 14.931C20.767 15.7729 21.2528 16.6149 21.7388 17.4567L21.701 17.7912L21.7008 17.7932L21.9466 17.8209L18.6556 12.1142ZM22.25 0.574951V0.324951H22H20.05H19.8V0.574951V9.8891C17.8016 7.43967 14.7585 5.87495 11.35 5.87495C5.33007 5.87495 0.449997 10.7551 0.449997 16.775C0.449997 22.7948 5.33007 27.675 11.35 27.675C15.6511 27.675 19.3699 25.1838 21.143 21.5667L21.2016 21.447L21.135 21.3316L19.8829 19.1631L19.594 18.6627L19.4271 19.2158C18.3802 22.6847 15.1598 25.2105 11.35 25.2105C6.69114 25.2105 2.91443 21.4338 2.91443 16.775C2.91443 12.1161 6.69114 8.33942 11.35 8.33942C14.2206 8.33942 16.7565 9.77305 18.2805 11.9645L18.3141 12.0226C18.8979 13.0338 19.4811 14.0446 20.0644 15.0554C20.6203 16.0188 21.1762 16.9823 21.7327 17.9462L22.1124 18.6039L22.1126 18.6019L24.9547 23.5245C25.0079 23.6213 25.0631 23.7169 25.1202 23.8112L25.1421 23.8491L25.267 24.0656L25.277 24.0599C25.7004 24.7048 26.216 25.2871 26.8092 25.7874C27.722 26.5572 28.7954 27.1134 29.9508 27.415C31.1062 27.7167 32.3144 27.7563 33.4872 27.531C34.6599 27.3056 35.7674 26.821 36.7286 26.1125L36.5803 25.9113L36.7286 26.1125C37.6899 25.404 38.4807 24.4897 39.0432 23.4362C39.3908 22.7852 39.6456 22.0912 39.8024 21.3744L39.8231 21.2798L39.7747 21.196L37.6565 17.5271L37.2053 17.7384C37.4609 18.4332 37.5759 19.1727 37.5424 19.914C37.5049 20.7437 37.2824 21.5546 36.8912 22.2873C36.5 23.02 35.95 23.656 35.2814 24.1487C34.6128 24.6415 33.8424 24.9786 33.0267 25.1353C32.2111 25.2921 31.3708 25.2646 30.5671 25.0547C29.7634 24.8449 29.0169 24.4581 28.3819 23.9226C27.981 23.5844 27.6309 23.1923 27.3412 22.7587L27.2641 22.6245L27.1851 22.4872L27.1848 22.4866L26.9748 22.1234L26.9728 22.1193L26.9686 22.1121L22.25 13.9393V0.574951ZM37.95 13.2178V13.2847L37.9835 13.3428L42.5117 21.1859L42.5063 21.1891L42.6316 21.4061L42.7796 21.6625C44.571 25.2277 48.262 27.675 52.525 27.675C58.5449 27.675 63.425 22.7948 63.425 16.775C63.425 10.7551 58.5449 5.87495 52.525 5.87495C48.1644 5.87495 44.4025 8.43548 42.6597 12.1339L42.6039 12.2522L42.6693 12.3655L43.94 14.5664L44.2377 15.0821L44.3973 14.5084C45.3874 10.9502 48.6516 8.33942 52.525 8.33942C57.1839 8.33942 60.9606 12.1161 60.9606 16.775C60.9606 21.4338 57.1839 25.2105 52.525 25.2105C49.4872 25.2105 46.8242 23.6049 45.3387 21.1949L45.1286 20.8294L45.1268 20.8263L45.0955 20.7736L45.0851 20.7542L45.0852 20.7542L45.0813 20.7475L42.1785 15.7213L42.1787 15.72L42.1379 15.6494L40.5136 12.8361L40.5133 12.8355L40.4 12.6405V6.27495V6.02495H40.15H38.2H37.95V6.27495V13.2178ZM26.6 6.27495V6.02495H26.35H24.4H24.15V6.27495V12.8674V13.3005L24.3255 13.1991L26.1335 16.3307L26.6 17.1387V16.2057V6.27495Z" fill="black" stroke="black" stroke-width="0.5"/>
</svg>
