<svg width="80" height="38" viewBox="0 0 80 38" fill="none" xmlns="http://www.w3.org/2000/svg">
<path d="M26.6548 17.1142L26.6546 17.1142L26.53 16.898L26.6548 17.1142ZM26.6548 17.1142C27.1968 18.053 27.7386 18.992 28.2804 19.931C28.7662 20.7729 29.2521 21.6149 29.738 22.4567L29.7003 22.7912L29.7 22.7932L29.9458 22.8209L26.6548 17.1142ZM30.2492 5.57495V5.32495H29.9992H28.0492H27.7992V5.57495V14.8891C25.8008 12.4397 22.7578 10.875 19.3492 10.875C13.3293 10.875 8.44922 15.7551 8.44922 21.775C8.44922 27.7948 13.3293 32.675 19.3492 32.675C23.6504 32.675 27.3691 30.1838 29.1422 26.5667L29.2009 26.447L29.1342 26.3316L27.8822 24.1631L27.5932 23.6627L27.4263 24.2158C26.3794 27.6847 23.159 30.2105 19.3492 30.2105C14.6904 30.2105 10.9136 26.4338 10.9136 21.775C10.9136 17.1161 14.6904 13.3394 19.3492 13.3394C22.2199 13.3394 24.7557 14.7731 26.2798 16.9645L26.3133 17.0226C26.8971 18.0338 27.4804 19.0446 28.0636 20.0554C28.6195 21.0188 29.1754 21.9823 29.732 22.9462L30.1116 23.6039L30.1119 23.6019L32.9539 28.5245C33.0071 28.6213 33.0624 28.7169 33.1195 28.8112L33.1413 28.8491L33.2663 29.0656L33.2762 29.0599C33.6996 29.7048 34.2152 30.2871 34.8084 30.7874C35.7212 31.5572 36.7946 32.1134 37.95 32.415C39.1054 32.7167 40.3137 32.7563 41.4864 32.531C42.6591 32.3056 43.7666 31.821 44.7279 31.1125L44.5795 30.9113L44.7279 31.1125C45.6891 30.404 46.4799 29.4897 47.0424 28.4362C47.39 27.7852 47.6449 27.0912 47.8016 26.3744L47.8223 26.2798L47.7739 26.196L45.6557 22.5271L45.2046 22.7384C45.4601 23.4332 45.5751 24.1727 45.5416 24.914C45.5041 25.7437 45.2816 26.5546 44.8904 27.2873C44.4992 28.02 43.9492 28.656 43.2806 29.1487C42.612 29.6415 41.8416 29.9786 41.026 30.1353C40.2103 30.2921 39.37 30.2646 38.5663 30.0547C37.7626 29.8449 37.0161 29.4581 36.3812 28.9226C35.9802 28.5844 35.6302 28.1923 35.3404 27.7587L35.2633 27.6245L35.1844 27.4872L35.184 27.4866L34.974 27.1234L34.972 27.1193L34.9678 27.1121L30.2492 18.9393V5.57495ZM45.9492 18.2178V18.2847L45.9827 18.3428L50.5109 26.1859L50.5055 26.1891L50.6308 26.4061L50.7789 26.6625C52.5703 30.2277 56.2612 32.675 60.5242 32.675C66.5442 32.675 71.4242 27.7948 71.4242 21.775C71.4242 15.7551 66.5442 10.875 60.5242 10.875C56.1636 10.875 52.4017 13.4355 50.6589 17.1339L50.6031 17.2522L50.6685 17.3655L51.9392 19.5664L52.2369 20.0821L52.3966 19.5084C53.3866 15.9502 56.6508 13.3394 60.5242 13.3394C65.1831 13.3394 68.9598 17.1161 68.9598 21.775C68.9598 26.4338 65.1831 30.2105 60.5242 30.2105C57.4864 30.2105 54.8234 28.6049 53.3379 26.1949L53.1278 25.8294L53.126 25.8263L53.0947 25.7736L53.0843 25.7542L53.0844 25.7542L53.0805 25.7475L50.1778 20.7213L50.1779 20.72L50.1372 20.6494L48.5129 17.8361L48.5125 17.8355L48.3992 17.6405V11.275V11.025H48.1492H46.1992H45.9492V11.275V18.2178ZM34.5992 11.275V11.025H34.3492H32.3992H32.1492V11.275V17.8674V18.3005L32.3247 18.1991L34.1327 21.3307L34.5992 22.1387V21.2057V11.275Z" fill="white" stroke="white" stroke-width="0.5"/>
</svg>
