<svg width="85" height="28" viewBox="0 0 85 28" fill="none" xmlns="http://www.w3.org/2000/svg">
<g clip-path="url(#clip0_308_2230)">
<path fill-rule="evenodd" clip-rule="evenodd" d="M10.0905 18.5388H10.0888C5.80572 18.4894 3.03806 16.2671 3.03806 12.8775C3.03806 9.48784 5.80572 7.26551 10.0888 7.21616C14.3738 7.26551 17.1411 9.48784 17.1411 12.8775C17.1411 16.2671 14.3738 18.4894 10.0905 18.5388ZM10.2155 4.4798C10.2144 4.47995 10.1292 4.47831 10.0863 4.47742C10.0424 4.47801 9.95715 4.4798 9.95715 4.4798C4.09395 4.58402 0 8.03717 0 12.8775C0 17.7179 4.09395 21.1712 9.95578 21.2752C9.95578 21.2752 10.0424 21.2761 10.0851 21.2759C10.1299 21.2763 10.2157 21.2752 10.2157 21.2752C16.0774 21.1712 20.1712 17.7179 20.1712 12.8775C20.1712 8.03717 16.0774 4.58402 10.2155 4.4798Z" fill="black"/>
<path fill-rule="evenodd" clip-rule="evenodd" d="M74.9195 18.5388H74.9177C70.6348 18.4894 67.8671 16.2671 67.8671 12.8775C67.8671 9.48784 70.6348 7.26551 74.9177 7.21616C79.2027 7.26551 81.9701 9.48784 81.9701 12.8775C81.9701 16.2671 79.2027 18.4894 74.9195 18.5388ZM75.0445 4.4798C75.0434 4.47995 74.9584 4.47831 74.9152 4.47742C74.8715 4.47801 74.7862 4.4798 74.7862 4.4798C68.923 4.58402 64.829 8.03717 64.829 12.8775C64.829 17.7179 68.923 21.1712 74.785 21.2752C74.785 21.2752 74.8715 21.2761 74.9141 21.2759C74.9591 21.2763 75.0448 21.2752 75.0448 21.2752C80.9065 21.1712 85.0003 17.7179 85.0003 12.8775C85.0003 8.03717 80.9065 4.58402 75.0445 4.4798Z" fill="black"/>
<path fill-rule="evenodd" clip-rule="evenodd" d="M53.3494 18.5388H53.3477C49.0648 18.4894 46.2971 16.2671 46.2971 12.8775C46.2971 9.48784 49.0648 7.26551 53.3477 7.21616C57.6326 7.26551 60.4001 9.48784 60.4001 12.8775C60.4001 16.2671 57.6326 18.4894 53.3494 18.5388ZM53.4745 4.4798C53.4734 4.47995 53.3884 4.47831 53.3452 4.47742C53.3015 4.47801 53.2162 4.4798 53.2162 4.4798C50.423 4.52945 48.032 5.33965 46.2932 6.69721V5.26556H43.2591V26.5228H46.2932V19.0582C48.0317 20.4156 50.4223 21.2257 53.2149 21.2752C53.2151 21.2755 53.3015 21.2761 53.344 21.2759C53.3891 21.2763 53.4747 21.2752 53.4747 21.2752C59.3364 21.1712 63.4303 17.7179 63.4303 12.8775C63.4303 8.03717 59.3364 4.58402 53.4745 4.4798Z" fill="black"/>
<path fill-rule="evenodd" clip-rule="evenodd" d="M31.7169 18.5388H31.7154C27.4323 18.4894 24.6646 16.2671 24.6646 12.8775C24.6646 9.48784 27.4323 7.26551 31.7154 7.21616C36.0003 7.26551 38.7677 9.48784 38.7677 12.8775C38.7677 16.2671 36.0003 18.4894 31.7169 18.5388ZM31.8472 4.4798C31.8459 4.47995 31.7609 4.47831 31.7179 4.47742C31.674 4.47801 31.5887 4.4798 31.5887 4.4798C28.7955 4.52945 26.4045 5.33965 24.6657 6.69721V5.26556H21.6317V26.5228H24.6657V19.0582C26.4044 20.4156 28.7949 21.2257 31.5873 21.2752C31.5873 21.2752 31.674 21.2761 31.7166 21.2759C31.7616 21.2763 31.8473 21.2752 31.8473 21.2752C37.709 21.1712 41.8028 17.7179 41.8028 12.8775C41.8028 8.03717 37.709 4.58402 31.8472 4.4798Z" fill="black"/>
</g>
<defs>
<clipPath id="clip0_308_2230">
<rect width="85" height="27" fill="white" transform="translate(0 0.5)"/>
</clipPath>
</defs>
</svg>
