<svg width="85" height="28" viewBox="0 0 85 28" fill="none" xmlns="http://www.w3.org/2000/svg">
<g clip-path="url(#clip0_437_2688)">
<path fill-rule="evenodd" clip-rule="evenodd" d="M10.0905 18.5389H10.0888C5.80572 18.4895 3.03806 16.2672 3.03806 12.8776C3.03806 9.48796 5.80572 7.26563 10.0888 7.21628C14.3738 7.26563 17.1411 9.48796 17.1411 12.8776C17.1411 16.2672 14.3738 18.4895 10.0905 18.5389ZM10.2155 4.47992C10.2144 4.48007 10.1292 4.47843 10.0863 4.47754C10.0424 4.47814 9.95715 4.47992 9.95715 4.47992C4.09395 4.58414 0 8.03729 0 12.8777C0 17.718 4.09395 21.1713 9.95578 21.2754C9.95578 21.2754 10.0424 21.2762 10.0851 21.276C10.1299 21.2765 10.2157 21.2754 10.2157 21.2754C16.0774 21.1713 20.1712 17.718 20.1712 12.8777C20.1712 8.03729 16.0774 4.58414 10.2155 4.47992Z" fill="white"/>
<path fill-rule="evenodd" clip-rule="evenodd" d="M74.9186 18.5389H74.9168C70.6339 18.4895 67.8662 16.2672 67.8662 12.8776C67.8662 9.48796 70.6339 7.26563 74.9168 7.21628C79.2018 7.26563 81.9692 9.48796 81.9692 12.8776C81.9692 16.2672 79.2018 18.4895 74.9186 18.5389ZM75.0436 4.47992C75.0425 4.48007 74.9575 4.47843 74.9143 4.47754C74.8706 4.47814 74.7853 4.47992 74.7853 4.47992C68.9221 4.58414 64.8281 8.03729 64.8281 12.8777C64.8281 17.718 68.9221 21.1713 74.7841 21.2754C74.7841 21.2754 74.8706 21.2762 74.9132 21.276C74.9582 21.2765 75.0439 21.2754 75.0439 21.2754C80.9056 21.1713 84.9994 17.718 84.9994 12.8777C84.9994 8.03729 80.9056 4.58414 75.0436 4.47992Z" fill="white"/>
<path fill-rule="evenodd" clip-rule="evenodd" d="M53.3501 18.5389H53.3484C49.0655 18.4895 46.2978 16.2672 46.2978 12.8776C46.2978 9.48796 49.0655 7.26563 53.3484 7.21628C57.6333 7.26563 60.4008 9.48796 60.4008 12.8776C60.4008 16.2672 57.6333 18.4895 53.3501 18.5389ZM53.4752 4.47992C53.4741 4.48007 53.3891 4.47843 53.3459 4.47754C53.3022 4.47814 53.2169 4.47992 53.2169 4.47992C50.4237 4.52957 48.0327 5.33978 46.2939 6.69734V5.26568H43.2598V26.523H46.2939V19.0583C48.0324 20.4157 50.423 21.2258 53.2156 21.2754C53.2158 21.2756 53.3022 21.2762 53.3447 21.276C53.3898 21.2765 53.4754 21.2754 53.4754 21.2754C59.3371 21.1713 63.431 17.718 63.431 12.8777C63.431 8.03729 59.3371 4.58414 53.4752 4.47992Z" fill="white"/>
<path fill-rule="evenodd" clip-rule="evenodd" d="M31.7161 18.5389H31.7146C27.4315 18.4895 24.6638 16.2672 24.6638 12.8776C24.6638 9.48796 27.4315 7.26563 31.7146 7.21628C35.9995 7.26563 38.7669 9.48796 38.7669 12.8776C38.7669 16.2672 35.9995 18.4895 31.7161 18.5389ZM31.8464 4.47992C31.8451 4.48007 31.7601 4.47843 31.7171 4.47754C31.6732 4.47814 31.5879 4.47992 31.5879 4.47992C28.7947 4.52957 26.4037 5.33978 24.6649 6.69734V5.26568H21.6309V26.523H24.6649V19.0583C26.4036 20.4157 28.7941 21.2258 31.5865 21.2754C31.5865 21.2754 31.6732 21.2762 31.7158 21.276C31.7608 21.2765 31.8465 21.2754 31.8465 21.2754C37.7082 21.1713 41.802 17.718 41.802 12.8777C41.802 8.03729 37.7082 4.58414 31.8464 4.47992Z" fill="white"/>
</g>
<defs>
<clipPath id="clip0_437_2688">
<rect width="85" height="27" fill="white" transform="translate(0 0.5)"/>
</clipPath>
</defs>
</svg>
