<svg width="123" height="24" viewBox="0 0 123 24" fill="none" xmlns="http://www.w3.org/2000/svg">
<path fill-rule="evenodd" clip-rule="evenodd" d="M3.35474 18.9916C7.35049 23.9642 14.7609 24.865 19.9065 21.0036C25.0521 17.1422 25.9841 9.98088 21.9884 5.00832C17.9927 0.0357476 10.5823 -0.86497 5.4367 2.99636C0.291196 6.85776 -0.64094 14.019 3.35474 18.9916ZM18.159 15.7288L10.5774 20.8602V16.8366L15.3936 13.577C15.5662 13.5904 15.7457 13.547 15.9011 13.4436C16.236 13.2167 16.3291 12.7829 16.1254 12.4493C16.122 12.4459 16.1194 12.4418 16.1168 12.4376C16.1142 12.4334 16.1116 12.4293 16.1082 12.4259C16.1047 12.4209 16.1021 12.4167 16.0995 12.4126C16.0969 12.4084 16.0944 12.4042 16.0909 12.3992C16.0859 12.3944 16.0827 12.3895 16.0787 12.3834C16.0772 12.3811 16.0755 12.3786 16.0736 12.3758C16.0667 12.3691 16.0598 12.3624 16.0529 12.3524C15.8009 12.0521 15.3452 11.9887 15.0103 12.2156C15.0068 12.219 15.0034 12.2215 14.9999 12.224C14.9965 12.2265 14.993 12.229 14.9896 12.2323C14.848 12.3357 14.7513 12.4758 14.7099 12.6327C14.7065 12.636 14.7065 12.6393 14.7065 12.6427L11.7857 14.6178C11.7275 14.6575 11.6659 14.6939 11.6043 14.7303L11.6028 14.7313C11.2367 14.9549 10.8432 15.1117 10.4392 15.2084C8.88214 15.5753 7.18006 15.0115 6.20302 13.6669C5.56779 12.7895 5.36061 11.7486 5.54016 10.771C5.71971 9.79677 6.2824 8.8859 7.18699 8.27203L14.7721 3.14065V7.16418L9.95593 10.4239C9.77988 10.4105 9.60033 10.4505 9.44499 10.5573C9.11352 10.7809 9.01686 11.2179 9.22404 11.5516C9.22575 11.5549 9.22834 11.5591 9.23093 11.5633C9.23352 11.5675 9.2361 11.5716 9.23781 11.575C9.24128 11.58 9.24386 11.5841 9.24645 11.5883C9.24904 11.5925 9.25163 11.5967 9.25509 11.6017C9.26011 11.6065 9.26329 11.6114 9.26729 11.6175C9.26881 11.6198 9.27046 11.6223 9.27237 11.6251C9.2793 11.6318 9.28615 11.6384 9.29307 11.6485C9.54858 11.9488 10.0043 12.0122 10.3357 11.7853C10.3386 11.7825 10.3421 11.7803 10.3454 11.7782C10.3501 11.7752 10.3544 11.7725 10.3564 11.7686C10.5015 11.6685 10.5947 11.525 10.6396 11.3682C10.6396 11.3649 10.6396 11.3615 10.643 11.3582L13.5603 9.38304C13.6224 9.34303 13.6812 9.30632 13.7433 9.26962C14.1128 9.04602 14.5063 8.88921 14.9103 8.79249C16.4673 8.42554 18.1694 8.98939 19.143 10.3339C19.7782 11.2114 19.9854 12.2523 19.8058 13.2299C19.6298 14.2041 19.067 15.115 18.159 15.7288Z" fill="black"/>
<path d="M36.2217 11.518L33.806 10.9672C32.6577 10.703 32.0994 10.2347 32.0994 9.53572C32.0994 8.59076 32.8558 8.0266 34.1225 8.0266C35.3621 8.0266 36.1184 8.68917 36.1456 9.79895L36.1465 9.8365H39.3742L39.3738 9.79764C39.3466 7.26461 37.291 5.56274 34.2585 5.56274C32.7034 5.56274 31.3739 5.93847 30.4138 6.64944C29.4225 7.38342 28.8985 8.42687 28.8985 9.66691C28.8985 11.708 30.0132 12.8601 32.5122 13.4028L34.9281 13.9537C35.9908 14.1871 36.4442 14.5917 36.4442 15.3064C36.4442 16.2514 35.5662 16.8156 34.0956 16.8156C32.6349 16.8156 31.7467 16.1432 31.7195 15.017L31.7185 14.9795H28.4913V15.018C28.4913 16.2867 29.0067 17.3662 29.9817 18.1395C30.9652 18.9196 32.3502 19.3319 33.9869 19.3319C35.639 19.3319 37.0483 18.9345 38.0622 18.1829C39.0978 17.4152 39.6453 16.3298 39.6453 15.0442C39.6453 13.1293 38.5894 12.0418 36.2217 11.518Z" fill="black"/>
<path d="M48.0525 6.76544C46.4042 6.76544 44.9528 7.43509 44.1404 8.5631V3.28345H41.0228V18.9914H44.1158V12.5085C44.1158 10.6759 45.2829 9.49175 47.0892 9.49175C48.6807 9.49175 49.5934 10.5478 49.5934 12.3891V18.9914H52.6862V11.6969C52.6862 10.1478 52.2902 8.93059 51.5091 8.0792C50.7094 7.20749 49.5465 6.76544 48.0525 6.76544Z" fill="black"/>
<path d="M62.7242 13.344C62.7242 15.5506 61.8162 16.6233 59.9484 16.6233C58.2062 16.6233 57.3949 15.6344 57.3949 13.5112V7.12366H54.3019V14.5374C54.3019 17.4761 56.0302 19.3017 58.8123 19.3017C60.4028 19.3017 61.9646 18.5751 62.7388 17.4841L62.9516 18.9914H65.8172V7.12366H62.7242V13.344Z" fill="black"/>
<path d="M88.8408 3.28345H85.7726V18.9914H88.8408V3.28345Z" fill="black"/>
<path d="M110.739 7.00122L110.654 7.0013C109.067 7.0013 107.806 7.65525 107.246 8.75841L107.084 7.14703H104.168V18.991H107.261V13.2241C107.261 11.0479 108.501 9.84949 110.753 9.84949H111.904V7.08047L111.87 7.07578C111.318 7.0006 111.101 7.00145 110.739 7.00122Z" fill="black"/>
<path d="M119.357 12.1846L117.159 11.6834C116.116 11.4434 115.609 11.0184 115.609 10.3841C115.609 9.51367 116.279 9.01445 117.446 9.01445C118.572 9.01445 119.259 9.61608 119.284 10.6238L119.284 10.6613H122.229L122.228 10.6224C122.203 8.31548 120.331 6.7655 117.57 6.7655C116.154 6.7655 114.943 7.10768 114.069 7.75501C113.166 8.42351 112.689 9.37401 112.689 10.5036C112.689 12.3627 113.704 13.4122 115.98 13.9065L118.178 14.4078C119.143 14.6197 119.555 14.9868 119.555 15.6353C119.555 16.493 118.757 17.005 117.421 17.005C116.095 17.005 115.288 16.3945 115.263 15.3718L115.262 15.3342H112.318V15.3727C112.318 16.5283 112.788 17.5115 113.676 18.2159C114.572 18.9263 115.833 19.3017 117.323 19.3017C118.827 19.3017 120.11 18.9399 121.033 18.2555C121.977 17.5562 122.475 16.5675 122.475 15.3966C122.475 13.6522 121.513 12.6616 119.357 12.1846Z" fill="black"/>
<path d="M99.8065 15.1231C99.4656 16.229 98.3827 16.838 96.7573 16.838C94.7879 16.838 93.6729 15.8119 93.4425 13.7881L102.626 13.7642V12.8427C102.626 9.15095 100.264 6.7655 96.609 6.7655C93.0082 6.7655 90.4935 9.35285 90.4935 13.0574C90.4935 16.734 93.0489 19.3017 96.7078 19.3017C99.9198 19.3017 102.15 17.7464 102.675 15.1413L102.684 15.0956H99.8149L99.8065 15.1231ZM99.5436 11.6087H93.5703C93.9289 10.052 94.9873 9.22943 96.6338 9.22943C98.3046 9.22936 99.4157 10.1398 99.5436 11.6087Z" fill="black"/>
<path d="M81.2986 15.5634V9.63436H83.6889V7.12288H81.3178V3.44714H78.225V7.12288H75.8786V9.63436H78.2417V16.0727C78.2417 17.8726 79.5034 18.9907 81.5343 18.9907H83.9127V16.4106H82.3819C81.6832 16.4106 81.2986 16.1097 81.2986 15.5634Z" fill="black"/>
<path d="M72.5507 15.5634V9.63436H74.9368V7.12288H72.5656V3.44714H69.4729V7.12288H67.1265V9.63436H69.4914V16.0727C69.4914 17.8726 70.7539 18.9907 72.7864 18.9907H75.1647V16.4106H73.6339C72.9354 16.4106 72.5507 16.1097 72.5507 15.5634Z" fill="black"/>
</svg>
