<svg width="123" height="24" viewBox="0 0 123 24" fill="none" xmlns="http://www.w3.org/2000/svg">
<path fill-rule="evenodd" clip-rule="evenodd" d="M3.35474 18.9917C7.35049 23.9643 14.7609 24.8651 19.9065 21.0037C25.0521 17.1423 25.9841 9.98101 21.9884 5.00844C17.9927 0.0358697 10.5823 -0.864848 5.4367 2.99648C0.291196 6.85789 -0.64094 14.0192 3.35474 18.9917ZM18.159 15.729L10.5774 20.8603V16.8367L15.3936 13.5771C15.5662 13.5905 15.7457 13.5471 15.9011 13.4437C16.236 13.2168 16.3291 12.7831 16.1254 12.4494C16.122 12.4461 16.1194 12.4419 16.1168 12.4377C16.1142 12.4335 16.1116 12.4294 16.1082 12.426C16.1047 12.421 16.1021 12.4169 16.0995 12.4127C16.0969 12.4085 16.0944 12.4043 16.0909 12.3993C16.0859 12.3945 16.0827 12.3896 16.0787 12.3835C16.0772 12.3812 16.0755 12.3787 16.0736 12.3759C16.0667 12.3692 16.0598 12.3625 16.0529 12.3525C15.8009 12.0522 15.3452 11.9888 15.0103 12.2157C15.0068 12.2191 15.0034 12.2216 14.9999 12.2241C14.9965 12.2266 14.993 12.2291 14.9896 12.2324C14.848 12.3358 14.7513 12.476 14.7099 12.6328C14.7065 12.6361 14.7065 12.6395 14.7065 12.6428L11.7857 14.618C11.7275 14.6576 11.6659 14.6941 11.6043 14.7304L11.6028 14.7314C11.2367 14.955 10.8432 15.1118 10.4392 15.2085C8.88214 15.5755 7.18006 15.0116 6.20302 13.6671C5.56779 12.7896 5.36061 11.7487 5.54016 10.7711C5.71971 9.79689 6.2824 8.88602 7.18699 8.27215L14.7721 3.14077V7.1643L9.95593 10.424C9.77988 10.4106 9.60033 10.4506 9.44499 10.5574C9.11352 10.781 9.01686 11.2181 9.22404 11.5517C9.22575 11.555 9.22834 11.5592 9.23093 11.5634C9.23352 11.5676 9.2361 11.5717 9.23781 11.5751C9.24128 11.5801 9.24386 11.5843 9.24645 11.5884C9.24904 11.5926 9.25163 11.5968 9.25509 11.6018C9.26011 11.6066 9.26329 11.6115 9.26729 11.6176C9.26881 11.6199 9.27046 11.6224 9.27237 11.6252C9.2793 11.6319 9.28615 11.6386 9.29307 11.6486C9.54858 11.9489 10.0043 12.0123 10.3357 11.7854C10.3386 11.7826 10.3421 11.7804 10.3454 11.7783C10.3501 11.7753 10.3544 11.7726 10.3564 11.7687C10.5015 11.6686 10.5947 11.5252 10.6396 11.3683C10.6396 11.365 10.6396 11.3616 10.643 11.3583L13.5603 9.38316C13.6224 9.34315 13.6812 9.30645 13.7433 9.26974C14.1128 9.04614 14.5063 8.88933 14.9103 8.79261C16.4673 8.42566 18.1694 8.98951 19.143 10.334C19.7782 11.2115 19.9854 12.2524 19.8058 13.23C19.6298 14.2042 19.067 15.1151 18.159 15.729Z" fill="white"/>
<path d="M36.2226 11.5182L33.8069 10.9674C32.6586 10.7032 32.1003 10.2349 32.1003 9.53596C32.1003 8.591 32.8567 8.02684 34.1235 8.02684C35.363 8.02684 36.1194 8.68942 36.1465 9.79919L36.1475 9.83674H39.3751L39.3747 9.79788C39.3476 7.26486 37.2919 5.56299 34.2594 5.56299C32.7044 5.56299 31.3748 5.93871 30.4147 6.64968C29.4235 7.38366 28.8995 8.42711 28.8995 9.66715C28.8995 11.7082 30.0141 12.8604 32.5131 13.4031L34.929 13.954C35.9917 14.1874 36.4451 14.5919 36.4451 15.3067C36.4451 16.2516 35.5671 16.8158 34.0965 16.8158C32.6358 16.8158 31.7476 16.1435 31.7204 15.0173L31.7194 14.9797H28.4922V15.0182C28.4922 16.287 29.0076 17.3664 29.9826 18.1398C30.9661 18.9199 32.3511 19.3321 33.9878 19.3321C35.6399 19.3321 37.0492 18.9348 38.0631 18.1832C39.0987 17.4154 39.6462 16.33 39.6462 15.0445C39.6462 13.1295 38.5903 12.0421 36.2226 11.5182Z" fill="white"/>
<path d="M48.0531 6.76568C46.4048 6.76568 44.9534 7.43533 44.141 8.56335V3.28369H41.0234V18.9916H44.1164V12.5087C44.1164 10.6762 45.2835 9.492 47.0898 9.492C48.6813 9.492 49.594 10.5481 49.594 12.3894V18.9916H52.6868V11.6972C52.6868 10.148 52.2908 8.93084 51.5098 8.07944C50.71 7.20773 49.5471 6.76568 48.0531 6.76568Z" fill="white"/>
<path d="M62.725 13.3444C62.725 15.551 61.8171 16.6236 59.9492 16.6236C58.2071 16.6236 57.3957 15.6347 57.3957 13.5115V7.12402H54.3027V14.5377C54.3027 17.4765 56.031 19.3021 58.8132 19.3021C60.4037 19.3021 61.9655 18.5754 62.7397 17.4844L62.9524 18.9918H65.818V7.12402H62.725V13.3444Z" fill="white"/>
<path d="M88.8416 3.28369H85.7734V18.9916H88.8416V3.28369Z" fill="white"/>
<path d="M110.739 7.00146L110.654 7.00154C109.067 7.00154 107.806 7.6555 107.246 8.75866L107.084 7.14728H104.168V18.9913H107.261V13.2244C107.261 11.0482 108.501 9.84974 110.753 9.84974H111.904V7.08072L111.87 7.07602C111.318 7.00085 111.101 7.0017 110.739 7.00146Z" fill="white"/>
<path d="M119.357 12.1847L117.159 11.6835C116.116 11.4435 115.609 11.0185 115.609 10.3843C115.609 9.51379 116.279 9.01457 117.446 9.01457C118.572 9.01457 119.259 9.6162 119.283 10.6239L119.284 10.6614H122.229L122.228 10.6226C122.203 8.3156 120.331 6.76562 117.57 6.76562C116.154 6.76562 114.943 7.1078 114.069 7.75514C113.166 8.42363 112.689 9.37413 112.689 10.5037C112.689 12.3628 113.704 13.4124 115.98 13.9066L118.178 14.4079C119.143 14.6198 119.555 14.9869 119.555 15.6354C119.555 16.4931 118.757 17.0051 117.421 17.0051C116.094 17.0051 115.288 16.3946 115.263 15.3719L115.262 15.3344H112.318V15.3728C112.318 16.5284 112.788 17.5116 113.676 18.216C114.572 18.9264 115.832 19.3018 117.323 19.3018C118.827 19.3018 120.11 18.94 121.033 18.2556C121.977 17.5563 122.475 16.5676 122.475 15.3967C122.475 13.6523 121.513 12.6617 119.357 12.1847Z" fill="white"/>
<path d="M99.8071 15.1232C99.4663 16.2291 98.3833 16.8381 96.7579 16.8381C94.7886 16.8381 93.6735 15.812 93.4432 13.7882L102.626 13.7643V12.8428C102.626 9.15107 100.265 6.76562 96.6097 6.76562C93.0089 6.76562 90.4941 9.35298 90.4941 13.0576C90.4941 16.7341 93.0496 19.3018 96.7085 19.3018C99.9204 19.3018 102.151 17.7465 102.675 15.1415L102.684 15.0957H99.8156L99.8071 15.1232ZM99.5443 11.6088H93.571C93.9296 10.0521 94.9879 9.22956 96.6345 9.22956C98.3052 9.22948 99.4164 10.1399 99.5443 11.6088Z" fill="white"/>
<path d="M81.2989 15.5638V9.63473H83.6892V7.12325H81.3181V3.44751H78.2253V7.12325H75.8789V9.63473H78.242V16.0731C78.242 17.873 79.5036 18.9911 81.5345 18.9911H83.913V16.411H82.3821C81.6835 16.411 81.2989 16.1101 81.2989 15.5638Z" fill="white"/>
<path d="M72.5511 15.5638V9.63473H74.9372V7.12325H72.5661V3.44751H69.4733V7.12325H67.127V9.63473H69.4918V16.0731C69.4918 17.873 70.7544 18.9911 72.7868 18.9911H75.1652V16.411H73.6344C72.9359 16.411 72.5511 16.1101 72.5511 15.5638Z" fill="white"/>
</svg>
