<svg width="107" height="22" viewBox="0 0 107 22" fill="none" xmlns="http://www.w3.org/2000/svg">
<g clip-path="url(#clip0_437_2670)">
<mask id="mask0_437_2670" style="mask-type:luminance" maskUnits="userSpaceOnUse" x="0" y="0" width="103" height="21">
<path d="M102.504 0.659668H0V20.4412H102.504V0.659668Z" fill="white"/>
</mask>
<g mask="url(#mask0_437_2670)">
<path d="M44.703 15.3229C44.3986 15.3229 42.6406 17.2991 40.3921 17.4709C38.8031 17.5912 37.958 16.4399 37.958 15.6838C42.8434 14.9791 44.8549 13.0373 44.8549 10.5629C44.8549 8.89609 43.452 7.16049 41.1361 7.16049C36.0647 7.16049 34.7292 12.1267 34.5601 15.5635C34.4418 17.0756 33.5797 17.2991 32.9205 17.2647C32.2442 17.2304 31.7541 16.6288 31.8724 15.5462L32.8698 8.7243C32.8866 8.60401 33.1402 7.22928 32.1766 7.19488C31.1623 7.14318 29.8269 7.62435 29.5903 9.10227C29.3705 10.5458 29.2691 11.3706 29.0832 12.5391C28.9479 13.5185 28.762 14.5153 28.6773 15.4604C28.4915 16.3539 28.1872 16.8007 27.2576 16.8007C26.0742 16.6803 26.108 15.6323 26.2263 14.7385L27.0547 8.7414C27.0715 8.6211 27.325 7.22928 26.3615 7.19488C25.3474 7.14318 24.0118 7.64165 23.7751 9.11937C23.7244 9.48024 23.6736 9.80672 23.623 10.1161V10.099C23.3863 11.8173 22.5917 12.5735 21.6789 12.3843C20.7661 12.1783 21.2226 9.63493 21.2394 9.60057C21.5438 7.46987 20.7999 6.71371 18.9741 7.50406C18.0107 7.91664 17.0134 8.99909 16.3539 9.80672L16.5061 8.7243C16.5232 8.60401 16.7767 7.22928 15.8132 7.19488C14.7988 7.14318 13.4635 7.62435 13.2267 9.10227C13.2267 9.15377 13.2098 9.20547 13.2098 9.25698C13.2098 9.25698 13.0914 9.89286 12.9393 10.4426C12.8718 10.666 12.8041 10.8894 12.7534 11.0441C12.5506 11.6455 12.3308 12.2297 12.0941 12.7968C11.8406 13.3638 11.5869 13.9138 11.2827 14.4465C11.1306 14.7044 10.9784 14.9621 10.8094 15.2027C10.6405 15.4432 10.4712 15.6838 10.2854 15.89C9.9304 16.3197 9.52479 16.6803 9.11891 16.9382C9.05138 16.9897 8.98372 17.0241 8.91604 17.0585C6.9552 17.9177 6.60018 15.9932 6.54953 15.7182C6.53251 15.5806 6.51569 15.4258 6.51569 15.2715C6.49867 15.0308 6.49867 14.773 6.51569 14.4982C6.51569 14.2403 6.5325 13.9653 6.56635 13.6903C6.61701 13.1406 6.7017 12.5735 6.81984 12.0064C6.92135 11.4908 7.03969 10.9925 7.17485 10.477C8.32437 10.6143 9.40646 10.7177 9.79508 10.7347C10.7249 10.8035 11.2488 10.3223 11.3335 9.78964C11.4011 9.37725 11.3503 9.60057 11.5194 8.6211C11.773 7.17758 11.4686 7.17758 10.3023 7.17758C10.3023 7.17758 9.4739 7.17758 8.29052 7.17758C8.32437 7.10899 8.34139 7.0402 8.37522 6.9543C8.81473 5.87166 9.37256 4.89221 9.94722 3.80957C10.6741 2.41775 10.4882 2.09127 9.59223 1.31781C6.81984 -0.761372 5.41683 2.95042 5.09566 3.53459C4.84217 4.11896 4.60551 4.70312 4.35181 5.39048C4.13215 5.97484 3.92933 6.57611 3.76032 7.17758H0.835771C-0.0432379 7.17758 0.0412597 8.00254 0.0412597 8.00254C0.0412597 8.7758 1.84993 9.46314 3.06712 9.82407C2.96582 10.3223 2.88112 10.8379 2.81364 11.3361C2.71212 12.0235 2.66147 12.7281 2.62762 13.4499C2.61081 14.1715 2.62762 14.9105 2.72915 15.6838C2.7798 16.0617 2.86429 16.457 2.98263 16.8694C3.05031 17.0756 3.11779 17.2818 3.18546 17.4881C3.26996 17.6944 3.37148 17.9006 3.47279 18.1068C3.69265 18.5191 3.9968 18.9316 4.38564 19.2924C4.77449 19.6533 5.24784 19.9454 5.738 20.1345C5.99169 20.2203 6.22836 20.2892 6.48185 20.3236C6.71852 20.358 7.02288 20.3751 7.24253 20.3751C7.68203 20.3751 8.13856 20.3063 8.56107 20.1859C8.98372 20.0657 9.38938 19.8594 9.74446 19.6362C10.0994 19.3956 10.4205 19.1377 10.6911 18.8456C11.2319 18.2786 11.6207 17.6427 11.9419 17.007C12.0096 16.8694 12.0773 16.7147 12.1448 16.5774C12.0264 17.8833 12.0941 19.0518 12.5675 19.6533C13.4972 20.8047 14.782 20.4265 14.9171 19.5158C15.0355 18.7082 15.2721 17.11 15.4582 15.9071C15.6778 14.6699 15.9145 13.9309 16.3539 12.9171C16.8782 11.7315 18.3489 10.7347 18.315 12.1267C18.2305 16.1994 21.2394 16.268 22.9806 14.4638C22.7272 16.2509 22.6594 17.9177 23.5891 19.0691C25.4147 21.303 28.1366 20.2033 29.5564 19.2236C30.8242 20.9765 34.1206 20.5983 35.5574 18.8285C36.5886 20.2719 38.5159 20.4265 39.9359 20.3751C44.0098 20.1516 46.5455 15.3229 44.703 15.3229ZM41.8799 10.752C42.1502 12.0235 40.3753 13.1062 37.9748 13.467C37.9748 12.9 38.1776 11.3705 39.5976 10.6317C40.5951 10.1335 41.7616 10.1506 41.8799 10.752Z" fill="white"/>
<path d="M70.3809 1.29003C70.3809 0.975289 70.6597 0.69165 70.9695 0.69165H73.5724C73.8823 0.69165 74.1611 0.975289 74.1611 1.29003V19.7847C74.1611 20.0999 73.8823 20.3833 73.5724 20.3833H70.9695C70.6597 20.3833 70.3809 20.0999 70.3809 19.7847V1.29003Z" fill="white"/>
<path d="M75.6367 1.29003C75.6367 0.975289 75.9156 0.69165 76.2252 0.69165H78.8281C79.138 0.69165 79.4168 0.975289 79.4168 1.29003V19.7847C79.4168 20.0999 79.138 20.3833 78.8281 20.3833H76.2252C75.9156 20.3833 75.6367 20.0999 75.6367 19.7847V1.29003Z" fill="white"/>
<path d="M88.9531 12.1933C88.9966 12.1933 89.0316 12.154 89.0264 12.1099C88.8942 10.9818 87.9221 10.0516 86.7732 10.0516C85.5638 10.0516 84.561 10.9509 84.369 12.1063C84.3614 12.1515 84.3973 12.1933 84.4425 12.1933H88.9531ZM86.8663 7.15381C90.0578 7.15381 92.6608 9.61055 92.6608 13.0125C92.6608 13.233 92.6294 13.6424 92.5979 13.8629C92.5673 14.1778 92.2886 14.3982 92.0098 14.3982H84.1588C84.1152 14.3982 84.08 14.4365 84.0844 14.4803C84.2164 15.7505 85.2925 17.1388 87.0515 17.1388C88.0125 17.1388 88.9112 16.7606 89.4685 16.3514C89.7784 16.1622 90.0578 16.0994 90.2745 16.3514L91.5441 17.8315C91.7617 18.0521 91.8246 18.3986 91.5135 18.6507C90.4912 19.627 88.9112 20.3832 86.897 20.3832C83.1785 20.3832 80.5449 17.3905 80.5449 13.7683C80.5449 10.2091 83.1785 7.15381 86.8663 7.15381Z" fill="white"/>
<path d="M93.748 8.08838C93.748 7.74192 94.0268 7.49 94.337 7.49H95.514C95.7927 7.49 95.9789 7.64737 96.0724 7.89948L96.4599 8.99573C96.4788 9.05114 96.5507 9.06329 96.5849 9.01612C97.0704 8.35409 98.1935 7.17505 100.008 7.17505C101.464 7.17505 102.765 7.64737 102.393 8.43483L101.247 10.4823C101.092 10.7659 100.781 10.8918 100.534 10.7659C100.441 10.7342 99.9756 10.5766 99.6357 10.5766C98.6251 10.5766 97.9444 11.1418 97.609 11.5894C97.4921 11.7467 97.4355 11.9422 97.4355 12.1394V19.7849C97.4355 20.1154 97.172 20.3835 96.8466 20.3835H94.337C94.0133 20.3835 93.748 20.114 93.748 19.7849V8.08838Z" fill="white"/>
<path d="M52.4883 20.3834C48.8688 20.3834 45.9238 17.4186 45.9238 13.7744C45.9238 10.1917 48.9446 7.16504 52.5197 7.16504C54.3782 7.16504 55.8749 7.89544 57.0957 9.39748C57.1824 9.51097 57.2203 9.649 57.2005 9.78406C57.1788 9.93008 57.0918 10.0638 56.9563 10.1604L55.5024 11.5728C55.4232 11.6443 55.3405 11.6802 55.2517 11.6802C55.1314 11.6802 54.9955 11.6129 54.836 11.4738C54.2692 10.8241 53.4351 10.4315 52.6137 10.4315C50.8697 10.4315 49.451 11.9311 49.451 13.7744C49.451 15.6488 50.8263 17.1171 52.5823 17.1171C53.8793 17.1171 54.4976 16.5168 55.0429 15.9873L55.1529 15.8808C55.2706 15.761 55.4112 15.6959 55.5507 15.6959C55.6491 15.6959 55.7409 15.728 55.8242 15.7916L57.1689 16.9675C57.386 17.1445 57.5955 17.4204 57.374 17.7418C56.2828 19.4711 54.5939 20.3834 52.4883 20.3834Z" fill="white"/>
<path d="M65.4897 16.3725C65.4897 16.4473 65.4695 16.5204 65.4269 16.5817C65.1424 16.9919 64.2602 17.7056 63.3516 17.7056C62.3911 17.7056 61.7405 17.0127 61.7405 16.0677C61.7405 15.0598 62.5461 14.3668 63.7547 14.3668C64.4324 14.3668 65.0749 14.5819 65.3498 14.6877C65.4347 14.7201 65.4897 14.8029 65.4897 14.895V16.3725ZM64.1263 7.15381C62.1431 7.15381 60.1602 7.65764 59.9121 7.75198C59.6333 7.84674 59.3853 8.06714 59.4784 8.53946L59.7576 10.1775C59.8194 10.5871 60.0362 10.8705 60.47 10.7447C61.1826 10.5239 62.7941 10.2719 63.9404 10.2719C64.9562 10.2719 65.4614 10.7172 65.5416 11.9362C65.5579 12.1827 65.333 12.376 65.0966 12.3196C64.6823 12.2205 64.0241 12.0991 63.2897 12.0991C60.1292 12.0991 58.332 13.8313 58.332 16.0677C58.332 18.7453 60.0362 20.3832 62.5153 20.3832C64.2849 20.3832 65.3964 19.5817 66.1175 18.9381C66.1548 18.9049 66.2117 18.9187 66.2314 18.9648L66.7215 20.1124C66.7916 20.2767 66.9512 20.3832 67.1274 20.3832H68.4556C68.7002 20.3832 68.8984 20.1818 68.8984 19.9331V19.4695V12.6343C68.8984 9.20107 67.9995 7.15381 64.1263 7.15381Z" fill="white"/>
</g>
</g>
<defs>
<clipPath id="clip0_437_2670">
<rect width="107" height="21" fill="white" transform="translate(0 0.5)"/>
</clipPath>
</defs>
</svg>
