<svg width="103" height="21" viewBox="0 0 103 21" fill="none" xmlns="http://www.w3.org/2000/svg">
<mask id="mask0_308_2213" style="mask-type:luminance" maskUnits="userSpaceOnUse" x="0" y="0" width="103" height="21">
<path d="M102.504 0.659668H0V20.4412H102.504V0.659668Z" fill="white"/>
</mask>
<g mask="url(#mask0_308_2213)">
<path d="M44.7027 15.3229C44.3983 15.3229 42.6403 17.2991 40.3919 17.4709C38.8029 17.5912 37.9577 16.4399 37.9577 15.6838C42.8431 14.9791 44.8547 13.0373 44.8547 10.5629C44.8547 8.89609 43.4517 7.16049 41.1358 7.16049C36.0644 7.16049 34.729 12.1267 34.5598 15.5635C34.4415 17.0756 33.5795 17.2991 32.9202 17.2647C32.2439 17.2304 31.7538 16.6288 31.8721 15.5462L32.8695 8.7243C32.8863 8.60401 33.14 7.22928 32.1763 7.19488C31.1621 7.14318 29.8266 7.62435 29.59 9.10227C29.3702 10.5458 29.2688 11.3706 29.0829 12.5391C28.9476 13.5185 28.7617 14.5153 28.6771 15.4604C28.4912 16.3539 28.1869 16.8007 27.2573 16.8007C26.0739 16.6803 26.1077 15.6323 26.226 14.7385L27.0544 8.7414C27.0713 8.6211 27.3247 7.22928 26.3612 7.19488C25.3471 7.14318 24.0115 7.64165 23.7748 9.11937C23.7241 9.48024 23.6733 9.80672 23.6227 10.1161V10.099C23.3861 11.8173 22.5915 12.5735 21.6786 12.3843C20.7658 12.1783 21.2223 9.63493 21.2391 9.60057C21.5435 7.46987 20.7996 6.71371 18.9739 7.50406C18.0104 7.91664 17.0131 8.99909 16.3536 9.80672L16.5059 8.7243C16.5229 8.60401 16.7764 7.22928 15.8129 7.19488C14.7985 7.14318 13.4632 7.62435 13.2264 9.10227C13.2264 9.15377 13.2095 9.20547 13.2095 9.25698C13.2095 9.25698 13.0911 9.89286 12.9391 10.4426C12.8715 10.666 12.8038 10.8894 12.7531 11.0441C12.5504 11.6455 12.3305 12.2297 12.0939 12.7968C11.8403 13.3638 11.5866 13.9138 11.2825 14.4465C11.1303 14.7044 10.9781 14.9621 10.8091 15.2027C10.6402 15.4432 10.471 15.6838 10.2851 15.89C9.93013 16.3197 9.52452 16.6803 9.11864 16.9382C9.05111 16.9897 8.98345 17.0241 8.91577 17.0585C6.95492 17.9177 6.59991 15.9932 6.54926 15.7182C6.53224 15.5806 6.51542 15.4258 6.51542 15.2715C6.49839 15.0308 6.49839 14.773 6.51542 14.4982C6.51542 14.2403 6.53223 13.9653 6.56607 13.6903C6.61673 13.1406 6.70142 12.5735 6.81957 12.0064C6.92108 11.4908 7.03942 10.9925 7.17458 10.477C8.32409 10.6143 9.40619 10.7177 9.7948 10.7347C10.7246 10.8035 11.2486 10.3223 11.3332 9.78964C11.4008 9.37725 11.35 9.60057 11.5191 8.6211C11.7727 7.17758 11.4683 7.17758 10.302 7.17758C10.302 7.17758 9.47362 7.17758 8.29025 7.17758C8.32409 7.10899 8.34111 7.0402 8.37495 6.9543C8.81446 5.87166 9.37229 4.89221 9.94694 3.80957C10.6738 2.41775 10.488 2.09127 9.59195 1.31781C6.81956 -0.761372 5.41655 2.95042 5.09539 3.53459C4.8419 4.11896 4.60523 4.70312 4.35153 5.39048C4.13188 5.97484 3.92905 6.57611 3.76005 7.17758H0.835496C-0.0435126 7.17758 0.040985 8.00254 0.040985 8.00254C0.040985 8.7758 1.84966 9.46314 3.06685 9.82407C2.96554 10.3223 2.88084 10.8379 2.81337 11.3361C2.71184 12.0235 2.66119 12.7281 2.62735 13.4499C2.61054 14.1715 2.62735 14.9105 2.72887 15.6838C2.77952 16.0617 2.86402 16.457 2.98236 16.8694C3.05004 17.0756 3.11752 17.2818 3.18519 17.4881C3.26968 17.6944 3.37121 17.9006 3.47252 18.1068C3.69238 18.5191 3.99653 18.9316 4.38537 19.2924C4.77422 19.6533 5.24756 19.9454 5.73772 20.1345C5.99141 20.2203 6.22809 20.2892 6.48157 20.3236C6.71825 20.358 7.0226 20.3751 7.24225 20.3751C7.68175 20.3751 8.13828 20.3063 8.5608 20.1859C8.98345 20.0657 9.3891 19.8594 9.74418 19.6362C10.0992 19.3956 10.4203 19.1377 10.6908 18.8456C11.2317 18.2786 11.6205 17.6427 11.9416 17.007C12.0093 16.8694 12.0771 16.7147 12.1445 16.5774C12.0262 17.8833 12.0939 19.0518 12.5672 19.6533C13.4969 20.8047 14.7817 20.4265 14.9169 19.5158C15.0352 18.7082 15.2719 17.11 15.4579 15.9071C15.6776 14.6699 15.9142 13.9309 16.3536 12.9171C16.8779 11.7315 18.3486 10.7347 18.3147 12.1267C18.2303 16.1994 21.2391 16.268 22.9804 14.4638C22.7269 16.2509 22.6592 17.9177 23.5888 19.0691C25.4145 21.303 28.1363 20.2033 29.5561 19.2236C30.8239 20.9765 34.1203 20.5983 35.5572 18.8285C36.5883 20.2719 38.5156 20.4265 39.9356 20.3751C44.0095 20.1516 46.5453 15.3229 44.7027 15.3229ZM41.8796 10.752C42.1499 12.0235 40.375 13.1062 37.9746 13.467C37.9746 12.9 38.1773 11.3705 39.5974 10.6317C40.5948 10.1335 41.7613 10.1506 41.8796 10.752Z" fill="black"/>
<path d="M70.3806 1.29003C70.3806 0.975289 70.6594 0.69165 70.9692 0.69165H73.5721C73.882 0.69165 74.1608 0.975289 74.1608 1.29003V19.7847C74.1608 20.0999 73.882 20.3833 73.5721 20.3833H70.9692C70.6594 20.3833 70.3806 20.0999 70.3806 19.7847V1.29003Z" fill="black"/>
<path d="M75.636 1.29003C75.636 0.975289 75.9148 0.69165 76.2245 0.69165H78.8273C79.1372 0.69165 79.416 0.975289 79.416 1.29003V19.7847C79.416 20.0999 79.1372 20.3833 78.8273 20.3833H76.2245C75.9148 20.3833 75.636 20.0999 75.636 19.7847V1.29003Z" fill="black"/>
<path d="M88.9524 12.1933C88.9959 12.1933 89.0309 12.154 89.0258 12.1099C88.8935 10.9818 87.9214 10.0516 86.7726 10.0516C85.5632 10.0516 84.5604 10.9509 84.3683 12.1063C84.3608 12.1515 84.3966 12.1933 84.4419 12.1933H88.9524ZM86.8656 7.15381C90.0571 7.15381 92.6602 9.61055 92.6602 13.0125C92.6602 13.233 92.6287 13.6424 92.5972 13.8629C92.5667 14.1778 92.2879 14.3982 92.0092 14.3982H84.1582C84.1146 14.3982 84.0793 14.4365 84.0837 14.4803C84.2157 15.7505 85.2918 17.1388 87.0509 17.1388C88.0119 17.1388 88.9106 16.7606 89.4679 16.3514C89.7778 16.1622 90.0571 16.0994 90.2738 16.3514L91.5434 17.8315C91.761 18.0521 91.824 18.3986 91.5129 18.6507C90.4905 19.627 88.9106 20.3832 86.8964 20.3832C83.1778 20.3832 80.5443 17.3905 80.5443 13.7683C80.5443 10.2091 83.1778 7.15381 86.8656 7.15381Z" fill="black"/>
<path d="M93.7482 8.08826C93.7482 7.7418 94.0269 7.48988 94.3371 7.48988H95.5141C95.7929 7.48988 95.979 7.64725 96.0725 7.89936L96.46 8.99561C96.4789 9.05101 96.5508 9.06317 96.585 9.016C97.0706 8.35397 98.1936 7.17493 100.008 7.17493C101.464 7.17493 102.765 7.64725 102.394 8.43471L101.247 10.4822C101.093 10.7657 100.781 10.8917 100.534 10.7657C100.442 10.7341 99.9757 10.5765 99.6359 10.5765C98.6252 10.5765 97.9445 11.1417 97.6092 11.5893C97.4923 11.7466 97.4356 11.942 97.4356 12.1393V19.7848C97.4356 20.1153 97.1722 20.3833 96.8467 20.3833H94.3371C94.0134 20.3833 93.7482 20.1139 93.7482 19.7848V8.08826Z" fill="black"/>
<path d="M52.4874 20.3832C48.8679 20.3832 45.9229 17.4185 45.9229 13.7743C45.9229 10.1916 48.9437 7.16492 52.5188 7.16492C54.3773 7.16492 55.874 7.89532 57.0948 9.39736C57.1815 9.51084 57.2194 9.64888 57.1996 9.78394C57.1779 9.92996 57.091 10.0637 56.9555 10.1603L55.5015 11.5727C55.4223 11.6442 55.3397 11.6801 55.2508 11.6801C55.1305 11.6801 54.9946 11.6127 54.8351 11.4736C54.2683 10.824 53.4343 10.4314 52.6128 10.4314C50.8688 10.4314 49.4501 11.9309 49.4501 13.7743C49.4501 15.6487 50.8254 17.1169 52.5814 17.1169C53.8784 17.1169 54.4967 16.5167 55.042 15.9871L55.152 15.8807C55.2697 15.7609 55.4103 15.6958 55.5498 15.6958C55.6483 15.6958 55.74 15.7279 55.8233 15.7915L57.168 16.9674C57.3852 17.1444 57.5946 17.4203 57.3731 17.7417C56.2819 19.4709 54.593 20.3832 52.4874 20.3832Z" fill="black"/>
<path d="M65.4886 16.3725C65.4886 16.4473 65.4683 16.5204 65.4258 16.5817C65.1413 16.9919 64.2591 17.7056 63.3505 17.7056C62.39 17.7056 61.7393 17.0127 61.7393 16.0677C61.7393 15.0598 62.545 14.3668 63.7536 14.3668C64.4313 14.3668 65.0738 14.5819 65.3487 14.6877C65.4335 14.7201 65.4886 14.8029 65.4886 14.895V16.3725ZM64.1252 7.15381C62.142 7.15381 60.1591 7.65764 59.911 7.75198C59.6322 7.84674 59.3842 8.06714 59.4772 8.53946L59.7564 10.1775C59.8183 10.5871 60.0351 10.8705 60.4688 10.7447C61.1815 10.5239 62.793 10.2719 63.9393 10.2719C64.9551 10.2719 65.4602 10.7172 65.5405 11.9362C65.5567 12.1827 65.3318 12.376 65.0955 12.3196C64.6811 12.2205 64.0229 12.0991 63.2886 12.0991C60.128 12.0991 58.3309 13.8313 58.3309 16.0677C58.3309 18.7453 60.0351 20.3832 62.5142 20.3832C64.2838 20.3832 65.3952 19.5817 66.1164 18.9381C66.1537 18.9049 66.2106 18.9187 66.2303 18.9648L66.7204 20.1124C66.7905 20.2767 66.9501 20.3832 67.1263 20.3832H68.4544C68.6991 20.3832 68.8973 20.1818 68.8973 19.9331V19.4695V12.6343C68.8973 9.20107 67.9984 7.15381 64.1252 7.15381Z" fill="black"/>
</g>
</svg>
